<svg height="512pt" viewBox="0 0 512 512.00033" width="512pt" xmlns="http://www.w3.org/2000/svg"><path d="m39.785156 494.929688 70-471.992188c1.621094-10.925781-5.921875-21.097656-16.851562-22.71875-10.925782-1.625-21.09375 5.925781-22.714844 16.851562l-70 471.992188c-1.621094 10.925781 5.921875 21.097656 16.851562 22.71875.992188.148438 1.980469.21875 2.957032.21875 9.746094 0 18.285156-7.136719 19.757812-17.070312zm455.144532 16.851562c10.925781-1.621094 18.46875-11.792969 16.847656-22.71875l-69.996094-471.992188c-1.621094-10.925781-11.789062-18.472656-22.71875-16.851562-10.925781 1.621094-18.46875 11.792969-16.851562 22.71875l70 471.992188c1.472656 9.933593 10.011718 17.070312 19.757812 17.070312.980469 0 1.964844-.074219 2.960938-.21875zm-218.929688-271.78125v-26c0-11.042969-8.957031-20-20-20-11.046875 0-20 8.957031-20 20v26c0 11.046875 8.953125 20 20 20 11.042969 0 20-8.953125 20-20zm0-95.996094v-26c0-11.046875-8.957031-20-20-20-11.046875 0-20 8.953125-20 20v26c0 11.042969 8.953125 20 20 20 11.042969 0 20-8.957031 20-20zm0-96v-28c0-11.046875-8.957031-19.99999975-20-19.99999975-11.046875 0-20 8.95312475-20 19.99999975v28c0 11.046875 8.953125 20 20 20 11.042969 0 20-8.953125 20-20zm-39 265.996094v40.027344l-71.238281 71.046875c-3.144531 2.515625-4.757813 6.535156-4.761719 10.558593-.007812 9.777344 10.207031 16.199219 19.015625 11.957032l57.984375-31.714844v63.625l-19.09375 18.53125c-1.65625 1.511719-2.601562 3.660156-2.609375 5.90625-.019531 4.445312 3.582031 8.0625 8.027344 8.0625l65.046875-.074219c4.433594 0 8.027344-3.597656 8.027344-8.03125v-.945312c0-2.214844-1.179688-4.066407-2.789063-5.582031l-18.609375-18.105469v-63.320313l58.25 31.734375c8.804688 4.230469 19.007812-2.183593 19.007812-11.953125v-.003906c0-4.039062-2.332031-7.367188-5.492187-9.882812l-71.765625-70.878907v-40.953125c0-11.289062-8.542969-23-19.832031-23-11.285157-.003906-19.167969 11.710938-19.167969 22.996094zm0 0"/></svg>