<?xml version="1.0" encoding="iso-8859-1"?>
<!-- Generator: Adobe Illustrator 19.0.0, SVG Export Plug-In . SVG Version: 6.00 Build 0)  -->
<svg xmlns="http://www.w3.org/2000/svg" xmlns:xlink="http://www.w3.org/1999/xlink" version="1.1" id="Layer_1" x="0px" y="0px" viewBox="0 0 512.003 512.003" style="enable-background:new 0 0 512.003 512.003;" xml:space="preserve">
<path style="fill:#4DC9FF;" d="M376.604,56.888c-8.766,3.543-14.41,12.173-14.49,21.626l-0.856,106.618  c-0.022,2.63-2.161,4.75-4.791,4.75l0,0c-2.595,0-4.719-2.066-4.79-4.66l-4.265-162.188C347.064,10.213,336.567,0,323.738,0h-1.083  c-13.332,0-24.036,10.997-23.674,24.321l4.148,157.908c0.084,3.075-2.247,5.682-5.314,5.942c-3.139,0.267-5.919-2.019-6.263-5.15  l-17.17-161.383C273.062,9.636,262.919,0.55,250.841,0.55l0,0c-14.118,0-25.1,12.271-23.537,26.299l16.887,156.892  c0.363,3.258-2.216,6.095-5.495,6.044c-2.618-0.041-4.837-1.939-5.281-4.52l-22.33-135.163  c-2.174-12.413-13.693-20.948-26.204-19.417l-0.048,0.006c-13.459,1.647-22.79,14.233-20.451,27.587l22.12,126.277l3.361,69.208  c0.197,4.052-5.494,5.156-6.828,1.325L158.808,185.5c-7.56-19.394-29.414-28.989-48.812-21.431  c-7.762,3.024-11.602,11.767-8.578,19.527l60.521,145.677c2.295,5.888,5.369,11.442,9.139,16.514l21.205,28.526  c9.986,13.434,15.378,21.214,15.378,37.951l-11.355,70.31v22.178c0,4.005,3.247,7.251,7.251,7.251h186.381  c4.005,0,7.251-3.247,7.251-7.251v-22.178h0.085l-11.355-70.31c0-9.845,1.867-21.962,5.501-31.112  c0.699-1.759,1.344-3.54,1.913-5.346c11.38-36.1,17.173-64.144,17.173-102.005v-63.902c0.001-0.071,0.012-0.14,0.012-0.211  l1.098-129.894C411.762,62.754,394.655,49.592,376.604,56.888z"/>
<path style="fill:#00BDFF;" d="M376.604,56.888c-1.967,0.795-3.767,1.858-5.392,3.117c5.903,4.571,9.679,11.745,9.611,19.785  l-1.098,129.894c-0.001,0.072-0.011,0.14-0.013,0.211v63.902c0,37.861-5.793,65.905-17.173,102.005  c-0.569,1.805-1.214,3.586-1.913,5.346l0,0c-3.635,9.15-5.501,21.267-5.501,31.112l11.355,70.31h0.026V512h23.431  c4.005,0,7.252-3.246,7.252-7.251V482.57h0.086l-11.355-70.31c0-9.845,1.867-21.962,5.501-31.112  c0.699-1.759,1.344-3.54,1.913-5.346c11.38-36.1,17.173-64.144,17.173-102.005v-63.902c0.001-0.071,0.012-0.14,0.013-0.211  l1.098-129.894C411.762,62.754,394.655,49.592,376.604,56.888z"/>
<path style="fill:#088AFF;" d="M389.938,512H203.557c-4.005,0-7.251-3.247-7.251-7.251V482.57H397.19v22.178  C397.19,508.753,393.943,512,389.938,512z"/>
<path style="fill:#0076CE;" d="M396.209,508.379c0.034-0.059,0.073-0.114,0.106-0.174c0.008-0.015,0.014-0.031,0.022-0.047  c0.433-0.81,0.718-1.711,0.815-2.668c0.025-0.244,0.037-0.491,0.037-0.741V482.57l0,0l0,0H366.48l0,0h0.026V512h23.431  C392.618,512,394.953,510.542,396.209,508.379z"/>
<path style="fill:#088AFF;" d="M230.213,460.744c-0.318,0-0.64-0.027-0.964-0.082c-3.084-0.528-5.156-3.458-4.627-6.541l6.77-39.503  c0.528-3.085,3.459-5.154,6.542-4.628c3.084,0.528,5.156,3.458,4.627,6.541l-6.77,39.503  C235.318,458.795,232.922,460.744,230.213,460.744z"/>
<path style="fill:#0076CE;" d="M371.852,460.744c-2.769,0-5.19-2.031-5.6-4.852l-5.741-39.503c-0.451-3.097,1.695-5.972,4.792-6.422  c3.1-0.454,5.972,1.695,6.422,4.792l5.741,39.503c0.451,3.097-1.695,5.972-4.792,6.422  C372.398,460.724,372.123,460.744,371.852,460.744z"/>
<g>
	<path style="fill:#088AFF;" d="M299.018,460.743c-0.002,0-0.005,0-0.007,0c-3.13-0.004-5.663-2.544-5.659-5.673l0.051-39.503   c0.004-3.127,2.54-5.659,5.666-5.659c0.003,0,0.005,0,0.007,0c3.13,0.004,5.663,2.544,5.659,5.673l-0.051,39.503   C304.68,458.211,302.144,460.743,299.018,460.743z"/>
	<path style="fill:#088AFF;" d="M264.622,460.635c-0.206,0-0.413-0.011-0.624-0.033c-3.111-0.341-5.356-3.139-5.016-6.249l4.3-39.29   c0.341-3.111,3.13-5.339,6.25-5.016c3.111,0.341,5.356,3.139,5.016,6.25l-4.3,39.29   C269.929,458.486,267.474,460.635,264.622,460.635z"/>
	<path style="fill:#088AFF;" d="M336.874,460.635c-2.854,0-5.309-2.15-5.626-5.051l-4.286-39.29   c-0.339-3.111,1.907-5.908,5.018-6.247c3.119-0.335,5.907,1.907,6.247,5.018l4.286,39.29c0.339,3.111-1.907,5.908-5.018,6.247   C337.287,460.624,337.079,460.635,336.874,460.635z"/>
</g>
<g>
</g>
<g>
</g>
<g>
</g>
<g>
</g>
<g>
</g>
<g>
</g>
<g>
</g>
<g>
</g>
<g>
</g>
<g>
</g>
<g>
</g>
<g>
</g>
<g>
</g>
<g>
</g>
<g>
</g>
</svg>
