<?xml version="1.0" encoding="iso-8859-1"?>
<!-- Generator: Adobe Illustrator 19.0.0, SVG Export Plug-In . SVG Version: 6.00 Build 0)  -->
<svg xmlns="http://www.w3.org/2000/svg" xmlns:xlink="http://www.w3.org/1999/xlink" version="1.1" id="Layer_1" x="0px" y="0px" viewBox="0 0 512.001 512.001" style="enable-background:new 0 0 512.001 512.001;" xml:space="preserve">
<path style="fill:#BF8F64;" d="M342.299,285.751c-82.741-8.073-126.286-109.951-129.945-194.41  c-0.341-7.872-7.658-13.562-15.388-12.043L23.041,113.485c-6.067,1.192-10.439,6.513-10.427,12.696  c0.044,22.538-0.012,54.956-0.334,85.526C11.498,286.012,1.332,351.901,1.332,351.901h0.001H1.332  c-2.119,22.939-1.241,53.963-0.545,70.167c0.261,6.086,5.27,10.88,11.361,10.88h125.846c6.28,0,11.371-5.092,11.371-11.373V402.15  l13.426,1.029c14.43,1.036,39.598,5.575,53.222,10.442c42.241,15.087,155.142,42.685,280.076-19.344  c9.777-4.854,15.912-14.886,15.912-25.803V347.02C512,282.101,470.552,298.265,342.299,285.751z"/>
<path style="fill:#A06740;" d="M213.939,111.384c-0.771-6.752-1.3-13.451-1.586-20.043c-0.341-7.872-7.658-13.562-15.388-12.043  L23.041,113.485c-6.067,1.192-10.439,6.513-10.427,12.696c0.014,6.897,0.018,14.726,0.008,23.137l0,0l161.295-30.028  L213.939,111.384z"/>
<g>
	<path style="fill:#AF794E;" d="M330.959,284.016c-75.333-15.81-115.065-112.034-118.598-192.514   c-0.349-7.936-7.601-13.736-15.395-12.204l-24.229,4.762c-2.692,94.27,42.46,193.452,117.826,226.236   C307.896,317.836,330.959,302.92,330.959,284.016L330.959,284.016z"/>
	<path style="fill:#AF794E;" d="M416.35,291.101c1.923,18.121-4.219,74.593-31.35,112.204c35.486-5.854,86.244-21.299,127-42.548   V347.02C512,296.746,487.129,295.098,416.35,291.101z"/>
	<path style="fill:#AF794E;" d="M11.144,249.004c-2.841,57.722-9.812,102.898-9.812,102.898l118.098,9.055l0,0   C119.43,294.616,45.285,260.978,11.144,249.004z"/>
</g>
<path style="fill:#A06740;" d="M511.96,343.826c-0.005-0.239-0.011-0.479-0.018-0.716c-0.029-1.02-0.066-2.023-0.118-3  c-0.007-0.127-0.016-0.249-0.023-0.376c-0.05-0.887-0.112-1.754-0.182-2.606c-0.016-0.199-0.032-0.4-0.049-0.597  c-0.082-0.921-0.175-1.824-0.281-2.705c-0.02-0.165-0.042-0.326-0.063-0.49c-0.1-0.789-0.209-1.563-0.329-2.32  c-0.022-0.142-0.043-0.286-0.066-0.427c-0.138-0.837-0.289-1.652-0.453-2.45c-0.035-0.169-0.071-0.336-0.107-0.503  c-0.16-0.752-0.33-1.491-0.514-2.21c-0.015-0.06-0.029-0.123-0.045-0.183c-0.198-0.763-0.413-1.502-0.638-2.228  c-0.048-0.156-0.097-0.31-0.147-0.464c-0.233-0.724-0.475-1.435-0.736-2.123c-0.005-0.014-0.011-0.026-0.016-0.04  c-0.257-0.676-0.533-1.33-0.818-1.971c-0.058-0.131-0.116-0.263-0.176-0.393c-0.293-0.64-0.598-1.266-0.919-1.872  c-0.038-0.072-0.079-0.141-0.117-0.212c-0.301-0.559-0.616-1.102-0.943-1.633c-0.06-0.098-0.119-0.197-0.18-0.294  c-0.358-0.568-0.73-1.121-1.117-1.658c-0.063-0.087-0.128-0.171-0.191-0.257c-0.368-0.5-0.749-0.987-1.143-1.459  c-0.045-0.054-0.088-0.109-0.133-0.163c-0.429-0.507-0.876-0.996-1.336-1.473c-0.081-0.084-0.163-0.166-0.245-0.249  c-0.943-0.955-1.951-1.851-3.026-2.692c-0.091-0.071-0.183-0.143-0.275-0.213c-0.548-0.419-1.108-0.828-1.691-1.22l0,0  c-0.582-0.392-1.185-0.767-1.801-1.133c-0.089-0.052-0.176-0.106-0.266-0.158c-0.622-0.363-1.26-0.714-1.917-1.052  c-0.05-0.026-0.102-0.05-0.152-0.076c-0.639-0.325-1.296-0.639-1.969-0.943c-0.064-0.029-0.127-0.059-0.192-0.088  c-0.706-0.315-1.431-0.617-2.174-0.909c-0.078-0.031-0.157-0.06-0.235-0.09c-1.516-0.588-3.108-1.131-4.781-1.633  c-0.086-0.026-0.172-0.051-0.258-0.076c-1.693-0.502-3.466-0.963-5.323-1.389c-0.069-0.016-0.138-0.032-0.207-0.047  c-1.907-0.433-3.9-0.83-5.983-1.195c-0.02-0.003-0.039-0.007-0.059-0.01c-4.257-0.743-8.884-1.356-13.903-1.885  c18.287,9.555,25.714,25.601,25.714,53.073c0.54,10.518,0.517,19.63,0.006,27.522c10.204-4.254,20.188-8.861,29.632-13.785V347.02  l0,0C512,345.93,511.984,344.871,511.96,343.826z"/>
<path style="fill:#808080;" d="M512,347.02c-131.169,72.745-251.961,43.429-295.988,27.703c-4.683-1.673-10.731-3.307-17.237-4.773  c-1.183-0.266-2.381-0.528-3.589-0.783c-11.475-2.42-23.828-4.27-32.396-4.886L1.333,351.902H1.332l0,0  c-2.119,22.938-1.241,53.963-0.545,70.167c0.261,6.086,5.27,10.88,11.361,10.88h125.846c6.28,0,11.371-5.092,11.371-11.373V402.15  l13.426,1.029c14.43,1.036,39.598,5.575,53.222,10.442c42.241,15.088,155.142,42.685,280.076-19.344  c9.777-4.854,15.912-14.886,15.912-25.803V347.02H512z"/>
<path style="fill:#666666;" d="M482.759,361.672c0,0.465-0.001,0.927-0.004,1.386c-0.081,14.34-8.224,20.721-21.497,26.146  c-115.66,47.275-220.159,15.987-259.721,1.856c-13.624-4.866-38.792-9.405-53.222-10.441l-9.533-0.731  c-2.1-0.161-3.893,1.5-3.893,3.606v8.278c0,6.281-5.091,11.373-11.371,11.373H0.176c0.156,7.295,0.392,13.839,0.611,18.923  c0.261,6.086,5.27,10.88,11.361,10.88h125.846c6.28,0,11.371-5.092,11.371-11.373V402.15l13.426,1.029  c14.43,1.036,39.598,5.575,53.222,10.442c40.537,14.479,146.155,40.464,265.028-12.286c0.001,0,0.002-0.001,0.003-0.001  c0.268-0.119,0.536-0.238,0.804-0.358c0.008-0.004,0.016-0.008,0.025-0.011c1.307-0.584,2.615-1.173,3.926-1.777  c0.002-0.001,0.005-0.002,0.007-0.003c0.674-0.311,1.35-0.627,2.025-0.943c0.015-0.007,0.03-0.014,0.044-0.021  c0.981-0.459,1.962-0.913,2.945-1.383l0.001-0.001c1.72-0.821,3.441-1.655,5.165-2.511c0.034-0.017,0.069-0.033,0.103-0.05  c9.777-4.854,15.912-14.886,15.912-25.803V347.02C502.185,352.463,492.43,357.324,482.759,361.672z"/>
<g>
	<path style="fill:#2D443F;" d="M214.156,113.179c-0.177,0.026-0.355,0.053-0.533,0.093l-19.865,4.492   c-3.607,0.816-5.87,4.401-5.054,8.008c0.703,3.11,3.465,5.22,6.525,5.22c0.489,0,0.986-0.053,1.483-0.166l19.342-4.374   C215.317,122.017,214.687,117.588,214.156,113.179z"/>
	<path style="fill:#2D443F;" d="M247.96,217.668c-2.247-3.815-4.391-7.73-6.427-11.734c-0.028,0.015-0.058,0.026-0.086,0.041   l-17.928,9.664c-3.255,1.755-4.471,5.816-2.717,9.071c1.21,2.245,3.517,3.52,5.9,3.52c1.072,0,2.161-0.259,3.172-0.803   l17.928-9.664C247.857,217.734,247.906,217.699,247.96,217.668z"/>
	<path style="fill:#2D443F;" d="M223.273,158.73c-0.138,0.033-0.277,0.063-0.414,0.105l-19.463,6   c-3.534,1.09-5.516,4.838-4.426,8.372c0.887,2.877,3.536,4.725,6.397,4.725c0.653,0,1.318-0.097,1.975-0.299l19.463-6   c0.137-0.042,0.268-0.096,0.401-0.146C225.795,167.273,224.485,163.016,223.273,158.73z"/>
	<path style="fill:#2D443F;" d="M251.349,264.111c1.514,0,3.036-0.51,4.288-1.556l15.634-13.053   c0.076-0.063,0.142-0.133,0.215-0.198c-3.042-3.207-5.966-6.579-8.775-10.099c-0.008,0.006-0.016,0.011-0.023,0.017l-15.634,13.053   c-2.839,2.37-3.218,6.593-0.848,9.432C247.53,263.293,249.433,264.111,251.349,264.111z"/>
	<path style="fill:#2D443F;" d="M306.02,275.322c-3.991-1.983-7.857-4.208-11.595-6.661c-0.039,0.064-0.083,0.122-0.12,0.188   l-9.682,16.965c-1.833,3.212-0.715,7.302,2.497,9.135c1.047,0.598,2.188,0.881,3.313,0.881c2.326,0,4.587-1.213,5.822-3.378   l9.682-16.965C305.968,275.432,305.991,275.376,306.02,275.322z"/>
</g>
<g>
</g>
<g>
</g>
<g>
</g>
<g>
</g>
<g>
</g>
<g>
</g>
<g>
</g>
<g>
</g>
<g>
</g>
<g>
</g>
<g>
</g>
<g>
</g>
<g>
</g>
<g>
</g>
<g>
</g>
</svg>
