<?xml version="1.0" encoding="iso-8859-1"?>
<!-- Generator: Adobe Illustrator 19.0.0, SVG Export Plug-In . SVG Version: 6.00 Build 0)  -->
<svg xmlns="http://www.w3.org/2000/svg" xmlns:xlink="http://www.w3.org/1999/xlink" version="1.1" id="Layer_1" x="0px" y="0px" viewBox="0 0 512 512" style="enable-background:new 0 0 512 512;" xml:space="preserve">
<path style="fill:#FFCC5A;" d="M239.657,11.893L85.5,488.77h341L272.343,11.893C267.221-3.964,244.779-3.964,239.657,11.893z"/>
<path style="fill:#FFB000;" d="M272.343,11.893c-0.157-0.486-0.331-0.956-0.519-1.411c-0.062-0.149-0.134-0.288-0.198-0.433  c-0.134-0.301-0.266-0.602-0.413-0.889c-0.085-0.167-0.181-0.322-0.27-0.484c-0.139-0.252-0.276-0.507-0.426-0.748  c-0.104-0.167-0.216-0.323-0.324-0.485c-0.148-0.222-0.295-0.446-0.451-0.658c-0.118-0.16-0.245-0.311-0.368-0.465  c-0.158-0.199-0.315-0.4-0.481-0.59c-0.132-0.151-0.271-0.293-0.407-0.438c-0.167-0.178-0.334-0.357-0.508-0.526  c-0.145-0.141-0.296-0.274-0.446-0.409c-0.175-0.158-0.35-0.316-0.53-0.465c-0.158-0.131-0.32-0.254-0.482-0.378  c-0.181-0.138-0.362-0.276-0.547-0.406c-0.171-0.12-0.345-0.233-0.519-0.346c-0.184-0.119-0.369-0.237-0.557-0.349  c-0.184-0.109-0.37-0.212-0.557-0.313c-0.185-0.1-0.372-0.199-0.56-0.292c-0.197-0.097-0.396-0.189-0.596-0.279  c-0.183-0.082-0.368-0.161-0.554-0.237c-0.212-0.085-0.425-0.167-0.639-0.244c-0.178-0.064-0.357-0.125-0.537-0.183  c-0.227-0.073-0.455-0.142-0.684-0.206c-0.17-0.047-0.34-0.091-0.511-0.133c-0.244-0.06-0.488-0.116-0.734-0.166  c-0.157-0.031-0.314-0.059-0.472-0.086c-0.263-0.045-0.526-0.088-0.791-0.121c-0.139-0.018-0.279-0.031-0.418-0.045  c-0.284-0.029-0.569-0.055-0.854-0.071c-0.117-0.007-0.235-0.009-0.352-0.013c-0.308-0.011-0.616-0.018-0.924-0.013  c-0.088,0.001-0.177,0.007-0.265,0.01c-0.337,0.01-0.673,0.026-1.009,0.056c-0.05,0.004-0.099,0.012-0.149,0.016  c-5.71,0.552-11.171,3.848-13.885,9.893c0,0.001,0,0.001-0.001,0.002c0.274,0.611,0.531,1.239,0.746,1.906L395.825,488.77H426.5  L272.343,11.893z"/>
<path style="fill:#FFA227;" d="M37.454,512c-6.561,0-11.415-6.246-9.644-12.564c5.482-19.555,23.443-33.896,44.755-33.896h366.87  c21.312,0,39.273,14.341,44.755,33.896c1.771,6.318-3.083,12.564-9.644,12.564H37.454z"/>
<path style="fill:#F78B0B;" d="M439.435,465.54h-29.808c25.667,0,46.474,20.801,46.474,46.46h18.444  c6.561,0,11.415-6.246,9.644-12.564C478.708,479.881,460.747,465.54,439.435,465.54z"/>
<g>
	<polygon style="fill:#F2F2F2;" points="156.649,268.85 355.351,268.85 306.714,118.29 205.286,118.29  "/>
	<polygon style="fill:#F2F2F2;" points="118.749,386.174 393.251,386.174 372.266,321.213 139.734,321.213  "/>
</g>
<g>
	<polygon style="fill:#CCCCCC;" points="324.157,268.85 355.351,268.85 328.892,186.944 306.714,118.29 275.52,118.29  "/>
	<polygon style="fill:#CCCCCC;" points="362.057,386.174 393.251,386.174 372.266,321.213 341.072,321.213  "/>
</g>
<g>
</g>
<g>
</g>
<g>
</g>
<g>
</g>
<g>
</g>
<g>
</g>
<g>
</g>
<g>
</g>
<g>
</g>
<g>
</g>
<g>
</g>
<g>
</g>
<g>
</g>
<g>
</g>
<g>
</g>
</svg>
