<?xml version="1.0" encoding="iso-8859-1"?>
<!-- Generator: Adobe Illustrator 19.0.0, SVG Export Plug-In . SVG Version: 6.00 Build 0)  -->
<svg xmlns="http://www.w3.org/2000/svg" xmlns:xlink="http://www.w3.org/1999/xlink" version="1.1" id="Layer_1" x="0px" y="0px" viewBox="0 0 512.001 512.001" style="enable-background:new 0 0 512.001 512.001;" xml:space="preserve">
<path style="fill:#FFF2E3;" d="M335.523,94.192L126.58,456.829c-18.73,32.508-60.213,43.645-92.655,24.877l0,0  C1.484,462.938-9.632,421.371,9.099,388.863L218.042,26.226c5.874-10.194,18.882-13.687,29.055-7.801l80.64,46.652  C337.911,70.963,341.397,83.998,335.523,94.192z"/>
<path style="fill:#FFEBD2;" d="M217.413,27.318l-0.72,1.249l117.745,67.508l1.085-1.883c0.734-1.274,1.322-2.593,1.769-3.937  c0.67-2.015,1.024-4.087,1.077-6.148c0.196-7.558-3.637-14.984-10.631-19.03l-40.32-23.326l-40.32-23.326  c-2.543-1.471-5.264-2.357-8.006-2.698c-1.371-0.171-2.747-0.205-4.11-0.109c-1.362,0.096-2.71,0.324-4.025,0.677  c-3.286,0.882-6.363,2.55-8.925,4.921c-1.537,1.422-2.889,3.098-3.991,5.01L217.413,27.318z"/>
<path style="fill:#92FFF4;" d="M159.369,341.699l-40.214,69.795c-1.594,2.766-5.123,3.713-7.883,2.116l-61.191-35.4  c-2.76-1.597-3.706-5.133-2.112-7.899l40.214-69.795c1.594-2.766,5.123-3.713,7.883-2.116l61.191,35.4  C160.016,335.396,160.962,338.933,159.369,341.699z"/>
<path style="fill:#4DC9FF;" d="M220.586,235.451l-40.214,69.795c-1.594,2.766-5.123,3.713-7.883,2.117l-61.191-35.4  c-2.76-1.597-3.706-5.133-2.112-7.899l40.214-69.795c1.594-2.766,5.123-3.713,7.883-2.117l61.191,35.4  C221.234,229.149,222.18,232.685,220.586,235.451z"/>
<path style="fill:#088AFF;" d="M281.804,129.204l-40.214,69.795c-1.594,2.766-5.123,3.713-7.883,2.117l-61.191-35.4  c-2.76-1.597-3.706-5.133-2.112-7.899l40.214-69.795c1.594-2.766,5.123-3.713,7.883-2.117l61.191,35.4  C282.452,122.901,283.397,126.438,281.804,129.204z"/>
<path style="fill:#0076CE;" d="M279.691,121.305l-61.191-35.4c-2.76-1.597-6.289-0.649-7.883,2.116l-12.911,22.407l71.177,41.197  l12.919-22.422C283.397,126.438,282.452,122.902,279.691,121.305z"/>
<path style="fill:#00BDFF;" d="M218.474,227.552l-61.191-35.4c-2.76-1.597-6.289-0.649-7.883,2.116l-12.911,22.407l71.177,41.197  l12.919-22.422C222.18,232.685,221.234,229.149,218.474,227.552z"/>
<path style="fill:#84F1F7;" d="M157.256,333.8l-61.191-35.4c-2.76-1.597-6.289-0.649-7.883,2.116l-12.911,22.407l71.177,41.197  l12.919-22.422C160.962,338.933,160.016,335.397,157.256,333.8z"/>
<path style="fill:#FFEBD2;" d="M466.908,274.478L105.007,483.846c-32.441,18.768-73.924,7.63-92.654-24.877l0,0  c-18.73-32.507-7.615-74.075,24.827-92.843l361.9-209.368c10.173-5.885,23.182-2.393,29.055,7.801l46.558,80.804  C480.567,255.557,477.081,268.592,466.908,274.478z"/>
<path style="fill:#FED9A8;" d="M474.693,245.363l-46.558-80.804c-5.874-10.194-18.882-13.687-29.056-7.801l-2.404,1.391  l67.551,117.88l2.68-1.551c2.543-1.471,4.669-3.39,6.334-5.599c2.915-3.866,4.422-8.622,4.297-13.432  C477.45,252.012,476.529,248.549,474.693,245.363z"/>
<path style="fill:#FCD78D;" d="M190.492,401.913l-69.653,40.296c-2.76,1.597-6.289,0.649-7.883-2.116l-35.328-61.315  c-1.594-2.766-0.648-6.302,2.112-7.899l69.653-40.296c2.76-1.597,6.289-0.649,7.883,2.117l35.328,61.315  C194.197,396.779,193.252,400.316,190.492,401.913z"/>
<path style="fill:#FFCC5A;" d="M296.524,340.57l-69.653,40.296c-2.76,1.597-6.289,0.649-7.883-2.117l-35.328-61.315  c-1.594-2.766-0.648-6.302,2.112-7.899l69.653-40.296c2.76-1.597,6.289-0.649,7.883,2.117l35.328,61.315  C300.229,335.437,299.284,338.974,296.524,340.57z"/>
<path style="fill:#FFA227;" d="M402.556,279.228l-69.653,40.296c-2.76,1.597-6.289,0.649-7.883-2.116l-35.328-61.315  c-1.594-2.766-0.648-6.302,2.112-7.899l69.653-40.296c2.76-1.597,6.289-0.649,7.883,2.117l35.328,61.315  C406.261,274.095,405.316,277.632,402.556,279.228z"/>
<path style="fill:#F78B0B;" d="M404.668,271.329l-35.328-61.315c-1.594-2.766-5.123-3.714-7.883-2.117l-22.82,13.202  c0.371,0.362,41.987,70.817,41.987,70.817l21.932-12.688C405.316,277.632,406.261,274.095,404.668,271.329z"/>
<path style="fill:#F7B206;" d="M298.642,332.672l-35.328-61.315c-1.594-2.766-5.123-3.714-7.883-2.117l-22.82,13.202  c0.371,0.362,41.987,70.817,41.987,70.817l21.932-12.688C299.29,338.974,300.236,335.437,298.642,332.672z"/>
<path style="fill:#FFC145;" d="M192.602,394.014l-35.328-61.315c-1.594-2.766-5.123-3.714-7.883-2.117l-22.82,13.202  c0.371,0.362,41.987,70.817,41.987,70.817l21.932-12.688C193.25,400.316,194.195,396.779,192.602,394.014z"/>
<path style="fill:#FED9A8;" d="M490.708,496.436H72.912c-37.498,0-67.897-30.398-67.897-67.897v-0.138  c0-37.498,30.398-67.897,67.897-67.897h417.796c11.759,0,21.292,9.533,21.292,21.292v93.348  C512,486.903,502.467,496.436,490.708,496.436z"/>
<path style="fill:#EABE92;" d="M511.568,377.522c-0.193-0.948-0.471-1.862-0.786-2.759c-0.376-1.073-0.814-2.117-1.349-3.105  c-0.116-0.214-0.254-0.413-0.377-0.622c-0.919-1.564-2.012-3.014-3.285-4.29c-1.78-1.784-3.885-3.234-6.202-4.298  c-0.815-0.374-1.647-0.716-2.513-0.987c-1.998-0.623-4.122-0.958-6.325-0.958h-9.807v135.932h9.807c3.414,0,6.629-0.826,9.488-2.258  c1.501-0.752,2.907-1.663,4.179-2.734c0.747-0.629,1.438-1.319,2.092-2.043c1.35-1.496,2.488-3.181,3.375-5.016  c0.295-0.61,0.56-1.234,0.796-1.874c0.851-2.305,1.34-4.786,1.34-7.387v-93.305C512,380.346,511.851,378.91,511.568,377.522z"/>
<path style="fill:#FF648D;" d="M187.393,469.653h-80.417c-3.19,0-5.777-2.586-5.777-5.777v-70.812c0-3.19,2.586-5.777,5.777-5.777  h80.417c3.19,0,5.777,2.586,5.777,5.777v70.812C193.17,467.066,190.584,469.653,187.393,469.653z"/>
<path style="fill:#FF395A;" d="M309.829,469.653h-80.417c-3.19,0-5.777-2.586-5.777-5.777v-70.812c0-3.19,2.586-5.777,5.777-5.777  h80.417c3.19,0,5.777,2.586,5.777,5.777v70.812C315.605,467.066,313.019,469.653,309.829,469.653z"/>
<path style="fill:#D81942;" d="M434.947,469.653H354.53c-3.19,0-5.777-2.586-5.777-5.777v-70.812c0-3.19,2.586-5.777,5.777-5.777  h80.417c3.19,0,5.777,2.586,5.777,5.777v70.812C440.723,467.066,438.137,469.653,434.947,469.653z"/>
<path style="fill:#BC0C3A;" d="M434.953,387.287h-25.626v82.365h25.626c3.187,0,5.771-2.589,5.771-5.783v-70.8  C440.723,389.876,438.14,387.287,434.953,387.287z"/>
<path style="fill:#D81942;" d="M309.835,387.287h-25.626v82.365h25.626c3.187,0,5.771-2.589,5.771-5.783v-70.8  C315.605,389.876,313.022,387.287,309.835,387.287z"/>
<path style="fill:#FF395A;" d="M187.399,387.287h-25.626v82.365h25.626c3.187,0,5.771-2.589,5.771-5.783v-70.8  C193.17,389.876,190.586,387.287,187.399,387.287z"/>
<g>
</g>
<g>
</g>
<g>
</g>
<g>
</g>
<g>
</g>
<g>
</g>
<g>
</g>
<g>
</g>
<g>
</g>
<g>
</g>
<g>
</g>
<g>
</g>
<g>
</g>
<g>
</g>
<g>
</g>
</svg>
