<?xml version="1.0" encoding="iso-8859-1"?>
<!-- Generator: Adobe Illustrator 19.0.0, SVG Export Plug-In . SVG Version: 6.00 Build 0)  -->
<svg xmlns="http://www.w3.org/2000/svg" xmlns:xlink="http://www.w3.org/1999/xlink" version="1.1" id="Layer_1" x="0px" y="0px" viewBox="0 0 512.001 512.001" style="enable-background:new 0 0 512.001 512.001;" xml:space="preserve">
<path style="fill:#FFCC5A;" d="M51.901,505.053l-20.89-8.457c-7.375-2.986-13.21-8.857-16.154-16.254l-8.023-20.161  c-14.057-35.319-5.76-75.621,21.099-102.504l30.936-30.961l0.987-0.988l21.103-21.12l35.999-36.028c3.377-3.38,8.853-3.38,12.23,0  l114.371,114.464c3.377,3.38,3.377,8.86,0,12.24l-88.767,88.84C127.8,511.138,87.286,519.379,51.901,505.053z"/>
<path style="fill:#FFB000;" d="M243.558,383.045l-15.385-15.398l-96.227,96.306C107.411,488.508,70.58,496,38.414,482.977  l-26.832-10.863l3.275,8.228c2.944,7.397,8.779,13.268,16.154,16.254l20.89,8.457c35.385,14.326,75.899,6.085,102.89-20.927  l88.767-88.84C246.936,391.905,246.936,386.425,243.558,383.045z"/>
<path style="fill:#808080;" d="M212.392,344.784c-3.23-7.261-2.513-15.672,1.896-22.281l3.817-5.719l-0.028-0.028L446.4,88.25  l-22.682-22.701L195.394,294.055l-5.714,3.82c-6.604,4.414-15.008,5.13-22.263,1.898l-12.729-5.671l-13.262,32.193  c-5.771,14.011-1.656,28.023,7.402,37.09l0,0l0.001,0.001l0.001,0.001l0,0c9.06,9.065,23.062,13.184,37.06,7.408l32.167-13.273  L212.392,344.784z"/>
<path style="fill:#C7AC91;" d="M411.255,7.446l-10.837,23.214c-3.858,8.263-2.135,18.059,4.309,24.509l52.07,52.113  c6.444,6.45,16.232,8.173,24.489,4.313l23.195-10.845c8.105-3.79,9.986-14.486,3.66-20.818L432.055,3.783  C425.729-2.548,415.042-0.667,411.255,7.446z"/>
<path style="fill:#AF9177;" d="M508.141,79.93L487.34,59.111c6.326,6.331,4.446,17.029-3.66,20.818l-23.195,10.845  c-8.256,3.861-18.044,2.137-24.488-4.312l20.801,20.817c6.444,6.45,16.232,8.173,24.489,4.313l23.195-10.846  C512.586,96.959,514.467,86.261,508.141,79.93z"/>
<g>
</g>
<g>
</g>
<g>
</g>
<g>
</g>
<g>
</g>
<g>
</g>
<g>
</g>
<g>
</g>
<g>
</g>
<g>
</g>
<g>
</g>
<g>
</g>
<g>
</g>
<g>
</g>
<g>
</g>
</svg>
