<?xml version="1.0" encoding="iso-8859-1"?>
<!-- Generator: Adobe Illustrator 19.0.0, SVG Export Plug-In . SVG Version: 6.00 Build 0)  -->
<svg xmlns="http://www.w3.org/2000/svg" xmlns:xlink="http://www.w3.org/1999/xlink" version="1.1" id="Layer_1" x="0px" y="0px" viewBox="0 0 512 512" style="enable-background:new 0 0 512 512;" xml:space="preserve">
<path style="fill:#FF3B4A;" d="M461.314,55.417l-5.735-44.864C454.806,4.52,449.677,0,443.602,0h-24.466  c-6.075,0-11.204,4.52-11.977,10.553l-5.668,44.864H461.314z"/>
<path style="fill:#EA2E1F;" d="M423.725,10.553l5.951,44.864h31.638l-5.735-44.864c-0.121-0.943-0.359-1.843-0.679-2.7  c-0.192-0.515-0.407-1.017-0.664-1.494c-0.171-0.318-0.356-0.627-0.554-0.927C451.508,2.136,447.778,0,443.602,0h-24.466  c-0.344,0-0.685,0.019-1.022,0.047c-0.19,0.017-0.376,0.043-0.564,0.069c-0.13,0.017-0.26,0.033-0.389,0.054  c-0.25,0.042-0.498,0.093-0.743,0.15c-0.048,0.011-0.097,0.022-0.145,0.034c-0.28,0.069-0.558,0.146-0.831,0.234  C419.795,1.992,423.116,5.797,423.725,10.553z"/>
<path style="fill:#FF3B4A;" d="M112.305,55.417l-5.735-44.864C105.797,4.52,100.668,0,94.593,0H70.127  C64.052,0,58.923,4.52,58.15,10.553l-5.668,44.864H112.305z"/>
<path style="fill:#EA2E1F;" d="M74.716,10.553l5.951,44.864h31.638l-5.735-44.864c-0.121-0.943-0.359-1.843-0.679-2.7  c-0.192-0.515-0.407-1.017-0.664-1.494c-0.171-0.318-0.356-0.627-0.554-0.927C102.499,2.136,98.769,0,94.593,0H70.127  c-0.344,0-0.685,0.019-1.022,0.047c-0.19,0.017-0.376,0.043-0.564,0.069c-0.13,0.017-0.26,0.033-0.389,0.054  c-0.25,0.042-0.498,0.093-0.743,0.15c-0.048,0.011-0.097,0.022-0.145,0.034c-0.28,0.069-0.558,0.146-0.831,0.234  C70.786,1.992,74.107,5.797,74.716,10.553z"/>
<g>
	<path style="fill:#B3B3B3;" d="M119.296,50.582H45.424c-2.597,0-4.702,2.105-4.702,4.702v30.502h83.276V55.284   C123.998,52.687,121.893,50.582,119.296,50.582z"/>
	<path style="fill:#B3B3B3;" d="M468.339,50.582h-73.873c-2.597,0-4.702,2.105-4.702,4.702v30.502h83.276V55.284   C473.041,52.687,470.936,50.582,468.339,50.582z"/>
</g>
<g>
	<path style="fill:#999999;" d="M468.339,50.582h-25.735l0,0v35.204h30.438V55.283C473.041,52.687,470.936,50.582,468.339,50.582z"/>
	<path style="fill:#999999;" d="M119.296,50.582H93.562H93.56v35.204h30.438V55.283C123.998,52.687,121.893,50.582,119.296,50.582z"/>
</g>
<g>
	<path style="fill:#FFA227;" d="M98.981,512H65.738c-6.512,0-11.791-5.279-11.791-11.791V76.786h56.826v423.422   C110.773,506.721,105.494,512,98.981,512z"/>
	<path style="fill:#FFA227;" d="M448.024,512h-33.243c-6.512,0-11.791-5.279-11.791-11.791V76.786h56.826v423.422   C459.816,506.721,454.537,512,448.024,512z"/>
</g>
<g>
	<path style="fill:#F78B0B;" d="M429.378,76.786v423.415c0,6.516-5.276,11.799-11.784,11.799h30.438   c6.508,0,11.784-5.282,11.784-11.799V76.786H429.378z"/>
	<path style="fill:#F78B0B;" d="M80.335,76.786v423.415c0,6.516-5.276,11.799-11.784,11.799h30.438   c6.508,0,11.784-5.282,11.784-11.799V76.786H80.335z"/>
</g>
<path style="fill:#FFCC5A;" d="M490.436,204.9H21.564c-10.231,0-18.525-8.294-18.525-18.525V95.309  c0-10.231,8.294-18.525,18.525-18.525h468.872c10.231,0,18.525,8.294,18.525,18.525v91.066  C508.961,196.606,500.667,204.9,490.436,204.9z"/>
<path style="fill:#FFB000;" d="M490.448,76.785h-10.62v94.225c0,2.606-2.11,4.719-4.713,4.719H3.039v10.634  c0,10.237,8.288,18.536,18.513,18.536h468.896c10.224,0,18.513-8.299,18.513-18.536V95.321  C508.961,85.084,500.672,76.785,490.448,76.785z"/>
<path style="fill:#FFCC5A;" d="M490.436,375.915H21.564c-10.231,0-18.525-8.294-18.525-18.525v-91.066  c0-10.231,8.294-18.525,18.525-18.525h468.872c10.231,0,18.525,8.294,18.525,18.525v91.066  C508.961,367.622,500.667,375.915,490.436,375.915z"/>
<g>
	<path style="fill:#F2F2F2;" d="M3.293,189.296c0,0.001,0,0.003,0.001,0.004L75.523,76.785H21.552   c-10.224,0-18.513,8.299-18.513,18.536l0,0v91.042c0,0.524,0.036,1.038,0.078,1.551C3.162,188.379,3.221,188.839,3.293,189.296z"/>
	<polygon style="fill:#F2F2F2;" points="208.509,76.785 145.386,76.785 63.143,204.9 126.266,204.9  "/>
	<polygon style="fill:#F2F2F2;" points="474.482,76.785 411.358,76.785 329.115,204.9 392.239,204.9  "/>
	<polygon style="fill:#F2F2F2;" points="341.496,76.785 278.372,76.785 196.129,204.9 259.253,204.9  "/>
</g>
<path style="fill:#E6E6E6;" d="M508.961,186.363v-54.458L462.102,204.9h28.346C500.672,204.9,508.961,196.6,508.961,186.363z"/>
<path style="fill:#FFB000;" d="M3.293,189.296c-0.073-0.456-0.131-0.917-0.175-1.382C3.156,188.381,3.22,188.839,3.293,189.296z"/>
<g>
	<path style="fill:#E6E6E6;" d="M3.118,187.914c-0.043-0.513-0.078-1.027-0.078-1.551C3.039,186.887,3.069,187.403,3.118,187.914z"/>
	<polygon style="fill:#E6E6E6;" points="3.294,189.3 3.294,189.3 3.293,189.296  "/>
</g>
<g>
	<path style="fill:#CCCCCC;" d="M3.039,175.729v10.634c0,0.523,0.036,1.038,0.078,1.551c0.044,0.465,0.103,0.926,0.175,1.382   c0,0.002,0.001,0.003,0.001,0.005l8.712-13.571H3.039V175.729z"/>
	<polygon style="fill:#CCCCCC;" points="81.869,175.729 63.143,204.899 126.266,204.899 144.992,175.729  "/>
	<polygon style="fill:#CCCCCC;" points="347.841,175.729 329.116,204.899 392.239,204.899 410.965,175.729  "/>
	<polygon style="fill:#CCCCCC;" points="214.855,175.729 196.129,204.899 259.253,204.899 277.979,175.729  "/>
</g>
<g>
	<path style="fill:#E6E6E6;" d="M490.448,204.899h-28.346l0,0H490.448c6.39,0,12.024-3.242,15.351-8.172   C502.472,201.658,496.838,204.899,490.448,204.899z"/>
	<path style="fill:#E6E6E6;" d="M508.128,191.875c-0.541,1.741-1.331,3.372-2.329,4.852   C506.797,195.248,507.587,193.617,508.128,191.875z"/>
</g>
<path style="fill:#CCCCCC;" d="M490.448,204.899c6.39,0,12.024-3.242,15.351-8.172c0.998-1.479,1.789-3.111,2.329-4.852  c0.541-1.741,0.832-3.593,0.832-5.512v-54.458L462.101,204.9L490.448,204.899L490.448,204.899z"/>
<path style="fill:#FFB000;" d="M490.448,247.796h-10.62v94.225c0,2.606-2.11,4.719-4.713,4.719H3.039v10.634  c0,10.237,8.288,18.536,18.513,18.536h468.896c10.224,0,18.513-8.299,18.513-18.536v-91.042  C508.961,256.095,500.672,247.796,490.448,247.796z"/>
<g>
	<path style="fill:#F2F2F2;" d="M21.552,247.8c-4.583,0-8.769,1.677-12.002,4.439l-5.789,9.019   c-0.459,1.616-0.721,3.316-0.721,5.079v91.042c0,1.002,0.102,1.978,0.254,2.937L75.523,247.8H21.552z"/>
	<polygon style="fill:#F2F2F2;" points="208.509,247.8 145.386,247.8 63.143,375.915 126.266,375.915  "/>
	<polygon style="fill:#F2F2F2;" points="474.482,247.8 411.358,247.8 329.115,375.915 392.239,375.915  "/>
	<polygon style="fill:#F2F2F2;" points="341.496,247.8 278.372,247.8 196.129,375.915 259.253,375.915  "/>
</g>
<path style="fill:#E6E6E6;" d="M508.961,357.379v-54.458l-46.859,72.995h28.346C500.672,375.915,508.961,367.616,508.961,357.379z"/>
<path style="fill:#FFB000;" d="M3.29,360.283c-0.071-0.446-0.129-0.896-0.172-1.351C3.156,359.389,3.219,359.837,3.29,360.283z"/>
<g>
	<path style="fill:#E6E6E6;" d="M3.039,357.379c0,0.525,0.03,1.042,0.079,1.554c-0.043-0.515-0.079-1.032-0.079-1.558V357.379z"/>
	<path style="fill:#E6E6E6;" d="M3.294,360.316l0.001-0.001c-0.002-0.01-0.003-0.021-0.005-0.032   C3.291,360.294,3.292,360.305,3.294,360.316z"/>
</g>
<path style="fill:#CCCCCC;" d="M3.039,346.74v10.634c0,0.526,0.036,1.043,0.079,1.558c0.043,0.454,0.101,0.905,0.172,1.351  c0.002,0.011,0.003,0.021,0.005,0.032l8.714-13.575L3.039,346.74L3.039,346.74z"/>
<polygon style="fill:#E6E6E6;" points="63.143,375.915 126.266,375.915 126.269,375.911 63.146,375.911 "/>
<polygon style="fill:#CCCCCC;" points="81.872,346.74 63.146,375.911 126.269,375.911 144.995,346.74 "/>
<polygon style="fill:#E6E6E6;" points="329.115,375.915 392.239,375.915 392.242,375.911 329.119,375.911 "/>
<polygon style="fill:#CCCCCC;" points="347.844,346.74 329.119,375.911 392.242,375.911 410.968,346.74 "/>
<polygon style="fill:#E6E6E6;" points="196.129,375.915 259.253,375.915 259.256,375.911 196.132,375.911 "/>
<polygon style="fill:#CCCCCC;" points="214.858,346.74 196.132,375.911 259.256,375.911 277.982,346.74 "/>
<path style="fill:#E6E6E6;" d="M490.448,375.911h-28.343l-0.003,0.005h28.346c10.224,0,18.513-8.299,18.513-18.536v-0.005  C508.961,367.612,500.672,375.911,490.448,375.911z"/>
<path style="fill:#CCCCCC;" d="M490.448,375.911c10.224,0,18.513-8.299,18.513-18.536v-54.454l-46.856,72.99L490.448,375.911  L490.448,375.911z"/>
<g>
</g>
<g>
</g>
<g>
</g>
<g>
</g>
<g>
</g>
<g>
</g>
<g>
</g>
<g>
</g>
<g>
</g>
<g>
</g>
<g>
</g>
<g>
</g>
<g>
</g>
<g>
</g>
<g>
</g>
</svg>
