<?xml version="1.0" encoding="iso-8859-1"?>
<!-- Generator: Adobe Illustrator 19.0.0, SVG Export Plug-In . SVG Version: 6.00 Build 0)  -->
<svg xmlns="http://www.w3.org/2000/svg" xmlns:xlink="http://www.w3.org/1999/xlink" version="1.1" id="Layer_1" x="0px" y="0px" viewBox="0 0 512 512" style="enable-background:new 0 0 512 512;" xml:space="preserve">
<path style="fill:#FFCC5A;" d="M348.373,207.506H262.92l-45.353-95.226H62.535v132.292H9.925c-5.482,0-9.925,4.444-9.925,9.925  l0.004,102.336h367.753V226.89C367.757,216.184,359.079,207.506,348.373,207.506z"/>
<path style="fill:#FFB000;" d="M0.003,325.795l0.001,30.881c26.14,0.093,367.753,0.157,367.753,0.157V226.89  c0-0.975-0.095-1.926-0.235-2.863c-0.147-0.991-0.346-1.965-0.637-2.901c-0.018-0.06-0.045-0.115-0.064-0.175  c-2.509-7.799-9.817-13.445-18.449-13.445h-11.655v118.289H0.003z"/>
<path style="fill:#CCCCCC;" d="M254.71,87.845H50.464c-2.56,0-4.636,2.075-4.636,4.636v15.164c0,2.56,2.075,4.636,4.636,4.636  H254.71c2.56,0,4.636-2.075,4.636-4.636V92.481C259.345,89.921,257.27,87.845,254.71,87.845z"/>
<path style="fill:#AEFFFF;" d="M236.937,227.595l-40.71-85.476c-0.381-0.8-1.187-1.309-2.073-1.309H95.438  c-1.268,0-2.296,1.028-2.296,2.296v53.44c0,0.429,0.12,0.85,0.347,1.214l27.077,43.464c0.419,0.673,1.156,1.082,1.949,1.082h112.349  c1.268,0,2.296-1.028,2.296-2.296v-11.428C237.16,228.24,237.083,227.903,236.937,227.595z"/>
<path style="fill:#84F1F7;" d="M236.937,227.594l-40.71-85.476c-0.381-0.8-1.187-1.309-2.073-1.309H162.13l47.175,101.496h25.558  c1.268,0,2.296-1.028,2.296-2.296v-11.428C237.16,228.24,237.083,227.903,236.937,227.594z"/>
<circle style="fill:#808080;" cx="58.55" cy="356.125" r="58.55"/>
<path style="fill:#666666;" d="M58.545,297.583c-5.375,0-10.575,0.739-15.52,2.095c24.798,6.803,43.026,29.49,43.026,56.447  s-18.227,49.644-43.026,56.447c4.945,1.357,10.145,2.095,15.52,2.095c32.334,0,58.545-26.21,58.545-58.543  C117.091,323.794,90.879,297.583,58.545,297.583z"/>
<g>
	<circle style="fill:#B3B3B3;" cx="58.55" cy="356.125" r="24.396"/>
	<path style="fill:#B3B3B3;" d="M254.71,87.845h-26.404v24.435h26.404c2.56,0,4.636-2.075,4.636-4.636V92.481   C259.345,89.92,257.27,87.845,254.71,87.845z"/>
</g>
<circle style="fill:#808080;" cx="393.63" cy="335.085" r="89.07"/>
<path style="fill:#666666;" d="M393.628,246.019c-5.297,0-10.477,0.489-15.52,1.375c41.787,7.347,73.547,43.796,73.547,87.688  c0,43.891-31.76,80.341-73.547,87.687c5.043,0.887,10.223,1.375,15.52,1.375c49.19,0,89.067-39.875,89.067-89.063  C482.695,285.894,442.819,246.019,393.628,246.019z"/>
<circle style="fill:#B3B3B3;" cx="393.63" cy="335.085" r="61.965"/>
<path style="fill:#FFA227;" d="M501.156,356.833H271.855v-27.208c0-8.999,7.295-16.294,16.294-16.294h213.006  c5.989,0,10.844,4.855,10.844,10.844v21.814C512,351.978,507.145,356.833,501.156,356.833z"/>
<path style="fill:#F78B0B;" d="M501.155,313.331H480.96v43.502h20.195c5.989,0,10.845-4.855,10.845-10.844v-21.814  C512,318.186,507.145,313.331,501.155,313.331z"/>
<path style="fill:#999999;" d="M24.419,191.289h11.922v-25.565c0-6.467-5.261-11.728-11.728-11.728h-6.516  c-3.292,0-5.961,2.669-5.961,5.961s2.669,5.961,5.961,5.961h6.322V191.289z"/>
<g>
	<path style="fill:#FFB000;" d="M299.699,233.458c-4.043-1.96-8.902-0.275-10.862,3.763l-13.654,28.128   c-1.96,4.039-0.276,8.902,3.763,10.862c1.144,0.555,2.353,0.818,3.544,0.818c3.016,0,5.913-1.686,7.319-4.581l13.654-28.128   C305.422,240.281,303.738,235.418,299.699,233.458z"/>
	<path style="fill:#FFB000;" d="M327.094,233.458c-4.042-1.96-8.901-0.275-10.862,3.763l-13.653,28.128   c-1.96,4.039-0.275,8.902,3.763,10.862c1.144,0.555,2.353,0.818,3.544,0.818c3.016,0,5.913-1.686,7.319-4.581l13.653-28.128   C332.817,240.281,331.132,235.418,327.094,233.458z"/>
	<path style="fill:#FFB000;" d="M106.966,260.77h-18.57c-4.49,0-8.128,3.639-8.128,8.128s3.639,8.128,8.128,8.128h18.57   c4.49,0,8.128-3.639,8.128-8.128S111.456,260.77,106.966,260.77z"/>
</g>
<path style="fill:#B3B3B3;" d="M41.535,244.572V194.22c0-1.619-1.312-2.931-2.931-2.931H22.288c-1.619,0-2.931,1.312-2.931,2.931  v50.352H41.535z"/>
<g>
</g>
<g>
</g>
<g>
</g>
<g>
</g>
<g>
</g>
<g>
</g>
<g>
</g>
<g>
</g>
<g>
</g>
<g>
</g>
<g>
</g>
<g>
</g>
<g>
</g>
<g>
</g>
<g>
</g>
</svg>
