<?xml version="1.0" encoding="iso-8859-1"?>
<!-- Generator: Adobe Illustrator 19.0.0, SVG Export Plug-In . SVG Version: 6.00 Build 0)  -->
<svg xmlns="http://www.w3.org/2000/svg" xmlns:xlink="http://www.w3.org/1999/xlink" version="1.1" id="Layer_1" x="0px" y="0px" viewBox="0 0 512 512" style="enable-background:new 0 0 512 512;" xml:space="preserve">
<path style="fill:#FFA227;" d="M295.523,240.712l-33.607,39.038c-2.444,2.839-3.788,6.461-3.788,10.207v27.458h50.217v-51.424  L295.523,240.712z"/>
<path style="fill:#CCCCCC;" d="M257.651,91.216H42.073v194.096h33.848V141.314c0-8.974,7.275-16.25,16.25-16.25h134.716  c6.121,0,11.723,3.44,14.492,8.899l66.965,132.027v51.424h33.848v-59.515L257.651,91.216z"/>
<path style="fill:#666666;" d="M124.188,285.306L102,188.808c-1.072-4.727-5.273-8.083-10.12-8.083H75.922v104.581H124.188z"/>
<path style="fill:#FFCC5A;" d="M192.133,308.41l-49.09-32.103H75.922l0,0H39.851C17.842,276.307,0,294.148,0,316.157v58.725  c0,12.018,8.64,22.013,20.045,24.128l322.147,0.419v-91.02L192.133,308.41z"/>
<path style="fill:#FFB000;" d="M312.636,369.905H0v4.977c0,12.018,8.64,22.013,20.045,24.128l322.147,0.419v-91.02h-29.556  L312.636,369.905L312.636,369.905z"/>
<path style="fill:#FFA227;" d="M282.573,64.89H34.347c-7.27,0-13.163,5.893-13.163,13.163l0,0c0,7.27,5.893,13.163,13.163,13.163  h248.226c7.27,0,13.163-5.893,13.163-13.163l0,0C295.736,70.784,289.843,64.89,282.573,64.89z"/>
<path style="fill:#CCCCCC;" d="M467.102,376.984h-96.699V85.814c0-4.286-3.475-7.761-7.761-7.761h-12.689  c-4.286,0-7.761,3.475-7.761,7.761v291.17l0,0v22.446h164.732c2.803,0,5.076-2.273,5.076-5.076v-12.293  c0-2.803-2.273-5.076-5.076-5.076h-39.822"/>
<path style="fill:#F78B0B;" d="M282.573,64.89h-16.361v26.326h16.361c7.27,0,13.163-5.893,13.163-13.163  C295.736,70.784,289.843,64.89,282.573,64.89z"/>
<g>
	<circle style="fill:#808080;" cx="73.29" cy="393.589" r="53.52"/>
	<circle style="fill:#808080;" cx="334.94" cy="393.589" r="53.52"/>
</g>
<g>
	<path style="fill:#666666;" d="M334.936,340.077c-5.123,0-10.071,0.735-14.762,2.079c22.374,6.41,38.754,27.004,38.754,51.437   s-16.38,45.027-38.754,51.437c4.691,1.344,9.639,2.079,14.762,2.079c29.556,0,53.516-23.96,53.516-53.516   C388.452,364.036,364.492,340.077,334.936,340.077z"/>
	<path style="fill:#666666;" d="M73.289,340.077c-5.123,0-10.071,0.735-14.762,2.079c22.374,6.41,38.754,27.004,38.754,51.437   s-16.38,45.027-38.754,51.437c4.691,1.344,9.639,2.079,14.762,2.079c29.556,0,53.516-23.96,53.516-53.516   C126.805,364.036,102.845,340.077,73.289,340.077z"/>
</g>
<g>
	<circle style="fill:#B3B3B3;" cx="334.94" cy="393.589" r="22.3"/>
	<circle style="fill:#B3B3B3;" cx="73.29" cy="393.589" r="22.3"/>
</g>
<path style="fill:#808080;" d="M279.325,259.528l-16.04-18.779l9.664-9.663c2.414-2.414,2.414-6.328,0-8.741  c-2.411-2.414-6.327-2.413-8.74-0.001l-29.06,29.06c-2.414,2.413-2.414,6.327,0,8.74c1.207,1.207,2.789,1.811,4.371,1.811  c1.581,0,3.164-0.604,4.371-1.811l10.627-10.627l16.647,19.49L279.325,259.528z"/>
<g>
</g>
<g>
</g>
<g>
</g>
<g>
</g>
<g>
</g>
<g>
</g>
<g>
</g>
<g>
</g>
<g>
</g>
<g>
</g>
<g>
</g>
<g>
</g>
<g>
</g>
<g>
</g>
<g>
</g>
</svg>
