<?xml version="1.0" encoding="iso-8859-1"?>
<!-- Generator: Adobe Illustrator 19.0.0, SVG Export Plug-In . SVG Version: 6.00 Build 0)  -->
<svg xmlns="http://www.w3.org/2000/svg" xmlns:xlink="http://www.w3.org/1999/xlink" version="1.1" id="Layer_1" x="0px" y="0px" viewBox="0 0 512 512" style="enable-background:new 0 0 512 512;" xml:space="preserve">
<path style="fill:#FFCC5A;" d="M24.517,142.971L9.313,187.132c-2.595,7.538-1.676,15.717,2.445,21.751l22.14,32.418  c47.919,70.166,131.198,98.837,212.155,73.039l37.404-11.919c6.962-2.218,12.721-8.098,15.316-15.636l15.204-44.162  c2.595-7.538,1.676-15.717-2.445-21.751l-22.14-32.418c-47.919-70.166-131.198-98.836-212.155-73.038l-37.404,11.919  C32.871,129.553,27.112,135.433,24.517,142.971z"/>
<path style="fill:#FFB000;" d="M311.532,220.873l-12.39-18.143l-22.859,61.564c-2.595,7.538-8.355,13.417-15.316,15.636  l-37.404,11.919c-63.659,20.286-128.75,6.886-176.959-33.879c49.089,57.892,125.242,80.017,199.45,56.369l37.404-11.919  c6.962-2.218,12.721-8.098,15.316-15.636l15.204-44.162C316.572,235.086,315.653,226.906,311.532,220.873z"/>
<path style="fill:#FFA227;" d="M495.759,332.69H338.843V149.164c0-6.414,5.2-11.613,11.613-11.613h85.945  c3.946,0,7.622,2.004,9.761,5.32l47.744,74.051c1.21,1.876,1.853,4.061,1.853,6.293L495.759,332.69L495.759,332.69z"/>
<path style="fill:#F78B0B;" d="M493.906,216.922l-47.744-74.051c-2.138-3.317-5.814-5.32-9.761-5.32H406.37  c3.946,0,7.622,2.004,9.761,5.32l47.744,74.051c1.21,1.876,1.853,4.061,1.853,6.293V332.69h30.032V223.215  C495.759,220.982,495.116,218.798,493.906,216.922z"/>
<path style="fill:#B3B3B3;" d="M12.09,353.16h487.82c6.677,0,12.09-5.413,12.09-12.09v-5.295c0-6.677-5.413-12.09-12.09-12.09H12.09  c-6.677,0-12.09,5.413-12.09,12.09v5.295C0,347.747,5.413,353.16,12.09,353.16z"/>
<path style="fill:#AEFFFF;" d="M468.988,228.321L468.988,228.321c0-0.42-0.121-0.831-0.349-1.184l-39.822-61.764  c-0.423-0.656-1.15-1.052-1.93-1.052H367.91c-1.268,0-2.296,1.028-2.296,2.296v61.704c0,1.268,1.028,2.296,2.296,2.296h98.782  C467.96,230.617,468.988,229.589,468.988,228.321z"/>
<path style="fill:#84F1F7;" d="M468.64,227.137l-39.822-61.764c-0.423-0.656-1.15-1.052-1.93-1.052h-34.766  c0.78,0,1.507,0.396,1.93,1.052l42.593,65.244h30.047c1.268,0,2.296-1.028,2.296-2.296l0,0  C468.988,227.901,468.867,227.49,468.64,227.137z"/>
<g>
	<path style="fill:#EA8500;" d="M315.431,323.684V187.948c0-2.616,2.12-4.736,4.736-4.736h18.677v140.472L315.431,323.684   L315.431,323.684z"/>
	<path style="fill:#EA8500;" d="M33.898,241.301l-11.96-17.513v99.895h33.389v-56.091C47.594,259.617,40.417,250.846,33.898,241.301   z"/>
</g>
<path style="fill:#FFA227;" d="M90.961,296.385c22.818,14.172,48.305,23.038,74.975,26.095l56.461-194.854  c-23.501-12.622-49.449-19.887-76.366-21.295L90.961,296.385z"/>
<path style="fill:#F78B0B;" d="M93.702,286.926l-2.739,9.453c0.322,0.2,0.648,0.393,0.971,0.592  c0.846,0.518,1.695,1.031,2.549,1.535c0.521,0.307,1.042,0.612,1.566,0.914c0.91,0.525,1.824,1.041,2.741,1.549  c0.542,0.301,1.085,0.599,1.63,0.894c0.972,0.526,1.948,1.043,2.928,1.55c0.493,0.255,0.986,0.507,1.481,0.758  c0.994,0.503,1.993,0.997,2.995,1.481c0.378,0.182,0.754,0.367,1.133,0.547c1.164,0.552,2.335,1.089,3.509,1.616  c0.443,0.199,0.887,0.395,1.331,0.59c1.102,0.484,2.207,0.957,3.318,1.419c0.236,0.098,0.47,0.2,0.707,0.298  c1.322,0.542,2.651,1.064,3.985,1.575c0.378,0.145,0.757,0.287,1.136,0.429c1.219,0.457,2.442,0.904,3.671,1.335  c0.168,0.059,0.334,0.121,0.502,0.179c1.402,0.487,2.811,0.953,4.225,1.405c0.305,0.098,0.611,0.193,0.916,0.289  c1.334,0.419,2.672,0.826,4.017,1.214c0.104,0.03,0.207,0.062,0.311,0.092c1.482,0.425,2.971,0.828,4.465,1.215  c0.222,0.058,0.445,0.113,0.668,0.17c1.451,0.37,2.907,0.726,4.368,1.06c0.042,0.01,0.084,0.02,0.126,0.03  c1.555,0.355,3.116,0.687,4.682,1.001c0.149,0.03,0.299,0.058,0.448,0.088c1.54,0.305,3.085,0.593,4.635,0.858  c0.008,0.001,0.016,0.003,0.023,0.004c1.613,0.275,3.23,0.528,4.853,0.76c0.087,0.013,0.175,0.024,0.262,0.036  c1.603,0.227,3.21,0.435,4.822,0.62l6.221-21.468C144.853,302.134,118.211,297.268,93.702,286.926z"/>
<path style="fill:#999999;" d="M499.91,323.684h-17.493v29.476h17.493c6.677,0,12.09-5.413,12.09-12.09v-5.295  C512,329.097,506.587,323.684,499.91,323.684z"/>
<circle style="fill:#808080;" cx="416.87" cy="357.068" r="48.86"/>
<path style="fill:#666666;" d="M416.868,308.206c-5.079,0-9.977,0.776-14.582,2.215c19.861,6.203,34.277,24.74,34.277,46.645  s-14.416,40.442-34.277,46.644c4.605,1.438,9.503,2.215,14.582,2.215c26.984,0,48.86-21.875,48.86-48.859  C465.727,330.081,443.852,308.206,416.868,308.206z"/>
<circle style="fill:#B3B3B3;" cx="416.87" cy="357.068" r="20.36"/>
<circle style="fill:#808080;" cx="99.9" cy="357.068" r="48.86"/>
<path style="fill:#666666;" d="M99.896,308.206c-5.079,0-9.977,0.776-14.582,2.215c19.861,6.203,34.277,24.74,34.277,46.645  s-14.416,40.442-34.277,46.644c4.605,1.438,9.503,2.215,14.582,2.215c26.984,0,48.86-21.875,48.86-48.859  C148.756,330.081,126.88,308.206,99.896,308.206z"/>
<circle style="fill:#B3B3B3;" cx="99.9" cy="357.068" r="20.36"/>
<g>
</g>
<g>
</g>
<g>
</g>
<g>
</g>
<g>
</g>
<g>
</g>
<g>
</g>
<g>
</g>
<g>
</g>
<g>
</g>
<g>
</g>
<g>
</g>
<g>
</g>
<g>
</g>
<g>
</g>
</svg>
