<?xml version="1.0" encoding="iso-8859-1"?>
<!-- Generator: Adobe Illustrator 19.0.0, SVG Export Plug-In . SVG Version: 6.00 Build 0)  -->
<svg xmlns="http://www.w3.org/2000/svg" xmlns:xlink="http://www.w3.org/1999/xlink" version="1.1" id="Layer_1" x="0px" y="0px" viewBox="0 0 512 512" style="enable-background:new 0 0 512 512;" xml:space="preserve">
<path style="fill:#FFCC5A;" d="M345.67,342.91V134.09c0-2.779,2.253-5.032,5.032-5.032h42.251c8.56,0,15.498-6.939,15.498-15.499  c0-8.079-6.549-14.628-14.628-14.628H297.84c-3.01,0-5.679,1.933-6.619,4.792l-19.403,59.057c-0.679,2.066-2.607,3.462-4.781,3.462  H30.589c-3.554,0-6.795,2.031-8.344,5.23L0.927,215.49c-1.558,3.217-1.128,7.042,1.106,9.833L96.52,342.91H345.67z"/>
<path style="fill:#FFB000;" d="M350.703,129.058h-16.207c-10.019,0-18.141,8.121-18.141,18.139v137.137  c0,10.811-8.765,19.575-19.577,19.575H133.533H65.18l31.339,39.001h249.15v-39.001V134.09c0-0.347,0.035-0.687,0.102-1.014  C346.242,130.782,348.271,129.058,350.703,129.058z"/>
<path style="fill:#FFA227;" d="M496.399,342.91H345.67V154.612h89.136c6.643,0,12.832,3.373,16.432,8.956l42.042,65.203  c2.036,3.158,3.119,6.836,3.119,10.594L496.399,342.91L496.399,342.91z"/>
<path style="fill:#F78B0B;" d="M493.28,228.771l-42.042-65.203c-3.6-5.583-9.789-8.956-16.432-8.956h-29.54  c6.643,0,12.832,3.373,16.432,8.956l42.042,65.203c2.036,3.158,3.119,6.836,3.119,10.594v103.546h29.54V239.365  C496.399,235.607,495.316,231.929,493.28,228.771z"/>
<path style="fill:#B3B3B3;" d="M71.055,361.706H501.39c5.86,0,10.61-4.75,10.61-10.61v-7.091c0-5.86-4.75-10.61-10.61-10.61H71.787  c-8.02,0-14.522,6.502-14.522,14.522l0,0C57.265,355.532,63.439,361.706,71.055,361.706z"/>
<path style="fill:#AEFFFF;" d="M470.684,241.822L470.684,241.822c0-0.419-0.121-0.83-0.348-1.182l-38.246-59.316  c-0.402-0.623-1.092-0.999-1.833-0.999h-56.69c-1.205,0-2.181,0.977-2.181,2.181v59.316c0,1.205,0.977,2.181,2.181,2.181h94.936  C469.707,244.003,470.684,243.026,470.684,241.822z"/>
<path style="fill:#84F1F7;" d="M470.336,240.64l-38.246-59.316c-0.402-0.623-1.092-0.999-1.833-0.999h-34.191l41.286,63.678h31.151  c1.205,0,2.181-0.976,2.181-2.181C470.684,241.403,470.563,240.992,470.336,240.64z"/>
<path style="fill:#999999;" d="M501.389,333.394h-19.101v28.311h19.101c5.86,0,10.611-4.75,10.611-10.61v-7.092  C512,338.144,507.249,333.394,501.389,333.394z"/>
<circle style="fill:#808080;" cx="415.47" cy="360.829" r="52.24"/>
<path style="fill:#666666;" d="M415.472,308.59c-5.161,0-10.142,0.76-14.85,2.154c21.616,6.399,37.392,26.394,37.392,50.084  c0,23.69-15.776,43.685-37.392,50.084c4.709,1.394,9.69,2.154,14.85,2.154c28.853,0,52.242-23.388,52.242-52.238  S444.325,308.59,415.472,308.59z"/>
<circle style="fill:#B3B3B3;" cx="415.47" cy="360.829" r="21.769"/>
<circle style="fill:#808080;" cx="133.82" cy="360.829" r="52.24"/>
<path style="fill:#666666;" d="M133.825,308.59c-5.161,0-10.142,0.76-14.85,2.154c21.616,6.399,37.392,26.394,37.392,50.084  c0,23.69-15.776,43.685-37.392,50.084c4.709,1.394,9.69,2.154,14.85,2.154c28.853,0,52.242-23.388,52.242-52.238  S162.678,308.59,133.825,308.59z"/>
<circle style="fill:#B3B3B3;" cx="133.82" cy="360.829" r="21.769"/>
<g>
	<path style="fill:#FFB000;" d="M69.68,259.859c-1.161,0-2.341-0.264-3.45-0.818c-3.816-1.908-5.363-6.55-3.454-10.366   l27.899-55.785c1.91-3.816,6.55-5.361,10.367-3.455c3.816,1.908,5.363,6.55,3.454,10.366l-27.899,55.785   C75.243,258.294,72.514,259.859,69.68,259.859z"/>
	<path style="fill:#FFB000;" d="M106.009,289.625c-1.161,0-2.341-0.264-3.45-0.818c-3.816-1.908-5.363-6.55-3.454-10.366   l42.786-85.55c1.909-3.816,6.551-5.361,10.367-3.455c3.816,1.908,5.363,6.55,3.454,10.366l-42.786,85.55   C111.572,288.059,108.843,289.625,106.009,289.625z"/>
	<path style="fill:#FFB000;" d="M157.225,289.625c-1.161,0-2.341-0.264-3.45-0.818c-3.816-1.908-5.363-6.55-3.454-10.366   l42.786-85.55c1.909-3.816,6.55-5.361,10.367-3.455c3.816,1.908,5.363,6.55,3.454,10.366l-42.786,85.55   C162.788,288.059,160.059,289.625,157.225,289.625z"/>
	<path style="fill:#FFB000;" d="M208.441,289.625c-1.161,0-2.341-0.264-3.45-0.818c-3.816-1.908-5.363-6.55-3.454-10.366   l42.786-85.55c1.909-3.816,6.55-5.361,10.367-3.455c3.816,1.908,5.363,6.55,3.454,10.366l-42.786,85.55   C214.003,288.059,211.275,289.625,208.441,289.625z"/>
	<path style="fill:#FFB000;" d="M259.656,289.625c-1.161,0-2.341-0.264-3.45-0.818c-3.816-1.908-5.363-6.55-3.454-10.366   l42.786-85.55c1.91-3.816,6.55-5.361,10.367-3.455c3.816,1.908,5.363,6.55,3.454,10.366l-42.786,85.55   C265.219,288.059,262.49,289.625,259.656,289.625z"/>
</g>
<g>
</g>
<g>
</g>
<g>
</g>
<g>
</g>
<g>
</g>
<g>
</g>
<g>
</g>
<g>
</g>
<g>
</g>
<g>
</g>
<g>
</g>
<g>
</g>
<g>
</g>
<g>
</g>
<g>
</g>
</svg>
