<?xml version="1.0" encoding="iso-8859-1"?>
<!-- Generator: Adobe Illustrator 19.0.0, SVG Export Plug-In . SVG Version: 6.00 Build 0)  -->
<svg xmlns="http://www.w3.org/2000/svg" xmlns:xlink="http://www.w3.org/1999/xlink" version="1.1" id="Layer_1" x="0px" y="0px" viewBox="0 0 512 512" style="enable-background:new 0 0 512 512;" xml:space="preserve">
<path style="fill:#FFA227;" d="M291.917,151.5l-0.167,3.083l118.75-63.25L401.167,72.5c-1.617-3.107-3.495-8.076-3.5-11.333  l-134.25,55.25C280.232,119.776,291.917,133.672,291.917,151.5z"/>
<path style="fill:#FFCC5A;" d="M458.895,117.192l-25.992-62.153c-4.464-10.675-16.696-15.739-27.384-11.337l0,0  c-11.428,4.707-16.357,18.222-10.646,29.197l78.752,151.227h30l-32.736-78.252"/>
<rect x="158.02" y="331.39" style="fill:#CCCCCC;" width="149.15" height="51.24"/>
<rect x="275.9" y="331.39" style="fill:#B3B3B3;" width="31.28" height="51.24"/>
<path style="fill:#CCCCCC;" d="M507.053,265.797h-38.748c-2.732,0-4.947-2.215-4.947-4.947V227.1c0-2.732,2.215-4.947,4.947-4.947  h38.748c2.732,0,4.947,2.215,4.947,4.947v33.749C512,263.582,509.785,265.797,507.053,265.797z"/>
<path style="fill:#B3B3B3;" d="M507.056,222.153h-25.731v43.643h25.731c2.73,0,4.944-2.216,4.944-4.951v-33.742  C512,224.37,509.787,222.153,507.056,222.153z"/>
<path style="fill:#808080;" d="M411.658,469.886H62.645c-26.563,0-48.096-21.533-48.096-48.096v-0.07  c0-26.563,21.533-48.096,48.096-48.096h349.013c26.563,0,48.096,21.533,48.096,48.096v0.07  C459.754,448.353,438.221,469.886,411.658,469.886z"/>
<path style="fill:#666666;" d="M411.693,373.624h-30.381c26.543,0,48.061,21.549,48.061,48.131l0,0  c0,26.582-21.518,48.131-48.061,48.131h30.381c26.544,0,48.061-21.549,48.061-48.131l0,0  C459.754,395.173,438.236,373.624,411.693,373.624z"/>
<g>
	<ellipse style="fill:#B3B3B3;" cx="70.08" cy="421.75" rx="22.1" ry="22.13"/>
	<ellipse style="fill:#B3B3B3;" cx="404.22" cy="421.75" rx="22.1" ry="22.13"/>
	<path style="fill:#B3B3B3;" d="M363.073,407.978H111.23c1.35,4.353,2.078,8.98,2.078,13.777s-0.728,9.424-2.078,13.777h251.843   c-1.351-4.352-2.078-8.979-2.078-13.777C360.994,416.958,361.722,412.331,363.073,407.978z"/>
</g>
<path style="fill:#CCCCCC;" d="M294.869,178.564v-26.946c0-20.303-16.435-36.762-36.708-36.762h-32.113  c-6.977,0-12.634,5.665-12.634,12.652v51.056H294.869z"/>
<path style="fill:#B3B3B3;" d="M258.16,114.856h-30.774c20.273,0,36.708,16.459,36.708,36.762v26.947h30.774v-26.947  C294.869,131.315,278.434,114.856,258.16,114.856z"/>
<path style="fill:#FFCC5A;" d="M299.11,169.559H184.18c-5.751,0-10.413,4.669-10.413,10.428v45.101  c0,5.759-4.662,10.428-10.413,10.428H10.413C4.662,235.516,0,240.184,0,245.944v84.022c0,5.759,4.662,10.428,10.413,10.428h312.823  c7.134,0,12.918-5.792,12.918-12.936v-95.477c0-1.967-0.448-3.908-1.31-5.676l-24.126-49.484  C308.552,172.377,304.046,169.559,299.11,169.559z"/>
<path style="fill:#FFB000;" d="M334.844,226.304l-24.126-49.484c-2.166-4.443-6.671-7.261-11.608-7.261h-32.504  c4.937,0,9.442,2.818,11.608,7.261l24.126,49.484c0.862,1.768,1.31,3.709,1.31,5.676v64.194c0,7.432-6.016,13.457-13.437,13.457  h-279.8C4.662,309.63,0,304.961,0,299.202v30.763c0,5.759,4.662,10.428,10.413,10.428h293.236h19.587  c7.134,0,12.918-5.792,12.918-12.937v-30.763v-64.714C336.153,230.012,335.706,228.071,334.844,226.304z"/>
<path style="fill:#AEFFFF;" d="M286.218,195.663h-81.035c-1.255,0-2.272,1.019-2.272,2.276v37.36c0,0.608,0.243,1.192,0.676,1.619  l27.984,27.68c0.425,0.421,0.999,0.657,1.597,0.657h71.388c1.255,0,2.272-1.019,2.272-2.276v-27.43c0-0.346-0.079-0.688-0.23-0.998  l-18.337-37.61C287.879,196.158,287.087,195.663,286.218,195.663z"/>
<path style="fill:#84F1F7;" d="M306.597,234.549L288.26,196.94c-0.381-0.782-1.174-1.277-2.042-1.277h-30.774  c0.869,0,1.661,0.496,2.042,1.277l18.337,37.609c0.151,0.311,0.23,0.652,0.23,0.999v27.43c0,1.257-1.018,2.276-2.273,2.276h30.774  c1.255,0,2.272-1.019,2.272-2.276v-27.43C306.828,235.202,306.749,234.86,306.597,234.549z"/>
<path style="fill:#CCCCCC;" d="M496.068,306.396h-17.244c-1.426,0-2.625-1.208-2.78-2.803l-3.691-37.796h30.187l-3.691,37.796  C498.693,305.188,497.495,306.396,496.068,306.396z"/>
<g>
	<path style="fill:#FFB000;" d="M220.839,273.435c-4.267,0-7.726,3.459-7.726,7.726s3.459,7.726,7.726,7.726h18.946   c4.267,0,7.726-3.459,7.726-7.726s-3.459-7.726-7.726-7.726H220.839z"/>
	<path style="fill:#FFB000;" d="M49.511,301.699c2.862,0,5.613-1.598,6.951-4.344l19.22-39.44c1.869-3.835,0.275-8.461-3.561-10.33   c-3.837-1.869-8.461-0.277-10.33,3.561l-19.22,39.44c-1.869,3.835-0.275,8.461,3.561,10.33   C47.222,301.447,48.375,301.699,49.511,301.699z"/>
	<path style="fill:#FFB000;" d="M88.013,301.699c2.862,0,5.613-1.598,6.951-4.344l19.22-39.44c1.869-3.835,0.275-8.461-3.561-10.33   c-3.838-1.869-8.461-0.277-10.33,3.561l-19.22,39.44c-1.869,3.835-0.275,8.461,3.561,10.33   C85.724,301.447,86.877,301.699,88.013,301.699z"/>
	<path style="fill:#FFB000;" d="M126.515,301.699c2.862,0,5.613-1.598,6.951-4.344l19.22-39.44c1.869-3.835,0.275-8.461-3.561-10.33   c-3.837-1.869-8.461-0.277-10.33,3.561l-19.22,39.44c-1.869,3.835-0.275,8.461,3.561,10.33   C124.226,301.447,125.379,301.699,126.515,301.699z"/>
</g>
<path style="fill:#B3B3B3;" d="M482.296,306.395v57.369c0,2.845,2.306,5.151,5.151,5.151s5.151-2.306,5.151-5.151v-57.369H482.296z"/>
<g>
</g>
<g>
</g>
<g>
</g>
<g>
</g>
<g>
</g>
<g>
</g>
<g>
</g>
<g>
</g>
<g>
</g>
<g>
</g>
<g>
</g>
<g>
</g>
<g>
</g>
<g>
</g>
<g>
</g>
</svg>
