<?xml version="1.0" encoding="iso-8859-1"?>
<!-- Generator: Adobe Illustrator 19.0.0, SVG Export Plug-In . SVG Version: 6.00 Build 0)  -->
<svg xmlns="http://www.w3.org/2000/svg" xmlns:xlink="http://www.w3.org/1999/xlink" version="1.1" id="Layer_1" x="0px" y="0px" viewBox="0 0 512.001 512.001" style="enable-background:new 0 0 512.001 512.001;" xml:space="preserve">
<path style="fill:#B3B3B3;" d="M464.753,292.75c2.163,0,4.287,0.829,6.369,1.125v-85.75h-12.737v85.75  C460.465,293.579,462.59,292.75,464.753,292.75z"/>
<ellipse style="fill:#AF794E;" cx="464.751" cy="336.24" rx="44.9" ry="45.02"/>
<path style="fill:#9E653E;" d="M464.752,291.224c-5.547,0-10.856,1.015-15.761,2.859c17.021,6.4,29.139,22.857,29.139,42.157  c0,19.3-12.118,35.757-29.139,42.156c4.905,1.844,10.214,2.859,15.761,2.859c24.797,0,44.9-20.154,44.9-45.016  C509.652,311.378,489.55,291.224,464.752,291.224z"/>
<path style="fill:#FFA227;" d="M300.766,41.626c-3.275-2.749-5.732-10.235-7.099-13.96L56.295,215.029L52.501,218l34.125,0.125  c14.625,0,24.259,8.165,30.5,20.375l202-182.125L300.766,41.626z"/>
<path style="fill:#FFCC5A;" d="M410.955,86.557l-22.621-21.321L326.37,6.832c-9.187-9.127-23.999-9.107-33.161,0.045  c-9.797,9.785-9.102,25.891,1.501,34.792l148.458,120.229h47.602L410.955,86.557z"/>
<rect x="154.241" y="372.97" style="fill:#B3B3B3;" width="153.05" height="45.638"/>
<rect x="276.021" y="372.97" style="fill:#999999;" width="31.27" height="45.638"/>
<path style="fill:#CCCCCC;" d="M124.129,280.239v-27.235c0-20.857-16.864-37.765-37.668-37.765H53.509  c-7.16,0-12.964,5.819-12.964,12.998v52.003h83.584V280.239z"/>
<path style="fill:#B3B3B3;" d="M86.461,215.238H54.94c20.803,0,37.668,16.908,37.668,37.765v27.235h31.521v-27.235  C124.129,232.146,107.264,215.238,86.461,215.238z"/>
<path style="fill:#808080;" d="M409.807,512H51.731C24.459,512,2.35,489.891,2.35,462.619v-0.128  c0-27.272,22.108-49.381,49.381-49.381h358.077c27.272,0,49.381,22.108,49.381,49.381v0.128C459.188,489.891,437.08,512,409.807,512  z"/>
<path style="fill:#666666;" d="M409.871,413.111H378.35c27.237,0,49.317,22.137,49.317,49.445l0,0  c0,27.308-22.08,49.445-49.317,49.445h31.521c27.237,0,49.317-22.137,49.317-49.445l0,0  C459.188,435.248,437.108,413.111,409.871,413.111z"/>
<g>
	<ellipse style="fill:#B3B3B3;" cx="59.331" cy="462.56" rx="22.677" ry="22.735"/>
	<ellipse style="fill:#B3B3B3;" cx="402.201" cy="462.56" rx="22.677" ry="22.735"/>
	<path style="fill:#B3B3B3;" d="M359.981,448.402H101.557c1.386,4.471,2.133,9.225,2.133,14.153c0,4.928-0.747,9.682-2.133,14.153   h258.424c-1.386-4.471-2.133-9.225-2.133-14.153C357.848,457.627,358.595,452.874,359.981,448.402z"/>
</g>
<path style="fill:#FFCC5A;" d="M308.2,203.476H191.343c-5.901,0-10.685,4.796-10.685,10.712v46.332  c0,5.916-4.784,10.712-10.685,10.712H13.035c-5.901,0-10.685,4.796-10.685,10.712v86.315c0,5.916,4.784,10.712,10.685,10.712H332.31  c8.271,0,14.977-6.723,14.977-15.016v-95.958c0-2.283-0.519-4.536-1.519-6.588l-24.11-49.507  C319.147,206.746,313.924,203.476,308.2,203.476z"/>
<path style="fill:#FFB000;" d="M345.768,261.41l-24.11-49.507c-2.511-5.157-7.735-8.427-13.458-8.427h-31.216  c5.724,0,10.947,3.271,13.458,8.428l24.11,49.507c0.999,2.052,1.519,4.305,1.519,6.588v65.547c0,7.635-6.173,13.824-13.788,13.824  H13.035c-5.901,0-10.685-4.796-10.685-10.712v31.603c0,5.916,4.784,10.713,10.685,10.713h288.059h31.216  c8.271,0,14.977-6.723,14.977-15.016v-31.603v-64.356C347.287,265.715,346.768,263.462,345.768,261.41z"/>
<path style="fill:#AEFFFF;" d="M296.047,230.292h-83.153c-1.288,0-2.332,1.047-2.332,2.338v38.38c0,0.625,0.25,1.224,0.693,1.663  l28.715,28.435c0.436,0.432,1.025,0.675,1.639,0.675h73.254c1.288,0,2.332-1.047,2.332-2.338v-28.179  c0-0.355-0.081-0.706-0.236-1.026l-18.816-38.636C297.752,230.801,296.938,230.292,296.047,230.292z"/>
<path style="fill:#84F1F7;" d="M316.958,270.24l-18.816-38.636c-0.391-0.803-1.204-1.312-2.095-1.312h-31.521  c0.891,0,1.704,0.509,2.095,1.312l18.816,38.636c0.156,0.319,0.236,0.67,0.236,1.026v28.179c0,1.291-1.044,2.338-2.332,2.338h31.521  c1.288,0,2.332-1.047,2.332-2.338v-28.179C317.195,270.91,317.114,270.56,316.958,270.24z"/>
<path style="fill:#CCCCCC;" d="M481.892,210.882h-34.279c-2.428,0-4.525-1.705-5.027-4.087l-8.556-40.617  c-0.675-3.203,1.762-6.216,5.027-6.216h51.392c3.265,0,5.702,3.013,5.027,6.216l-8.556,40.617  C486.417,209.177,484.32,210.882,481.892,210.882z"/>
<path style="fill:#B3B3B3;" d="M490.448,159.962h-24.902l-10.103,46.832c-0.502,2.382-2.599,4.087-5.027,4.087h31.475  c2.428,0,4.525-1.705,5.027-4.087l8.556-40.617C496.15,162.976,493.713,159.962,490.448,159.962z"/>
<g>
	<path style="fill:#FFB000;" d="M211.867,315.063c-4.267,0-7.726,3.459-7.726,7.726s3.459,7.726,7.726,7.726h18.946   c4.267,0,7.726-3.459,7.726-7.726s-3.459-7.726-7.726-7.726H211.867z"/>
	<path style="fill:#FFB000;" d="M40.539,343.327c2.862,0,5.613-1.598,6.951-4.344l19.22-39.44c1.869-3.835,0.275-8.461-3.561-10.33   c-3.837-1.869-8.461-0.277-10.33,3.561l-19.22,39.44c-1.869,3.835-0.275,8.461,3.561,10.33   C38.25,343.075,39.403,343.327,40.539,343.327z"/>
	<path style="fill:#FFB000;" d="M79.041,343.327c2.862,0,5.613-1.598,6.951-4.344l19.22-39.44c1.869-3.835,0.275-8.461-3.561-10.33   c-3.838-1.869-8.461-0.277-10.33,3.561l-19.22,39.44c-1.869,3.835-0.275,8.461,3.561,10.33   C76.752,343.075,77.905,343.327,79.041,343.327z"/>
	<path style="fill:#FFB000;" d="M117.544,343.327c2.862,0,5.613-1.598,6.951-4.344l19.22-39.44c1.869-3.835,0.275-8.461-3.561-10.33   c-3.837-1.869-8.461-0.277-10.33,3.561l-19.22,39.44c-1.869,3.835-0.275,8.461,3.561,10.33   C115.255,343.075,116.407,343.327,117.544,343.327z"/>
</g>
<g>
</g>
<g>
</g>
<g>
</g>
<g>
</g>
<g>
</g>
<g>
</g>
<g>
</g>
<g>
</g>
<g>
</g>
<g>
</g>
<g>
</g>
<g>
</g>
<g>
</g>
<g>
</g>
<g>
</g>
</svg>
