<?xml version="1.0" encoding="iso-8859-1"?>
<!-- Generator: Adobe Illustrator 19.0.0, SVG Export Plug-In . SVG Version: 6.00 Build 0)  -->
<svg xmlns="http://www.w3.org/2000/svg" xmlns:xlink="http://www.w3.org/1999/xlink" version="1.1" id="Layer_1" x="0px" y="0px" viewBox="0 0 512.001 512.001" style="enable-background:new 0 0 512.001 512.001;" xml:space="preserve">
<path style="fill:#FFA227;" d="M303.501,40.5c-3.269-2.749-5.468-6.275-6.833-10L61.251,217.083l30.922-0.245  c14.599,0,25.848,9.452,32.078,21.662L325.08,56.912L303.501,40.5z"/>
<rect x="161.441" y="369.97" style="fill:#B3B3B3;" width="152.79" height="52.15"/>
<rect x="283.281" y="369.97" style="fill:#999999;" width="30.945" height="52.15"/>
<path style="fill:#CCCCCC;" d="M131.376,280.239v-27.235c0-20.857-16.835-37.765-37.603-37.765H60.877  c-7.148,0-12.942,5.819-12.942,12.998v52.003h83.441V280.239z"/>
<path style="fill:#B3B3B3;" d="M93.773,215.238H62.244c20.767,0,37.603,16.908,37.603,37.765v27.235h31.529v-27.235  C131.376,232.146,114.54,215.238,93.773,215.238z"/>
<path style="fill:#808080;" d="M416.52,512H59.145c-27.249,0-49.338-22.089-49.338-49.338v-0.213  c0-27.249,22.089-49.338,49.338-49.338H416.52c27.249,0,49.338,22.089,49.338,49.338v0.213C465.858,489.91,443.769,512,416.52,512z"/>
<path style="fill:#666666;" d="M416.626,413.111h-31.467c27.19,0,49.232,22.137,49.232,49.445l0,0  c0,27.308-22.042,49.445-49.232,49.445h31.467c27.19,0,49.232-22.137,49.232-49.445l0,0  C465.858,435.248,443.816,413.111,416.626,413.111z"/>
<g>
	<ellipse style="fill:#B3B3B3;" cx="66.691" cy="462.56" rx="22.638" ry="22.735"/>
	<ellipse style="fill:#B3B3B3;" cx="408.971" cy="462.56" rx="22.638" ry="22.735"/>
	<path style="fill:#B3B3B3;" d="M366.821,448.402H108.843c1.383,4.471,2.129,9.225,2.129,14.153c0,4.928-0.746,9.682-2.129,14.153   h257.978c-1.383-4.471-2.129-9.225-2.129-14.153C364.693,457.627,365.438,452.874,366.821,448.402z"/>
</g>
<path style="fill:#FFCC5A;" d="M315.13,203.476H198.474c-5.891,0-10.666,4.796-10.666,10.712v46.332  c0,5.916-4.775,10.712-10.666,10.712H20.473c-5.891,0-10.666,4.796-10.666,10.712v86.315c0,5.916,4.776,10.712,10.666,10.712  h318.725c8.257,0,14.951-6.723,14.951-15.016v-95.958c0-2.283-0.518-4.536-1.516-6.588l-24.069-49.507  C326.058,206.746,320.844,203.476,315.13,203.476z"/>
<path style="fill:#FFB000;" d="M352.634,261.41l-24.069-49.507c-2.507-5.157-7.721-8.428-13.435-8.428h-31.467  c5.714,0,10.928,3.271,13.435,8.428l24.069,49.507c0.997,2.052,1.516,4.305,1.516,6.588v65.547c0,7.635-6.163,13.824-13.764,13.824  H20.473c-5.891,0-10.666-4.796-10.666-10.712v31.603c0,5.916,4.776,10.713,10.667,10.713h287.257h31.467  c8.257,0,14.951-6.723,14.951-15.016v-31.603v-64.356C354.149,265.715,353.631,263.462,352.634,261.41z"/>
<path style="fill:#AEFFFF;" d="M302.998,230.292h-83.01c-1.286,0-2.328,1.047-2.328,2.338v38.38c0,0.625,0.249,1.224,0.692,1.663  l28.666,28.435c0.436,0.432,1.023,0.675,1.636,0.675h73.127c1.286,0,2.328-1.047,2.328-2.338v-28.179  c0-0.355-0.081-0.706-0.236-1.026l-18.783-38.636C304.699,230.801,303.888,230.292,302.998,230.292z"/>
<path style="fill:#84F1F7;" d="M323.873,270.24l-18.783-38.636c-0.39-0.803-1.202-1.312-2.092-1.312h-30.854  c0.89,0,1.701,0.509,2.092,1.312l18.783,38.636c0.155,0.319,0.236,0.67,0.236,1.026v28.179c0,1.291-1.042,2.338-2.328,2.338h30.854  c1.286,0,2.328-1.047,2.328-2.338v-28.179C324.109,270.91,324.028,270.56,323.873,270.24z"/>
<path style="fill:#FFCC5A;" d="M393.703,63.893L333.268,6.832c-9.171-9.127-23.958-9.107-33.104,0.045  c-9.78,9.785-9.086,25.891,1.499,34.792L450.001,162h47.506l-81.254-76.816L393.703,63.893z"/>
<path style="fill:#CCCCCC;" d="M488.523,210.882h-34.22c-2.424,0-4.517-1.705-5.018-4.087l-8.542-40.617  c-0.674-3.203,1.759-6.216,5.018-6.216h51.303c3.259,0,5.692,3.013,5.018,6.216l-8.542,40.617  C493.04,209.177,490.947,210.882,488.523,210.882z"/>
<path style="fill:#B3B3B3;" d="M497.064,159.962h-24.472l-10.519,46.832c-0.501,2.382-2.594,4.087-5.018,4.087h31.467  c2.424,0,4.517-1.705,5.018-4.087l8.542-40.617C502.756,162.976,500.324,159.962,497.064,159.962z"/>
<g>
	<path style="fill:#FFB000;" d="M238.441,334.66h-17.75c-4.267,0-7.726-3.459-7.726-7.726s3.459-7.726,7.726-7.726h17.75   c4.267,0,7.726,3.459,7.726,7.726S242.708,334.66,238.441,334.66z"/>
	<path style="fill:#FFB000;" d="M60.176,346.631c-1.139,0-2.294-0.253-3.386-0.787c-3.834-1.873-5.424-6.5-3.55-10.334   l18.008-36.855c1.874-3.833,6.5-5.426,10.334-3.549c3.834,1.873,5.424,6.5,3.55,10.334l-18.008,36.855   C65.783,345.037,63.035,346.631,60.176,346.631z"/>
	<path style="fill:#FFB000;" d="M96.248,346.631c-1.139,0-2.294-0.253-3.386-0.787c-3.834-1.873-5.424-6.499-3.55-10.333   l18.007-36.855c1.874-3.835,6.5-5.427,10.334-3.55c3.834,1.873,5.424,6.499,3.55,10.333l-18.007,36.855   C101.856,345.037,99.107,346.631,96.248,346.631z"/>
	<path style="fill:#FFB000;" d="M132.32,346.631c-1.139,0-2.294-0.253-3.386-0.787c-3.834-1.873-5.424-6.5-3.55-10.334   l18.008-36.855c1.873-3.833,6.499-5.426,10.334-3.549c3.834,1.873,5.424,6.5,3.55,10.334l-18.008,36.855   C137.928,345.037,135.179,346.631,132.32,346.631z"/>
</g>
<g>
	<path style="fill:#B3B3B3;" d="M471.413,346.569c-14.389,0-26.095-11.706-26.095-26.095c0-3.413,2.768-6.181,6.181-6.181   s6.181,2.768,6.181,6.181c0,7.572,6.16,13.732,13.732,13.732s13.732-6.16,13.732-13.732s-6.16-13.732-13.732-13.732   c-3.413,0-6.181-2.768-6.181-6.181s2.768-6.181,6.181-6.181c14.388,0,26.094,11.706,26.094,26.095   C497.507,334.863,485.801,346.569,471.413,346.569z"/>
	<path style="fill:#B3B3B3;" d="M465.247,210.882c-0.005,0.099-0.015,0.196-0.015,0.296v89.383c0,3.413,2.768,6.181,6.181,6.181   s6.181-2.768,6.181-6.181v-89.383c0-0.1-0.01-0.197-0.015-0.296H465.247z"/>
</g>
<g>
</g>
<g>
</g>
<g>
</g>
<g>
</g>
<g>
</g>
<g>
</g>
<g>
</g>
<g>
</g>
<g>
</g>
<g>
</g>
<g>
</g>
<g>
</g>
<g>
</g>
<g>
</g>
<g>
</g>
</svg>
