<svg id="Capa_1" enable-background="new 0 0 512 512" height="512" viewBox="0 0 512 512" width="512" xmlns="http://www.w3.org/2000/svg"><g><g><g><g><g><g><g><g><g><g><g><path d="m343.739 94.207c-17.877-1.237-31.999-16.121-31.999-34.313v-56.886c-3.712-1.956-7.875-3.008-12.148-3.008h-251.791c-19.001 0-34.405 15.404-34.405 34.406v443.189c0 19.001 15.404 34.405 34.405 34.405h295.938z" fill="#f6f9f9"/></g><path d="m342.387 94.085v417.915h28.893c19.002 0 34.406-15.404 34.406-34.406v-371.5c0-3.762-.819-7.437-2.348-10.796l-1.516-1.213z" fill="#e7ecf1"/><path d="m398.052 87.664-80.03-80.03c-2.228-2.228-4.821-4.005-7.634-5.286v58.544c0 19.002 15.404 34.406 34.406 34.406h58.544c-1.281-2.814-3.058-5.406-5.286-7.634z" fill="#fc8086"/></g></g></g></g></g></g></g></g></g><g><g><g><g><g><g><g><path d="m156.364 56.549h-88.753c-4.267 0-7.726-3.459-7.726-7.726s3.459-7.726 7.726-7.726h88.754c4.267 0 7.726 3.459 7.726 7.726s-3.46 7.726-7.727 7.726z" fill="#ddeafb"/></g><g><path d="m156.364 92.201h-88.753c-4.267 0-7.726-3.459-7.726-7.726s3.459-7.726 7.726-7.726h88.754c4.267 0 7.726 3.459 7.726 7.726s-3.46 7.726-7.727 7.726z" fill="#ddeafb"/></g></g></g></g></g></g><g><path d="m407.57 258.64h-182.941v88.004h194.276v-76.67c-.001-6.259-5.075-11.334-11.335-11.334z" fill="#ddeafb"/><path d="m467.69 258.64h-62.953c6.26 0 11.334 5.074 11.334 11.334v76.67h62.953v-76.67c0-6.259-5.074-11.334-11.334-11.334z" fill="#bed8fb"/><g><path d="m438.138 500.842v-191.57c0-6.236-5.055-11.291-11.291-11.291h-139.382c-3.797 0-7.134-2.517-8.177-6.168l-12.525-43.832c-2.467-8.633-10.356-14.587-19.334-14.593l-71.602-.051c-12.575-.008-22.773 10.182-22.775 22.757l-.043 239.403c0 8.964 7.205 16.504 16.139 16.504 1.12 0 165.65-.004 257.886-.003 6.137-.031 11.104-5.012 11.104-11.156z" fill="#f6e266"/></g><g fill="#ffd064"><path d="m184.129 233.388c8.979.006 16.867 5.96 19.334 14.593l12.525 43.832c1.043 3.651 4.38 6.168 8.177 6.168h63.299c-3.797 0-7.134-2.517-8.177-6.168l-12.525-43.832c-2.467-8.633-10.356-14.587-19.334-14.593l-71.602-.051c-.463 0-.922.017-1.378.044z"/><path d="m169.124 511.999c.008 0 .016.001.024.001-.958 0 103.454-.002 193.031-.003-55.773 0-137.047.001-193.055.002z"/><path d="m487.313 297.98h-63.299c6.236 0 11.291 5.055 11.291 11.291v191.57c0 6.144-4.967 11.126-11.104 11.155 34.358 0 74.403-4.991 74.403-11.155v-191.57c0-6.236-5.055-11.291-11.291-11.291z"/></g><path d="m452.335 391.007h-72.526c-2.461 0-4.456-1.995-4.456-4.456v-30.644c0-2.461 1.995-4.456 4.456-4.456h72.526c2.461 0 4.456 1.995 4.456 4.456v30.644c-.001 2.462-1.996 4.456-4.456 4.456z" fill="#66b49d"/></g></g></g></svg>