<?xml version="1.0" encoding="iso-8859-1"?>
<!-- Generator: Adobe Illustrator 19.0.0, SVG Export Plug-In . SVG Version: 6.00 Build 0)  -->
<svg xmlns="http://www.w3.org/2000/svg" xmlns:xlink="http://www.w3.org/1999/xlink" version="1.1" id="Layer_1" x="0px" y="0px" viewBox="0 0 512 512" style="enable-background:new 0 0 512 512;" xml:space="preserve">
<path style="fill:#FFA227;" d="M402.54,490.241H109.46V6.035c0-3.333,2.702-6.035,6.035-6.035h281.009  c3.333,0,6.035,2.702,6.035,6.035v484.206H402.54z"/>
<path style="fill:#F78B0B;" d="M396.505,0h-29.529c3.333,0,6.035,2.702,6.035,6.035v484.206h29.529V6.035  C402.54,2.702,399.838,0,396.505,0z"/>
<path style="fill:#C7AC91;" d="M141.285,490.241V33.233c0-3.333,2.702-6.035,6.035-6.035h217.358c3.333,0,6.035,2.702,6.035,6.035  v457.008H141.285z"/>
<path style="fill:#AF9177;" d="M364.678,27.198H335.15c3.333,0,6.035,2.702,6.035,6.035v457.008h29.529V33.233  C370.714,29.9,368.012,27.198,364.678,27.198z"/>
<path style="fill:#808080;" d="M439.228,512H72.771c-3.073,0-5.564-2.491-5.564-5.564V486.8c0-3.073,2.491-5.564,5.564-5.564  h366.457c3.073,0,5.564,2.491,5.564,5.564v19.636C444.792,509.509,442.301,512,439.228,512z"/>
<path style="fill:#088AFF;" d="M339.572,176.61H175.217c-3.333,0-6.035-2.702-6.035-6.035v-89.05c0-3.333,2.702-6.035,6.035-6.035  h164.354c3.333,0,6.035,2.702,6.035,6.035v89.05C345.607,173.908,342.905,176.61,339.572,176.61z"/>
<path style="fill:#0076CE;" d="M339.572,75.489h-29.529c3.333,0,6.035,2.702,6.035,6.036v89.05c0,3.333-2.702,6.035-6.035,6.035  h29.529c3.333,0,6.035-2.702,6.035-6.035v-89.05C345.607,78.192,342.905,75.489,339.572,75.489z"/>
<path style="fill:#666666;" d="M439.228,481.236h-23.965V512h23.965c3.073,0,5.564-2.491,5.564-5.564V486.8  C444.792,483.727,442.301,481.236,439.228,481.236z"/>
<g>
</g>
<g>
</g>
<g>
</g>
<g>
</g>
<g>
</g>
<g>
</g>
<g>
</g>
<g>
</g>
<g>
</g>
<g>
</g>
<g>
</g>
<g>
</g>
<g>
</g>
<g>
</g>
<g>
</g>
</svg>
