<?xml version="1.0" encoding="iso-8859-1"?>
<!-- Generator: Adobe Illustrator 19.0.0, SVG Export Plug-In . SVG Version: 6.00 Build 0)  -->
<svg xmlns="http://www.w3.org/2000/svg" xmlns:xlink="http://www.w3.org/1999/xlink" version="1.1" id="Layer_1" x="0px" y="0px" viewBox="0 0 512 512" style="enable-background:new 0 0 512 512;" xml:space="preserve">
<path style="fill:#666666;" d="M71.217,109.693h88.658v-29.45H71.217c-4.958,0-8.977,4.019-8.977,8.977v11.496  C62.24,105.674,66.259,109.693,71.217,109.693z"/>
<path style="fill:#B3B3B3;" d="M165.042,124.712H182.5V65.224h-17.457c-4.638,0-8.398,3.76-8.398,8.398v42.692  C156.645,120.952,160.404,124.712,165.042,124.712z"/>
<path style="fill:#666666;" d="M440.783,109.693h-88.158v-29.45h88.158c4.958,0,8.977,4.019,8.977,8.977v11.496  C449.76,105.674,445.741,109.693,440.783,109.693z"/>
<path style="fill:#CCCCCC;" d="M239.702,377.583l6.619,125.126c0.666,12.388,18.24,12.388,18.907,0l6.619-125.126H239.702z"/>
<path style="fill:#FFA227;" d="M218.566,207.943V346.58c0,6.124,2.285,12.026,6.408,16.55l14.729,16.543h32.144l14.729-16.543  c4.122-4.524,6.408-10.427,6.408-16.55V207.943H218.566z"/>
<path style="fill:#F78B0B;" d="M264.291,207.943v171.73h7.556l14.729-16.543c4.122-4.524,6.408-10.426,6.408-16.55V207.943H264.291z  "/>
<path style="fill:#FFCC5A;" d="M327.028,0H184.972c-3.465,0-6.273,3.072-6.273,6.861v138.267c0,7.44,1.69,14.74,4.889,21.12  l21.988,43.843c2.121,4.229,6.181,6.858,10.591,6.858h79.666c4.41,0,8.47-2.629,10.591-6.858l21.988-43.843  c3.199-6.379,4.889-13.68,4.889-21.12V6.861C333.302,3.072,330.493,0,327.028,0z"/>
<path style="fill:#B3B3B3;" d="M346.958,124.712h-17.124V65.224h17.124c4.638,0,8.398,3.76,8.398,8.398v42.692  C355.355,120.952,351.595,124.712,346.958,124.712z"/>
<path style="fill:#FFB000;" d="M327.028,0h-22.419v145.128c0,7.44-1.69,14.74-4.889,21.12l-21.988,43.843  c-2.121,4.229-6.181,6.858-10.591,6.858h28.692c4.41,0,8.471-2.629,10.591-6.858l21.988-43.843c3.199-6.379,4.889-13.68,4.889-21.12  V6.861C333.302,3.072,330.493,0,327.028,0z"/>
<g>
	<path style="fill:#F78B0B;" d="M296.276,33.512h-3.601h-28.641h-46.84c-5.518,0-9.991,4.478-9.991,10.002v1.5   c0,5.524,4.473,10.003,9.991,10.003h79.082c5.518,0,9.991-4.478,9.991-10.003v-1.5C306.267,37.99,301.794,33.512,296.276,33.512z"/>
	<path style="fill:#F78B0B;" d="M296.27,99.013H217.2c-5.521,0-9.997-4.476-9.997-9.997v-1.512c0-5.521,4.476-9.997,9.997-9.997   h79.07c5.521,0,9.997,4.476,9.997,9.997v1.512C306.267,94.537,301.791,99.013,296.27,99.013z"/>
	<path style="fill:#F78B0B;" d="M296.27,143.009H217.2c-5.521,0-9.997-4.476-9.997-9.997V131.5c0-5.521,4.476-9.997,9.997-9.997   h79.07c5.521,0,9.997,4.476,9.997,9.997v1.512C306.267,138.533,301.791,143.009,296.27,143.009z"/>
</g>
<g>
</g>
<g>
</g>
<g>
</g>
<g>
</g>
<g>
</g>
<g>
</g>
<g>
</g>
<g>
</g>
<g>
</g>
<g>
</g>
<g>
</g>
<g>
</g>
<g>
</g>
<g>
</g>
<g>
</g>
</svg>
