<?xml version="1.0" encoding="iso-8859-1"?>
<!-- Generator: Adobe Illustrator 19.0.0, SVG Export Plug-In . SVG Version: 6.00 Build 0)  -->
<svg xmlns="http://www.w3.org/2000/svg" xmlns:xlink="http://www.w3.org/1999/xlink" version="1.1" id="Layer_1" x="0px" y="0px" viewBox="0 0 512 512" style="enable-background:new 0 0 512 512;" xml:space="preserve">
<path style="fill:#686868;" d="M383.061,113.248H128.927C57.723,113.248,0,170.97,0,242.175v50.382  c0,19.126,13.699,35.506,32.524,38.888l0.945,0.072l0.281-15.184c-10.536-2.931-18.804-12.656-18.804-23.782v-50.365  c0-62.957,51.037-113.994,113.994-113.994h254.133c62.95,0,113.982,51.031,113.982,113.982v50.377  c0,11.182-8.689,20.715-19.242,23.636l-0.625,15.688C496.266,328.646,512,311.918,512,292.551v-50.365  C512,170.976,454.272,113.248,383.061,113.248z"/>
<g>
	<path style="fill:#CCCCCC;" d="M467.39,359.711h-17.14v-77.146h17.14c6.459,0,11.695,5.236,11.695,11.695v53.756   C479.085,354.475,473.849,359.711,467.39,359.711z"/>
	<path style="fill:#CCCCCC;" d="M44.61,359.711h17.224v-77.146H44.61c-6.459,0-11.695,5.236-11.695,11.695v53.756   C32.915,354.475,38.151,359.711,44.61,359.711z"/>
</g>
<path style="fill:#FFA227;" d="M57.907,282.195v77.887c0,21.357,17.312,38.67,38.667,38.67h89.588  c22.532,0,42.398-14.779,48.876-36.362l5.58-18.591c1.978-6.59,8.043-11.102,14.923-11.102l0,0c6.792,0,12.801,4.4,14.853,10.875  l6.197,19.56c6.72,21.208,26.402,35.62,48.647,35.62h90.189c21.355,0,38.667-17.313,38.667-38.67v-77.887  c0-21.357-17.312-38.67-38.667-38.67H96.573C75.218,243.524,57.907,260.838,57.907,282.195z"/>
<path style="fill:#088AFF;" d="M325.237,372.461c-10.835,0-20.314-6.94-23.586-17.27l-6.01-18.968  c-5.558-17.541-21.394-29.52-39.404-29.81c-0.232-0.004-0.465-0.005-0.697-0.005c-18.629,0-34.744,11.989-40.101,29.833l-5.58,18.59  c-3.166,10.546-12.689,17.631-23.699,17.631H96.574c-6.826,0-12.38-5.554-12.38-12.38v-77.887c0-6.827,5.553-12.38,12.38-12.38  h318.853c6.825,0,12.378,5.553,12.378,12.379v77.889c0,6.826-5.552,12.379-12.378,12.379h-90.19V372.461z"/>
<path style="fill:#F78B0B;" d="M415.427,243.524h-29.054c21.355,0,38.666,17.313,38.666,38.67v77.887  c0,21.357-17.312,38.67-38.666,38.67h29.054c21.355,0,38.666-17.313,38.666-38.67v-77.887  C454.093,260.838,436.781,243.524,415.427,243.524z"/>
<g>
	<path style="fill:#0076CE;" d="M227.183,306.413c-0.232-0.004-0.465-0.005-0.697-0.005c-18.629,0-34.744,11.989-40.101,29.833   l-5.58,18.59c-3.166,10.546-12.689,17.631-23.699,17.631h29.054c11.01,0,20.533-7.085,23.699-17.631l5.58-18.59   c3.883-12.935,13.421-22.788,25.47-27.233C236.587,307.398,231.963,306.49,227.183,306.413z"/>
	<path style="fill:#0076CE;" d="M415.427,269.814h-29.054c6.825,0,12.378,5.553,12.378,12.379v77.889   c0,6.826-5.552,12.379-12.378,12.379h29.054c6.825,0,12.378-5.553,12.378-12.379v-77.889   C427.805,275.368,422.252,269.814,415.427,269.814z"/>
</g>
<g>
</g>
<g>
</g>
<g>
</g>
<g>
</g>
<g>
</g>
<g>
</g>
<g>
</g>
<g>
</g>
<g>
</g>
<g>
</g>
<g>
</g>
<g>
</g>
<g>
</g>
<g>
</g>
<g>
</g>
</svg>
