<?xml version="1.0" encoding="iso-8859-1"?>
<!-- Generator: Adobe Illustrator 19.0.0, SVG Export Plug-In . SVG Version: 6.00 Build 0)  -->
<svg xmlns="http://www.w3.org/2000/svg" xmlns:xlink="http://www.w3.org/1999/xlink" version="1.1" id="Layer_1" x="0px" y="0px" viewBox="0 0 512 512" style="enable-background:new 0 0 512 512;" xml:space="preserve">
<path style="fill:#B3B3B3;" d="M508.998,101.267l-76.104-75.923c-19.213-19.168-50.364-19.168-69.578,0L140.509,247.636  l14.479,14.479l147.671-147.336l75.152-74.974c11.208-11.181,29.379-11.181,40.587,0l76.104,75.923  c4.003,3.993,10.493,3.993,14.496,0C513.001,111.735,513.001,105.26,508.998,101.267z"/>
<path style="fill:#686868;" d="M199.008,418.621l300.766-300.09c-1.931-0.377-3.775-1.311-5.271-2.803l-3.252-3.245L199.192,403.885  L199.008,418.621z"/>
<path style="fill:#CCCCCC;" d="M504.785,108.288c0-1.077-0.422-2.091-1.186-2.855L427.495,29.51  c-8.126-8.106-18.931-12.57-30.424-12.57s-22.298,4.464-30.423,12.57L157.51,238.149c-1.588,1.584-1.589,4.155-0.003,5.741l0,0  c1.583,1.583,4.149,1.585,5.734,0.003L372.412,35.22c6.727-6.71,15.716-10.342,25.25-10.186c9.241,0.152,18.006,4.139,24.549,10.666  l75.623,75.443c0.77,0.767,1.793,1.19,2.883,1.19s2.113-0.423,2.882-1.19C504.364,110.379,504.785,109.366,504.785,108.288z"/>
<path style="fill:#FFA227;" d="M138.842,249.283L7.473,380.549c-9.975,9.967-9.962,26.113,0.029,36.064l7.903,7.872  c5.153,5.133,12.256,7.829,19.526,7.413l0,0c7.27-0.416,14.373,2.28,19.526,7.413l55.985,55.763  c7.984,7.953,20.919,7.942,28.891-0.023L198.9,435.53c3.562-3.559,5.59-8.364,5.653-13.393l0.872-69.654  c0.116-9.266-3.526-18.186-10.1-24.734l-11.8-11.753c-6.157-6.133-6.165-16.083-0.018-22.226l0,0  c4.362-4.359,4.357-11.421-0.013-15.773l-28.842-28.727C150.283,244.918,143.205,244.924,138.842,249.283z M160.295,347.535  l0.059,74.186c0.011,13.617-11.045,24.664-24.695,24.675l-13.834,0.011c-6.555,0.005-12.843-2.587-17.482-7.208L69.746,404.74  c-9.659-9.621-9.672-25.232-0.028-34.868l39.761-39.73c4.631-4.628,10.915-7.23,17.47-7.235l8.611-0.007  C149.21,322.888,160.284,333.918,160.295,347.535z"/>
<path style="fill:#F78B0B;" d="M198.9,435.53c3.562-3.559,5.59-8.364,5.653-13.393l0.872-69.654  c0.116-9.266-3.526-18.186-10.1-24.734l-11.8-11.753c-6.157-6.133-6.165-16.083-0.018-22.226l0,0  c4.363-4.359,4.357-11.421-0.013-15.773l-28.842-28.727c-4.37-4.352-11.448-4.347-15.811,0.013l-12.289,12.279l20.208,20.128  c2.247,2.239,2.249,5.871,0.003,8.112l0,0c-2.239,2.233-2.245,5.852-0.015,8.094l7.073,7.108l11.8,11.753  c6.574,6.547,10.216,15.467,10.1,24.733l-0.872,69.654c-0.063,5.029-2.091,9.834-5.653,13.393l-59.568,59.521  c-1.804,1.803-3.87,3.176-6.068,4.164l6.879,6.852c7.984,7.953,20.919,7.942,28.891-0.023L198.9,435.53z"/>
<g>
</g>
<g>
</g>
<g>
</g>
<g>
</g>
<g>
</g>
<g>
</g>
<g>
</g>
<g>
</g>
<g>
</g>
<g>
</g>
<g>
</g>
<g>
</g>
<g>
</g>
<g>
</g>
<g>
</g>
</svg>
