<?xml version="1.0" encoding="iso-8859-1"?>
<!-- Generator: Adobe Illustrator 19.0.0, SVG Export Plug-In . SVG Version: 6.00 Build 0)  -->
<svg xmlns="http://www.w3.org/2000/svg" xmlns:xlink="http://www.w3.org/1999/xlink" version="1.1" id="Layer_1" x="0px" y="0px" viewBox="0 0 512 512" style="enable-background:new 0 0 512 512;" xml:space="preserve">
<path style="fill:#B3B3B3;" d="M3.447,489.753l343.534-386.959l62.697,62.697L22.249,508.555  C9.743,519.408-7.406,502.258,3.447,489.753z"/>
<path style="fill:#999999;" d="M388.186,143.997L19.538,471.627L3.504,489.688l-0.057,0.065c-2.537,2.924-3.529,6.099-3.423,9.113  c0.022,0.612,0.074,1.219,0.184,1.814c0.145,0.783,0.363,1.549,0.647,2.289c0.426,1.11,0.999,2.162,1.693,3.13  c0.463,0.645,0.979,1.252,1.54,1.814c0.562,0.562,1.169,1.078,1.814,1.54c0.418,0.3,0.858,0.568,1.305,0.821  c0.452,0.255,0.918,0.483,1.395,0.685c0.648,0.275,1.317,0.498,2.002,0.666c0.457,0.112,0.921,0.198,1.39,0.259  c0.568,0.073,1.141,0.122,1.721,0.114c0.811-0.01,1.632-0.102,2.454-0.283s1.647-0.452,2.465-0.82  c0.482-0.217,0.96-0.478,1.435-0.764c0.736-0.443,1.465-0.959,2.177-1.577L409.678,165.49L388.186,143.997z"/>
<path style="fill:#686868;" d="M468.247,265.835L246.165,43.751c-6.222-6.222-6.222-16.31,0-22.532l16.553-16.553  c6.222-6.222,16.31-6.222,22.532,0l222.082,222.083c6.222,6.222,6.222,16.31,0,22.532l-16.553,16.553  C484.557,272.057,474.469,272.057,468.247,265.835z"/>
<path style="fill:#515151;" d="M507.332,226.749l-9.505-9.505l-39.085,39.085l9.505,9.505c6.222,6.222,16.31,6.222,22.532,0  l16.553-16.553C513.554,243.059,513.554,232.971,507.332,226.749z"/>
<g>
</g>
<g>
</g>
<g>
</g>
<g>
</g>
<g>
</g>
<g>
</g>
<g>
</g>
<g>
</g>
<g>
</g>
<g>
</g>
<g>
</g>
<g>
</g>
<g>
</g>
<g>
</g>
<g>
</g>
</svg>
