<?xml version="1.0" encoding="iso-8859-1"?>
<!-- Generator: Adobe Illustrator 19.0.0, SVG Export Plug-In . SVG Version: 6.00 Build 0)  -->
<svg xmlns="http://www.w3.org/2000/svg" xmlns:xlink="http://www.w3.org/1999/xlink" version="1.1" id="Layer_1" x="0px" y="0px" viewBox="0 0 512 512" style="enable-background:new 0 0 512 512;" xml:space="preserve">
<path style="fill:#FFA227;" d="M121.946,340.624L8.018,454.582c-10.691,10.694-10.691,28.032,0,38.726l10.612,10.615  c10.691,10.694,28.024,10.694,38.715,0l113.928-113.958L121.946,340.624z"/>
<path style="fill:#F78B0B;" d="M150.484,369.17L36.556,483.128c-8.929,8.932-22.49,10.397-32.946,4.409  c1.181,2.064,2.646,4.009,4.408,5.771l10.612,10.615c10.691,10.694,28.024,10.694,38.715,0l113.928-113.958L150.484,369.17z"/>
<path style="fill:#CCCCCC;" d="M454.822,2.796L228.344,96.078c-30.637,12.619-48.155,43.652-44.329,78.53l5.614,51.183  c5.417,49.381,47.332,91.307,96.699,96.725l51.169,5.616c34.868,3.827,65.893-13.696,78.508-44.341l93.256-226.54  C522.27,25.651,486.413-10.215,454.822,2.796z"/>
<path style="fill:#B3B3B3;" d="M511.99,43.049c-0.005-0.449-0.018-0.898-0.039-1.346c-0.008-0.17-0.015-0.34-0.026-0.509  c-0.034-0.558-0.078-1.114-0.137-1.669c-0.003-0.033-0.005-0.066-0.009-0.098c-0.065-0.596-0.147-1.19-0.239-1.781  c-0.023-0.145-0.049-0.289-0.073-0.434c-0.077-0.459-0.163-0.917-0.256-1.374c-0.031-0.151-0.061-0.302-0.094-0.452  c-0.122-0.561-0.253-1.12-0.399-1.675c-0.004-0.017-0.008-0.034-0.013-0.052c-0.156-0.591-0.329-1.178-0.511-1.762  c-0.036-0.113-0.074-0.226-0.11-0.339c-0.153-0.474-0.314-0.945-0.484-1.413c-0.045-0.125-0.09-0.25-0.137-0.374  c-0.429-1.149-0.906-2.281-1.432-3.393c-0.036-0.075-0.073-0.15-0.109-0.225c-0.235-0.489-0.479-0.973-0.732-1.454  c-0.048-0.091-0.095-0.181-0.143-0.271c-0.594-1.11-1.233-2.199-1.919-3.26c-0.021-0.033-0.043-0.065-0.064-0.097  c-0.323-0.498-0.657-0.99-1-1.476c-0.041-0.058-0.082-0.116-0.123-0.174c-1.119-1.572-2.336-3.08-3.639-4.509  c-0.026-0.029-0.052-0.058-0.079-0.086c-1.326-1.447-2.74-2.814-4.23-4.089c-0.011-0.009-0.022-0.019-0.033-0.028  c-1.506-1.285-3.089-2.477-4.737-3.561c0,0-0.002-0.001-0.003-0.002c-1.653-1.087-3.372-2.068-5.143-2.928  c-0.001,0-0.002-0.001-0.003-0.001c4.64,9.561,5.787,20.651,1.419,31.262l-93.256,226.54c-12.615,30.645-43.64,48.168-78.508,44.341  l-51.169-5.616c-19.498-2.14-37.822-9.992-53.205-21.733l0,0c17.98,23.572,45.103,40.227,74.972,43.505l51.169,5.616  c34.868,3.827,65.893-13.696,78.508-44.341l93.256-226.54c0.001-0.003,0.002-0.005,0.003-0.008c0.242-0.588,0.462-1.179,0.67-1.77  c0.063-0.178,0.121-0.356,0.181-0.534c0.147-0.437,0.284-0.874,0.413-1.312c0.053-0.179,0.107-0.359,0.157-0.538  c0.158-0.57,0.305-1.14,0.433-1.711c0.006-0.026,0.013-0.052,0.019-0.078c0.133-0.597,0.246-1.194,0.347-1.791  c0.03-0.175,0.055-0.349,0.082-0.524c0.069-0.443,0.129-0.885,0.181-1.327c0.021-0.179,0.043-0.357,0.061-0.536  c0.057-0.561,0.104-1.121,0.134-1.68c0.002-0.036,0.006-0.072,0.008-0.108c0.031-0.598,0.043-1.196,0.045-1.792  C511.996,43.377,511.992,43.213,511.99,43.049z"/>
<path style="fill:#808080;" d="M270.41,221.953l-74.117,30.527c3.196,8.08,7.371,15.755,12.358,22.863l-64.802,64.818l28.137,28.145  l64.802-64.818c7.107,4.989,14.78,9.164,22.858,12.362l30.519-74.137C294.886,230.247,281.874,217.231,270.41,221.953z"/>
<path style="fill:#666666;" d="M270.41,221.953l-1.685,0.694l-24.365,59.188c-3.095,7.518-12.089,10.709-19.159,6.698  c-0.123-0.07-0.246-0.14-0.369-0.21c-5.367-3.072-12.106-2.269-16.478,2.105l-57.113,57.127l20.746,20.752l64.802-64.818  c7.107,4.989,14.78,9.164,22.858,12.362l30.519-74.137C294.886,230.247,281.874,217.231,270.41,221.953z"/>
<path style="fill:#FFCC5A;" d="M171.82,400.419l-60.775-60.792c-2.358-2.358-2.358-6.182,0-8.54l14.669-14.673  c2.359-2.359,6.184-2.359,8.542,0l60.775,60.792c2.358,2.359,2.358,6.182,0,8.54l-14.669,14.673  C178.003,402.778,174.179,402.778,171.82,400.419z"/>
<path style="fill:#FFB000;" d="M155.529,384.123l16.292,16.297c2.358,2.359,6.182,2.359,8.54,0l14.669-14.673  c2.358-2.359,2.358-6.184,0-8.543l-16.292-16.297L155.529,384.123z"/>
<g>
</g>
<g>
</g>
<g>
</g>
<g>
</g>
<g>
</g>
<g>
</g>
<g>
</g>
<g>
</g>
<g>
</g>
<g>
</g>
<g>
</g>
<g>
</g>
<g>
</g>
<g>
</g>
<g>
</g>
</svg>
