<?xml version="1.0" encoding="iso-8859-1"?>
<!-- Generator: Adobe Illustrator 19.0.0, SVG Export Plug-In . SVG Version: 6.00 Build 0)  -->
<svg xmlns="http://www.w3.org/2000/svg" xmlns:xlink="http://www.w3.org/1999/xlink" version="1.1" id="Layer_1" x="0px" y="0px" viewBox="0 0 512 512" style="enable-background:new 0 0 512 512;" xml:space="preserve">
<path style="fill:#CCCCCC;" d="M274.524,383.553c27.133,8.015,46.99,33.173,46.99,62.884c0,36.152-29.389,65.563-65.513,65.563  s-65.513-29.411-65.513-65.563c0-10.232,8.299-18.527,18.523-18.527c10.234,0,18.523,8.296,18.523,18.527  c0,15.719,12.77,28.498,28.466,28.498s28.466-12.78,28.466-28.498c0-15.709-12.77-28.488-28.466-28.488  c-10.224,0-18.523-8.296-18.523-18.527v-64.234c1.504,0.582,3.027,1.093,4.551,1.525c1.534,0.451,3.067,0.823,4.611,1.113  c0.391,0.09,0.772,0.16,1.163,0.211c0.391,0.08,0.772,0.14,1.163,0.191c1.133,0.171,2.265,0.301,3.398,0.381  c0.06,0.01,0.12,0.01,0.19,0.01c0.361,0.03,0.722,0.05,1.093,0.07c0.321,0.02,0.652,0.03,0.982,0.04  c0.461,0.01,0.912,0.02,1.373,0.02c0.461,0,0.922-0.01,1.383-0.02c0.321-0.01,0.652-0.02,0.972-0.04  c0.371-0.02,0.732-0.04,1.093-0.07c0.07,0,0.13,0,0.19-0.01c1.133-0.08,2.265-0.211,3.398-0.381c0.391-0.05,0.772-0.11,1.163-0.191  c0.391-0.05,0.772-0.12,1.163-0.211c1.544-0.291,3.077-0.662,4.611-1.113c1.524-0.431,3.047-0.943,4.551-1.525L274.524,383.553  L274.524,383.553z"/>
<g>
	<path style="fill:#808080;" d="M176.672,97.509V7.273c0-4.017-3.256-7.273-7.273-7.273s-7.273,3.256-7.273,7.273v104.902   L176.672,97.509z"/>
	<path style="fill:#808080;" d="M349.876,112.175V7.273c0-4.017-3.256-7.273-7.273-7.273s-7.273,3.256-7.273,7.273v90.235   C338.032,99.772,349.876,112.175,349.876,112.175z"/>
</g>
<path style="fill:#FFA227;" d="M343.074,90.618c18.373,18.557,29.529,43.023,29.529,69.836c0,52.332-42.479,163.485-98.079,184.741  v-0.01c-1.504,0.582-3.027,1.083-4.551,1.535c-1.534,0.441-3.067,0.813-4.611,1.113c-0.381,0.08-0.772,0.15-1.163,0.211  c-0.381,0.07-0.772,0.13-1.163,0.191c-1.123,0.16-2.255,0.291-3.398,0.381c-0.06,0.01-0.12,0.01-0.19,0.01  c-0.361,0.03-0.722,0.05-1.093,0.07c-0.321,0.02-0.652,0.03-0.972,0.04c-0.461,0.01-0.922,0.02-1.383,0.02s-0.922-0.01-1.373-0.02  c-0.331-0.01-0.662-0.02-0.982-0.04c-0.371-0.02-0.732-0.04-1.093-0.07c-0.07,0-0.13,0-0.19-0.01  c-1.143-0.09-2.275-0.221-3.398-0.381c-0.391-0.06-0.782-0.12-1.163-0.191c-0.391-0.06-0.782-0.13-1.163-0.211  c-1.544-0.301-3.077-0.672-4.611-1.113c-1.524-0.451-3.047-0.953-4.551-1.535v0.01c-55.6-21.256-98.079-132.409-98.079-184.741  c0-26.813,11.156-51.278,29.529-69.836c21.34-21.597,52.442-35.189,87.073-35.189S321.734,69.021,343.074,90.618z M326.415,170.174  c0-38.92-31.524-70.478-70.414-70.478c-38.901,0-70.424,31.558-70.424,70.478s31.524,70.478,70.424,70.478  C294.892,240.652,326.415,209.094,326.415,170.174z"/>
<path style="fill:#F78B0B;" d="M343.074,90.618c-21.339-21.597-52.442-35.189-87.073-35.189c-4.988,0-9.899,0.291-14.722,0.838  c28.663,3.252,54.085,15.864,72.351,34.351c18.373,18.557,29.529,43.023,29.529,69.836c0,52.332-42.479,163.485-98.079,184.741  v-0.01c-1.257,0.486-2.528,0.907-3.801,1.299c0.25,0.077,0.499,0.162,0.749,0.236c1.534,0.441,3.067,0.813,4.611,1.113  c0.381,0.08,0.772,0.15,1.163,0.211c0.381,0.07,0.772,0.13,1.163,0.191c1.123,0.16,2.255,0.291,3.398,0.381  c0.06,0.01,0.12,0.01,0.19,0.01c0.361,0.03,0.722,0.05,1.093,0.07c0.321,0.02,0.651,0.03,0.982,0.04  c0.451,0.01,0.912,0.02,1.373,0.02c0.461,0,0.922-0.01,1.383-0.02c0.321-0.01,0.652-0.02,0.972-0.04  c0.371-0.02,0.732-0.04,1.093-0.07c0.07,0,0.13,0,0.19-0.01c1.143-0.09,2.275-0.221,3.398-0.381c0.391-0.06,0.782-0.12,1.163-0.191  c0.391-0.06,0.782-0.13,1.163-0.211c1.544-0.301,3.077-0.672,4.611-1.113c1.524-0.451,3.047-0.953,4.551-1.535v0.01  c55.6-21.256,98.079-132.409,98.079-184.741C372.603,133.641,361.447,109.175,343.074,90.618z"/>
<path style="fill:#FF395A;" d="M256.001,99.696c38.891,0,70.414,31.558,70.414,70.478s-31.523,70.478-70.414,70.478  c-38.901,0-70.424-31.558-70.424-70.478S217.1,99.696,256.001,99.696z"/>
<path style="fill:#D81942;" d="M256.001,99.696c-5.088,0-10.046,0.552-14.828,1.578c31.769,6.816,55.59,35.07,55.59,68.9  s-23.821,62.083-55.59,68.9c4.782,1.026,9.74,1.578,14.828,1.578c38.891,0,70.414-31.558,70.414-70.478  S294.892,99.696,256.001,99.696z"/>
<g>
	<path style="fill:#999999;" d="M274.524,345.185v0.01c-1.504,0.582-3.027,1.093-4.551,1.525   C271.497,346.268,273.021,345.766,274.524,345.185z"/>
	<path style="fill:#999999;" d="M265.363,347.833c1.544-0.301,3.077-0.672,4.611-1.113   C268.44,347.171,266.906,347.542,265.363,347.833z"/>
	<path style="fill:#999999;" d="M264.2,348.043c0.391-0.06,0.782-0.13,1.163-0.211C264.972,347.923,264.591,347.993,264.2,348.043z"/>
	<path style="fill:#999999;" d="M263.037,348.234c0.391-0.06,0.782-0.12,1.163-0.191   C263.809,348.124,263.428,348.184,263.037,348.234z"/>
	<path style="fill:#999999;" d="M259.639,348.615c1.143-0.09,2.275-0.221,3.398-0.381   C261.905,348.405,260.772,348.535,259.639,348.615z"/>
	<path style="fill:#999999;" d="M258.356,348.695c0.371-0.02,0.732-0.04,1.093-0.07   C259.088,348.655,258.727,348.675,258.356,348.695z"/>
	<path style="fill:#999999;" d="M252.553,348.625c0.361,0.03,0.722,0.05,1.093,0.07   C253.275,348.675,252.914,348.655,252.553,348.625z"/>
	<path style="fill:#999999;" d="M248.965,348.234c1.123,0.16,2.255,0.291,3.398,0.381   C251.23,348.535,250.097,348.405,248.965,348.234z"/>
	<path style="fill:#999999;" d="M247.802,348.043c0.381,0.07,0.772,0.13,1.163,0.191   C248.574,348.184,248.193,348.124,247.802,348.043z"/>
	<path style="fill:#999999;" d="M246.639,347.833c0.381,0.08,0.772,0.15,1.163,0.211   C247.411,347.993,247.03,347.923,246.639,347.833z"/>
	<path style="fill:#999999;" d="M242.028,346.719c1.534,0.441,3.067,0.813,4.611,1.113   C245.096,347.542,243.562,347.171,242.028,346.719z"/>
	<path style="fill:#999999;" d="M237.478,345.185c1.504,0.582,3.027,1.083,4.551,1.535c-1.524-0.431-3.047-0.943-4.551-1.525   V345.185z"/>
</g>
<g>
</g>
<g>
</g>
<g>
</g>
<g>
</g>
<g>
</g>
<g>
</g>
<g>
</g>
<g>
</g>
<g>
</g>
<g>
</g>
<g>
</g>
<g>
</g>
<g>
</g>
<g>
</g>
<g>
</g>
</svg>
