<?xml version="1.0" encoding="iso-8859-1"?>
<!-- Generator: Adobe Illustrator 19.0.0, SVG Export Plug-In . SVG Version: 6.00 Build 0)  -->
<svg xmlns="http://www.w3.org/2000/svg" xmlns:xlink="http://www.w3.org/1999/xlink" version="1.1" id="Layer_1" x="0px" y="0px" viewBox="0 0 512 512" style="enable-background:new 0 0 512 512;" xml:space="preserve">
<path style="fill:#CCCCCC;" d="M508.925,40.896l-18.446-23.833c-6.266-8.095-17.908-9.579-26.003-3.313L155.353,253.002l0,0  c0.26,0.184,0.512,0.382,0.759,0.59c0.086,0.073,0.169,0.149,0.254,0.225c0.178,0.159,0.352,0.324,0.521,0.496  c0.076,0.077,0.152,0.153,0.226,0.232c0.234,0.251,0.461,0.51,0.675,0.786l0,0l25.274,32.655c1.915,2.474,2.645,5.489,2.279,8.365  c-0.366,2.876-1.83,5.612-4.303,7.526l0,0c-1.743,1.349-3.13,2.987-4.146,4.794c-0.508,0.904-0.923,1.85-1.243,2.823  c-0.16,0.487-0.297,0.98-0.409,1.479c-0.225,0.997-0.355,2.014-0.387,3.035s0.034,2.048,0.199,3.064  c0.413,2.54,1.447,5.017,3.133,7.196l5.17,6.68l5.17,6.68c1.08,1.396,2.046,2.862,2.894,4.385c2.826,5.076,4.339,10.781,4.401,16.59  c0.012,1.162-0.033,2.328-0.138,3.494c-0.052,0.583-0.12,1.166-0.202,1.748l-9.873,70.053c-0.005,0.033-0.009,0.065-0.014,0.098  c-0.255,1.744,1.855,2.787,3.043,1.485l15.883-17.408L508.54,59.368C513.005,54.071,513.165,46.375,508.925,40.896z"/>
<path style="fill:#F78B0B;" d="M205.65,336.483l-10.341-13.36c-5.395-6.971-4.118-16.996,2.853-22.391l0,0  c4.947-3.829,5.854-10.943,2.025-15.891l-25.274-32.655c-3.829-4.947-10.943-5.854-15.891-2.025l-14.76,11.424l14.081,18.193  c3.829,4.947,2.922,12.062-2.025,15.891l0,0c-6.971,5.395-8.248,15.42-2.853,22.391l10.341,13.36  c5.76,7.443,8.269,16.897,6.955,26.217l-9.873,70.053c-0.713,5.057-3.372,9.637-7.411,12.763l-60.202,46.594l5.458,7.051  c6.997,9.04,19.997,10.696,29.037,3.699l67.551-52.282c4.039-3.126,6.698-7.705,7.411-12.763l9.873-70.053  C213.919,353.38,211.411,343.926,205.65,336.483z"/>
<path style="fill:#B3B3B3;" d="M511.844,47.751c-0.357-2.435-1.329-4.801-2.919-6.856l-11.596-14.982L192.367,387.946l-6.758,47.952  c-0.005,0.033-0.009,0.065-0.014,0.098c-0.255,1.744,1.855,2.787,3.043,1.485l15.883-17.408l304.02-360.705l0.001-0.001  c0.497-0.59,0.932-1.213,1.322-1.856C511.663,54.546,512.333,51.087,511.844,47.751z"/>
<path style="fill:#FFA227;" d="M159.023,250.162L10.048,365.464c-11.311,8.755-13.384,25.022-4.629,36.333l6.926,8.948  c4.516,5.834,11.305,9.466,18.665,9.983l0,0c7.36,0.517,14.149,4.149,18.665,9.983l49.06,63.387  c6.997,9.04,19.997,10.696,29.037,3.699l67.551-52.283c4.039-3.126,6.698-7.705,7.411-12.763l9.873-70.053  c1.314-9.319-1.195-18.774-6.955-26.217l-10.341-13.36c-5.395-6.971-4.118-16.996,2.853-22.391l0,0  c4.947-3.829,5.854-10.943,2.025-15.891l-25.274-32.655C171.084,247.239,163.97,246.333,159.023,250.162z M167.891,351.9  l-9.523,74.739c-1.748,13.718-14.286,23.422-28.004,21.674l-13.903-1.771c-6.588-0.839-12.572-4.261-16.637-9.513l-30.318-39.172  c-8.464-10.936-6.461-26.664,4.476-35.128l45.09-34.898c5.252-4.065,11.903-5.877,18.491-5.037l8.655,1.103  C159.935,325.644,169.639,338.181,167.891,351.9z"/>
<path style="fill:#F78B0B;" d="M205.65,336.483l-10.341-13.36c-5.395-6.971-4.118-16.996,2.853-22.391l0,0  c4.947-3.829,5.854-10.943,2.025-15.891l-25.274-32.655c-3.829-4.947-10.943-5.854-15.891-2.025l-14.76,11.424l14.081,18.193  c3.829,4.947,2.922,12.062-2.025,15.891l0,0c-6.971,5.395-8.248,15.42-2.853,22.391l10.341,13.36  c5.76,7.443,8.269,16.897,6.955,26.217l-9.873,70.053c-0.713,5.057-3.372,9.637-7.411,12.763l-60.202,46.594l5.458,7.051  c6.997,9.04,19.997,10.696,29.037,3.699l67.551-52.282c4.039-3.126,6.698-7.705,7.411-12.763l9.873-70.053  C213.919,353.38,211.411,343.926,205.65,336.483z"/>
<g>
</g>
<g>
</g>
<g>
</g>
<g>
</g>
<g>
</g>
<g>
</g>
<g>
</g>
<g>
</g>
<g>
</g>
<g>
</g>
<g>
</g>
<g>
</g>
<g>
</g>
<g>
</g>
<g>
</g>
</svg>
