<?xml version="1.0" encoding="iso-8859-1"?>
<!-- Generator: Adobe Illustrator 19.0.0, SVG Export Plug-In . SVG Version: 6.00 Build 0)  -->
<svg xmlns="http://www.w3.org/2000/svg" xmlns:xlink="http://www.w3.org/1999/xlink" version="1.1" id="Layer_1" x="0px" y="0px" viewBox="0 0 512.001 512.001" style="enable-background:new 0 0 512.001 512.001;" xml:space="preserve">
<polygon style="fill:#CCCCCC;" points="408,203.529 143.802,203.529 143.802,50.46 40.099,50.46 40.099,461.54 143.802,461.54   143.802,307.854 408,307.854 "/>
<polygon style="fill:#B3B3B3;" points="143.802,277.704 143.802,50.462 113.975,50.462 113.975,461.54 143.802,461.54   143.802,307.849 408,307.849 408,277.704 "/>
<path style="fill:#FFCC5A;" d="M22.676,50.792V8.677c0-4.791,3.884-8.676,8.676-8.676h118.895c4.791,0,8.676,3.884,8.676,8.676  v42.115c0,4.791-3.884,8.676-8.676,8.676H31.352C26.56,59.467,22.676,55.583,22.676,50.792z"/>
<path style="fill:#B3B3B3;" d="M22.676,503.324V461.21c0-4.791,3.884-8.676,8.676-8.676h118.896c4.791,0,8.676,3.884,8.676,8.676  v42.115c0,4.791-3.884,8.676-8.676,8.676H31.352C26.56,512,22.676,508.116,22.676,503.324z"/>
<path style="fill:#FFCC5A;" d="M22.676,503.324V461.21c0-4.791,3.884-8.676,8.676-8.676h118.896c4.791,0,8.676,3.884,8.676,8.676  v42.115c0,4.791-3.884,8.676-8.676,8.676H31.352C26.56,512,22.676,508.116,22.676,503.324z"/>
<path style="fill:#FFA227;" d="M204.279,190.888h-42.037c-3.474,0-6.29-2.833-6.29-6.328v-24.52c0-4.134-3.331-7.485-7.44-7.485  H34.557c-4.109,0-7.44,3.351-7.44,7.485v191.304c0,4.134,3.331,7.485,7.44,7.485h113.954c4.109,0,7.44-3.351,7.44-7.485v-24.521  c0-3.495,2.816-6.328,6.29-6.328h42.037c4.109,0,7.44-3.351,7.44-7.485V198.373C211.719,194.239,208.388,190.888,204.279,190.888z"/>
<path style="fill:#F78B0B;" d="M204.279,190.888h-22.525v91.977c0,4.134-3.331,7.485-7.44,7.485h-42.037  c-3.474,0-6.29,2.833-6.29,6.328v24.521c0,4.134-3.331,7.485-7.44,7.485H27.116v22.66c0,4.134,3.331,7.485,7.44,7.485H148.51  c4.109,0,7.44-3.351,7.44-7.485v-24.521c0-3.495,2.816-6.328,6.29-6.328h42.037c4.109,0,7.44-3.351,7.44-7.485V198.373  C211.719,194.239,208.388,190.888,204.279,190.888z"/>
<path style="fill:#FFCC5A;" d="M427.549,174.246v10.848c0,1.628-1.319,2.947-2.947,2.947h-20.286c-3.492,0-6.323,2.848-6.323,6.361  v122.581c0,3.513,2.831,6.361,6.323,6.361h20.286c1.628,0,2.947,1.319,2.947,2.947v10.848c0,3.513,2.831,6.361,6.323,6.361h49.129  c3.492,0,6.323-2.848,6.323-6.361V174.246c0-3.513-2.831-6.361-6.323-6.361h-49.129C430.38,167.885,427.549,170.733,427.549,174.246  z"/>
<g>
	<path style="fill:#FFB000;" d="M483.001,167.885h-23.643v175.612h23.643c3.492,0,6.323-2.848,6.323-6.361v-162.89   C489.324,170.733,486.493,167.885,483.001,167.885z"/>
	<path style="fill:#FFB000;" d="M150.273,452.534h-21.315V512h21.315c4.777,0,8.65-3.896,8.65-8.702v-42.063   C158.923,456.43,155.05,452.534,150.273,452.534z"/>
	<path style="fill:#FFB000;" d="M150.273,0h-21.315v59.466h21.315c4.777,0,8.65-3.896,8.65-8.702V8.702   C158.923,3.896,155.05,0,150.273,0z"/>
</g>
<g>
</g>
<g>
</g>
<g>
</g>
<g>
</g>
<g>
</g>
<g>
</g>
<g>
</g>
<g>
</g>
<g>
</g>
<g>
</g>
<g>
</g>
<g>
</g>
<g>
</g>
<g>
</g>
<g>
</g>
</svg>
