<?xml version="1.0" encoding="iso-8859-1"?>
<!-- Generator: Adobe Illustrator 19.0.0, SVG Export Plug-In . SVG Version: 6.00 Build 0)  -->
<svg xmlns="http://www.w3.org/2000/svg" xmlns:xlink="http://www.w3.org/1999/xlink" version="1.1" id="Layer_1" x="0px" y="0px" viewBox="0 0 512 512" style="enable-background:new 0 0 512 512;" xml:space="preserve">
<path style="fill:#FFA227;" d="M80.022,118.21h74.668c2.978,0,5.392-2.414,5.392-5.392v-59.83c0-2.978-2.414-5.392-5.392-5.392  H5.437c-2.978,0-5.392,2.414-5.392,5.392v59.83c0,2.978,2.414,5.392,5.392,5.392H80.022z"/>
<g>
	<path style="fill:#C7AC91;" d="M330.669,47.595H181.415c-2.978,0-5.392,2.414-5.392,5.392v59.83c0,2.978,2.414,5.392,5.392,5.392   H256h74.669c2.978,0,5.392-2.414,5.392-5.392v-59.83C336.061,50.009,333.647,47.595,330.669,47.595z"/>
	<path style="fill:#C7AC91;" d="M72.055,199.367v-59.83c0-2.978-2.414-5.392-5.392-5.392H5.392c-2.978,0-5.392,2.414-5.392,5.392   v59.83c0,2.978,2.414,5.392,5.392,5.392h61.271C69.641,204.759,72.055,202.345,72.055,199.367z"/>
</g>
<path style="fill:#FFA227;" d="M248.033,199.367v-59.83c0-2.978-2.414-5.392-5.392-5.392h-74.585h-0.006H93.382  c-2.978,0-5.392,2.414-5.392,5.392v59.83c0,2.978,2.414,5.392,5.392,5.392h74.668h0.006h74.585  C245.619,204.759,248.033,202.345,248.033,199.367z"/>
<path style="fill:#C7AC91;" d="M424.011,199.367v-59.83c0-2.978-2.414-5.392-5.392-5.392h-74.591h-74.669  c-2.978,0-5.392,2.414-5.392,5.392v59.83c0,2.978,2.414,5.392,5.392,5.392h74.629h0.039h74.591  C421.597,204.759,424.011,202.345,424.011,199.367z"/>
<path style="fill:#FFA227;" d="M0.044,285.915c0,2.978,2.414,5.392,5.392,5.392h74.586h0.005h74.663  c2.978,0,5.392-2.414,5.392-5.392v-59.83c0-2.978-2.414-5.392-5.392-5.392H80.022H5.437c-2.978,0-5.392,2.414-5.392,5.392  L0.044,285.915L0.044,285.915z"/>
<path style="fill:#C7AC91;" d="M176.022,285.915c0,2.978,2.414,5.392,5.392,5.392H256h0.005h74.624c2.978,0,5.392-2.414,5.392-5.392  v-59.83c0-2.978-2.414-5.392-5.392-5.392H256h-74.585c-2.978,0-5.392,2.414-5.392,5.392v59.83H176.022z"/>
<path style="fill:#FFA227;" d="M512,226.085c0-2.978-2.414-5.392-5.392-5.392h-74.629h-74.591c-2.978,0-5.392,2.414-5.392,5.392  v59.83c0,2.978,2.414,5.392,5.392,5.392h74.591h74.629c2.978,0,5.392-2.414,5.392-5.392V226.085z"/>
<path style="fill:#C7AC91;" d="M72.055,372.464v-59.83c0-2.978-2.414-5.392-5.392-5.392H5.392c-2.978,0-5.392,2.414-5.392,5.392  v59.83c0,2.978,2.414,5.392,5.392,5.392h61.271C69.641,377.857,72.055,375.442,72.055,372.464z"/>
<path style="fill:#FFA227;" d="M87.994,312.634v59.83c0,2.978,2.414,5.392,5.392,5.392h74.663h0.006h74.585  c2.978,0,5.392-2.414,5.392-5.392v-59.83c0-2.978-2.414-5.392-5.392-5.392h-74.585h-0.006H93.387  C90.409,307.241,87.994,309.656,87.994,312.634z"/>
<path style="fill:#C7AC91;" d="M263.972,312.634v59.83c0,2.978,2.414,5.392,5.392,5.392h74.624h0.039h74.591  c2.978,0,5.392-2.414,5.392-5.392v-59.83c0-2.978-2.414-5.392-5.392-5.392h-74.591h-0.039h-74.624  C266.386,307.241,263.972,309.656,263.972,312.634z"/>
<path style="fill:#FFA227;" d="M0.044,399.183v59.83c0,2.978,2.414,5.392,5.392,5.392H154.69c2.978,0,5.392-2.414,5.392-5.392  v-59.83c0-2.978-2.414-5.392-5.392-5.392H80.027h-0.005H5.437C2.458,393.79,0.044,396.204,0.044,399.183z"/>
<path style="fill:#C7AC91;" d="M176.022,399.183v59.83c0,2.978,2.414,5.392,5.392,5.392h149.215c2.978,0,5.392-2.414,5.392-5.392  v-59.83c0-2.978-2.414-5.392-5.392-5.392h-74.624H256h-74.585C178.437,393.79,176.022,396.204,176.022,399.183z"/>
<path style="fill:#FFA227;" d="M357.387,464.405h149.22c2.978,0,5.392-2.414,5.392-5.392v-59.83c0-2.978-2.414-5.392-5.392-5.392  h-74.629h-74.591c-2.978,0-5.392,2.414-5.392,5.392v59.83C351.995,461.991,354.409,464.405,357.387,464.405z"/>
<g>
	<path style="fill:#AF9177;" d="M335.884,287.094v-62.187c-0.539-2.41-2.682-4.214-5.254-4.214h-25.197v70.615h25.197   C333.202,291.308,335.345,289.503,335.884,287.094z"/>
	<path style="fill:#AF9177;" d="M330.669,47.595H305.61v70.615h25.059c2.978,0,5.392-2.414,5.392-5.392v-59.83   C336.061,50.009,333.647,47.595,330.669,47.595z"/>
</g>
<g>
	<path style="fill:#F78B0B;" d="M154.691,47.595h-25.058v70.615h25.058c2.978,0,5.392-2.414,5.392-5.392v-59.83   C160.083,50.009,157.669,47.595,154.691,47.595z"/>
	<path style="fill:#F78B0B;" d="M154.691,393.79h-25.058v70.615h25.058c2.978,0,5.392-2.414,5.392-5.392v-59.83   C160.083,396.204,157.669,393.79,154.691,393.79z"/>
	<path style="fill:#F78B0B;" d="M242.641,134.144h-25.058v70.615h25.058c2.978,0,5.392-2.414,5.392-5.392v-59.83   C248.033,136.558,245.619,134.144,242.641,134.144z"/>
	<path style="fill:#F78B0B;" d="M242.641,307.241h-25.058v70.615h25.058c2.978,0,5.392-2.414,5.392-5.392v-59.83   C248.033,309.656,245.619,307.241,242.641,307.241z"/>
	<path style="fill:#F78B0B;" d="M154.691,220.693h-25.058v70.615h25.058c2.978,0,5.392-2.414,5.392-5.392v-59.83   C160.083,223.107,157.669,220.693,154.691,220.693z"/>
	<path style="fill:#F78B0B;" d="M506.608,220.693h-25.059v70.615h25.059c2.978,0,5.392-2.414,5.392-5.392v-59.83   C512,223.107,509.586,220.693,506.608,220.693z"/>
	<path style="fill:#F78B0B;" d="M506.608,393.79h-25.059v70.615h25.059c2.978,0,5.392-2.414,5.392-5.392v-59.83   C512,396.204,509.586,393.79,506.608,393.79z"/>
</g>
<g>
	<path style="fill:#AF9177;" d="M418.619,134.144H393.56v70.615h25.059c2.978,0,5.392-2.414,5.392-5.392v-59.83   C424.011,136.558,421.597,134.144,418.619,134.144z"/>
	<path style="fill:#AF9177;" d="M418.619,307.241H393.56v70.615h25.059c2.978,0,5.392-2.414,5.392-5.392v-59.83   C424.011,309.656,421.597,307.241,418.619,307.241z"/>
	<path style="fill:#AF9177;" d="M66.663,307.241H41.605v70.615h25.058c2.978,0,5.392-2.414,5.392-5.392v-59.83   C72.055,309.656,69.641,307.241,66.663,307.241z"/>
	<path style="fill:#AF9177;" d="M66.663,134.144H41.605v70.615h25.058c2.978,0,5.392-2.414,5.392-5.392v-59.83   C72.055,136.558,69.641,134.144,66.663,134.144z"/>
	<path style="fill:#AF9177;" d="M330.629,393.79H305.57v70.615h25.059c2.978,0,5.392-2.414,5.392-5.392v-59.83   C336.022,396.204,333.607,393.79,330.629,393.79z"/>
</g>
<g>
</g>
<g>
</g>
<g>
</g>
<g>
</g>
<g>
</g>
<g>
</g>
<g>
</g>
<g>
</g>
<g>
</g>
<g>
</g>
<g>
</g>
<g>
</g>
<g>
</g>
<g>
</g>
<g>
</g>
</svg>
