<?xml version="1.0" encoding="iso-8859-1"?>
<!-- Generator: Adobe Illustrator 19.0.0, SVG Export Plug-In . SVG Version: 6.00 Build 0)  -->
<svg xmlns="http://www.w3.org/2000/svg" xmlns:xlink="http://www.w3.org/1999/xlink" version="1.1" id="Layer_1" x="0px" y="0px" viewBox="0 0 512.001 512.001" style="enable-background:new 0 0 512.001 512.001;" xml:space="preserve">
<path style="fill:#FFA227;" d="M1.167,465.899l247.37-428.415c3.317-5.745,11.61-5.745,14.927,0l247.369,428.415  c3.317,5.745-0.829,12.926-7.463,12.926H8.631C1.997,478.825-2.15,471.644,1.167,465.899z"/>
<path style="fill:#F78B0B;" d="M510.833,465.899L263.463,37.484c-3.317-5.745-11.61-5.745-14.927,0l-8.979,15.551l245.854,425.79  h17.958C510.003,478.825,514.15,471.644,510.833,465.899z"/>
<path style="fill:#FFCC5A;" d="M63.446,429.945l185.09-320.555c3.317-5.745,11.61-5.745,14.927,0l185.09,320.555  c3.317,5.745-0.829,12.926-7.463,12.926H70.91C64.275,442.871,60.129,435.69,63.446,429.945z"/>
<path style="fill:#FFB000;" d="M448.554,429.945L263.464,109.39c-3.317-5.745-11.61-5.745-14.927,0L238.6,126.6l183.175,316.271  h19.315C447.725,442.871,451.871,435.69,448.554,429.945z"/>
<g>
	<path style="fill:#FFFFFF;" d="M256,376.521c13.023,0,21.339,9.404,21.339,22.427c0,12.647-8.316,22.417-21.339,22.417h-0.366   c-12.291,0-20.973-9.77-20.973-22.417C234.661,385.924,243.699,376.521,256,376.521z"/>
	<path style="fill:#FFFFFF;" d="M269.337,179.091c2.197,0,3.964,1.82,3.902,4.006l-4.822,165.797   c-0.063,2.113-1.789,3.787-3.902,3.787h-17.03c-2.113,0-3.839-1.674-3.902-3.787l-4.822-165.797   c-0.063-2.186,1.705-4.006,3.902-4.006L269.337,179.091L269.337,179.091z"/>
</g>
<g>
</g>
<g>
</g>
<g>
</g>
<g>
</g>
<g>
</g>
<g>
</g>
<g>
</g>
<g>
</g>
<g>
</g>
<g>
</g>
<g>
</g>
<g>
</g>
<g>
</g>
<g>
</g>
<g>
</g>
</svg>
