<?xml version="1.0" encoding="iso-8859-1"?>
<!-- Generator: Adobe Illustrator 19.0.0, SVG Export Plug-In . SVG Version: 6.00 Build 0)  -->
<svg xmlns="http://www.w3.org/2000/svg" xmlns:xlink="http://www.w3.org/1999/xlink" version="1.1" id="Layer_1" x="0px" y="0px" viewBox="0 0 512.001 512.001" style="enable-background:new 0 0 512.001 512.001;" xml:space="preserve">
<path style="fill:#808080;" d="M261.666,229.219V185c-1.852,0.264-3.742,0.875-5.666,0.875c-1.924,0-3.814-0.403-5.666-0.667v44.01  h11.332V229.219z"/>
<g>
	<path style="fill:#686868;" d="M263.726,108.313V81.667h-15.453v33.618c0,4.267,3.459,7.726,7.726,7.726   c13.551,0,24.575,11.025,24.575,24.576c0,13.551-11.024,24.576-24.575,24.576s-24.576-11.025-24.576-24.576   c0-4.267-3.459-7.726-7.726-7.726s-7.726,3.459-7.726,7.726c0,22.072,17.957,40.029,40.029,40.029   c22.071,0,40.028-17.957,40.028-40.029C296.028,128.158,282.112,111.924,263.726,108.313z"/>
	<ellipse style="fill:#686868;" cx="256" cy="369.1" rx="142.87" ry="142.9"/>
</g>
<path style="fill:#515151;" d="M256,226.203c-4.967,0-9.875,0.255-14.711,0.75c71.994,7.366,128.16,68.196,128.16,142.149  s-56.166,134.783-128.16,142.149c4.836,0.495,9.744,0.75,14.711,0.75c78.906,0,142.871-63.978,142.871-142.899  S334.906,226.203,256,226.203z"/>
<path style="fill:#FFCC5A;" d="M202.329,29.422l9.21,50.751c0.663,3.182,3.467,5.463,6.717,5.463h75.488  c3.25,0,6.054-2.281,6.717-5.463l9.21-50.751C309.671,29.422,202.329,29.422,202.329,29.422z"/>
<path style="fill:#FFB000;" d="M280.249,29.422l-9.21,50.751c-0.663,3.182-3.467,5.463-6.717,5.463h29.422  c3.25,0,6.054-2.281,6.717-5.463l9.21-50.751C309.671,29.422,280.249,29.422,280.249,29.422z"/>
<path style="fill:#FFA227;" d="M329.244,0H182.756c-4.174,0-7.558,3.384-7.558,7.558v14.306c0,4.174,3.384,7.558,7.558,7.558  h146.487c4.174,0,7.558-3.384,7.558-7.558V7.558C336.801,3.384,333.418,0,329.244,0z"/>
<path style="fill:#F78B0B;" d="M329.244,0h-21.865v29.422h21.865c4.174,0,7.557-3.384,7.557-7.559V7.559  C336.801,3.384,333.418,0,329.244,0z"/>
<path style="fill:#7A7A7A;" d="M244.92,356.414c-16.131,30.799-48.276,45.775-71.799,33.451  c-23.522-12.325-29.514-47.283-13.383-78.082s48.276-45.775,71.799-33.451C255.059,290.657,261.051,325.616,244.92,356.414z"/>
<g>
</g>
<g>
</g>
<g>
</g>
<g>
</g>
<g>
</g>
<g>
</g>
<g>
</g>
<g>
</g>
<g>
</g>
<g>
</g>
<g>
</g>
<g>
</g>
<g>
</g>
<g>
</g>
<g>
</g>
</svg>
