<?xml version="1.0" encoding="iso-8859-1"?>
<!-- Generator: Adobe Illustrator 19.0.0, SVG Export Plug-In . SVG Version: 6.00 Build 0)  -->
<svg xmlns="http://www.w3.org/2000/svg" xmlns:xlink="http://www.w3.org/1999/xlink" version="1.1" id="Layer_1" x="0px" y="0px" viewBox="0 0 512.001 512.001" style="enable-background:new 0 0 512.001 512.001;" xml:space="preserve">
<path style="fill:#808080;" d="M260.636,278.761v-40.386c-1.523,0.165-3.069,0.75-4.636,0.75s-3.112-0.585-4.636-0.75v40.386  l-145.501,85.972l14.471,2.183L256,286.79l135.75,80.126l14.387-2.183L260.636,278.761z"/>
<path style="fill:#686868;" d="M263.726,157.328v-35.162h-15.453v42.212c0,4.301,3.527,7.673,7.828,7.689  c14.962,0.055,27.121,12.23,27.149,27.199c0.027,14.592-11.769,26.817-26.353,27.288c-15.38,0.497-28.059-11.825-28.148-27.075  c-0.021-3.555-2.33-6.809-5.784-7.651c-5.108-1.245-9.67,2.589-9.67,7.489c0,25.163,21.878,45.313,47.611,42.428  c19.489-2.185,35.15-17.714,37.482-37.186C301.164,181.382,285.236,161.277,263.726,157.328z"/>
<path style="fill:#CCCCCC;" d="M501.166,480.4H10.834C4.85,480.4,0,475.549,0,469.566v-93.999c0-5.983,4.85-10.834,10.834-10.834  h490.333c5.983,0,10.834,4.85,10.834,10.834v93.999C512,475.549,507.15,480.4,501.166,480.4z"/>
<path style="fill:#FFCC5A;" d="M197.091,65.096l10.319,56.863c0.724,3.478,3.789,5.97,7.34,5.97h82.499  c3.552,0,6.616-2.492,7.34-5.97l10.319-56.863H197.091z"/>
<path style="fill:#FFB000;" d="M285.214,65.096l-10.319,56.863c-0.724,3.478-3.789,5.97-7.34,5.97h29.696  c3.552,0,6.616-2.492,7.341-5.97l10.319-56.863H285.214z"/>
<path style="fill:#FFA227;" d="M325.025,31.6h-138.05c-5.321,0-9.635,4.314-9.635,9.635v14.226c0,5.321,4.314,9.635,9.635,9.635  h138.049c5.321,0,9.635-4.314,9.635-9.635V41.235C334.66,35.914,330.346,31.6,325.025,31.6z"/>
<path style="fill:#F78B0B;" d="M325.026,31.6h-20.062v33.496h20.062c5.321,0,9.634-4.314,9.634-9.636V41.236  C334.66,35.914,330.346,31.6,325.026,31.6z"/>
<path style="fill:#B7B6B3;" d="M482.304,480.4h18.862c5.983,0,10.834-4.85,10.834-10.834v-93.999c0-5.983-4.85-10.834-10.834-10.834  h-18.862L482.304,480.4L482.304,480.4z"/>
<g>
	<path style="fill:#999999;" d="M512,390.206H0v-14.639c0-5.983,4.85-10.834,10.834-10.834h490.333   c5.983,0,10.834,4.85,10.834,10.834L512,390.206L512,390.206z"/>
	<path style="fill:#999999;" d="M501.166,480.4H10.834C4.85,480.4,0,475.549,0,469.566v-14.639h512v14.639   C512,475.549,507.15,480.4,501.166,480.4z"/>
</g>
<g>
	<path style="fill:#808080;" d="M482.304,364.733v25.473H512v-14.639c0-5.983-4.85-10.834-10.834-10.834L482.304,364.733   L482.304,364.733z"/>
	<path style="fill:#808080;" d="M482.304,480.4h18.862c5.983,0,10.834-4.85,10.834-10.834v-14.639h-29.696L482.304,480.4   L482.304,480.4z"/>
</g>
<path style="fill:#E6E6E6;" d="M459.38,434.637H45.714c-6.103,0-11.051-4.948-11.051-11.051v-0.002  c0-6.103,4.948-11.051,11.051-11.051H459.38c6.103,0,11.051,4.948,11.051,11.051v0.002  C470.431,429.69,465.483,434.637,459.38,434.637z"/>
<g>
</g>
<g>
</g>
<g>
</g>
<g>
</g>
<g>
</g>
<g>
</g>
<g>
</g>
<g>
</g>
<g>
</g>
<g>
</g>
<g>
</g>
<g>
</g>
<g>
</g>
<g>
</g>
<g>
</g>
</svg>
