<?xml version="1.0" encoding="iso-8859-1"?>
<!-- Generator: Adobe Illustrator 19.0.0, SVG Export Plug-In . SVG Version: 6.00 Build 0)  -->
<svg xmlns="http://www.w3.org/2000/svg" xmlns:xlink="http://www.w3.org/1999/xlink" version="1.1" id="Layer_1" x="0px" y="0px" viewBox="0 0 512 512" style="enable-background:new 0 0 512 512;" xml:space="preserve">
<path style="fill:#F2E2D3;" d="M137.959,165.381l-7.525,8.893l203.904,203.904l8.863-7.193l160.825-132.614  c5.332-4.397,5.721-12.441,0.837-17.333L287.641,3.432c-4.883-4.892-12.913-4.503-17.302,0.839L137.959,165.381z"/>
<path style="fill:#D8C4B4;" d="M322.133,349.88l-8.803,7.29l21.008,21.008l8.863-7.193l160.825-132.614  c0.667-0.55,1.256-1.156,1.767-1.807c0.767-0.975,1.359-2.049,1.773-3.177c0.276-0.752,0.474-1.527,0.592-2.313  c0.118-0.786,0.156-1.582,0.115-2.376c-0.063-1.19-0.305-2.375-0.73-3.508c-0.567-1.511-1.458-2.931-2.679-4.154l-0.064-0.064  l-21.004-21.041c4.884,4.892,4.495,12.936-0.837,17.333L322.133,349.88z"/>
<path style="fill:#FFCC5A;" d="M125.519,181.38l-7.267,7.267c-14.482,16.185-21.628,37.748-19.574,59.515  c1.708,18.107,9.667,35.05,22.505,47.91l25.926,25.972L17.359,439.646c-17.588,15.941-18.272,43.384-1.501,60.185  c16.755,16.784,44.118,16.119,60.04-1.46l117.608-129.846l19.232,19.266c12.838,12.86,29.751,20.833,47.825,22.544  c21.729,2.058,43.253-5.101,59.41-19.609l7.446-7.445L125.519,181.38z M47.356,484.643c-9.207,0-16.67-7.477-16.67-16.699  c0-9.223,7.463-16.699,16.67-16.699s16.67,7.477,16.67,16.699C64.026,477.166,56.563,484.643,47.356,484.643z"/>
<path style="fill:#FFB000;" d="M306.659,362.521c-4.427,3.72-8.053,6.8-8.053,6.8c-15.353,7.374-28.368,6.377-38.042,5.461  c-18.075-1.711-34.988-9.684-47.825-22.544l-6.17-6.181c-7.201-7.214-18.888-7.179-26.047,0.078L63.688,464.581l0,0  c0.019,0.092,0.025,0.188,0.043,0.28c0.019,0.104,0.03,0.212,0.048,0.316c0.128,0.769,0.207,1.555,0.227,2.356  c0.003,0.138,0.021,0.272,0.021,0.41l0,0l0,0c0,3.459-1.05,6.672-2.847,9.337c-0.599,0.888-1.281,1.716-2.036,2.471  c-0.377,0.378-0.772,0.737-1.184,1.078c-0.37,0.306-0.758,0.591-1.154,0.865c-0.117,0.081-0.238,0.157-0.357,0.236  c-0.299,0.195-0.604,0.381-0.915,0.557c-0.125,0.071-0.249,0.143-0.376,0.21c-0.428,0.228-0.863,0.443-1.312,0.633  c-0.997,0.422-2.044,0.751-3.129,0.973c-1.085,0.222-2.209,0.339-3.36,0.339l0,0l0,0c-0.41,0-0.811-0.032-1.214-0.061  c-0.129-0.01-0.262-0.007-0.391-0.02l0,0c-0.522-0.05-1.034-0.128-1.541-0.225c-0.001,0-0.003,0-0.004-0.001  c-0.001,0-0.003,0-0.004-0.001L23.167,505.66c0.639,0.402,1.287,0.784,1.942,1.147c0.017,0.009,0.034,0.018,0.051,0.028  c0.643,0.355,1.293,0.693,1.95,1.011c0.006,0.003,0.012,0.006,0.018,0.009c0.014,0.007,0.029,0.014,0.043,0.021  c0.659,0.318,1.324,0.618,1.995,0.899c0.013,0.006,0.027,0.011,0.041,0.017c0.683,0.286,1.373,0.552,2.067,0.8  c0.017,0.006,0.034,0.012,0.051,0.018c0.009,0.003,0.019,0.007,0.028,0.01c0.523,0.185,1.05,0.358,1.578,0.521  c0.064,0.02,0.127,0.039,0.191,0.058c0.521,0.158,1.045,0.307,1.571,0.444c0.052,0.014,0.105,0.026,0.157,0.04  c0.687,0.177,1.378,0.335,2.072,0.475c0.01,0.002,0.019,0.004,0.029,0.006c0.691,0.139,1.385,0.261,2.081,0.365  c0.005,0.001,0.009,0.001,0.014,0.002c1.404,0.209,2.817,0.346,4.232,0.411c0.115,0.005,0.229,0.013,0.344,0.017  c0.463,0.017,0.925,0.024,1.388,0.026c0.169,0.001,0.338,0.002,0.507,0c0.438-0.003,0.876-0.014,1.314-0.031  c0.193-0.008,0.387-0.018,0.58-0.028c0.427-0.023,0.853-0.049,1.279-0.085c0.194-0.016,0.387-0.038,0.581-0.057  c0.43-0.042,0.859-0.085,1.288-0.141c0.14-0.018,0.28-0.043,0.42-0.062c0.911-0.128,1.817-0.286,2.719-0.474  c0.033-0.007,0.067-0.013,0.1-0.02c0.108-0.023,0.218-0.041,0.326-0.065c0.354-0.078,0.706-0.169,1.059-0.256  c0.149-0.037,0.298-0.074,0.447-0.112c0.124-0.031,0.249-0.06,0.372-0.094c0.328-0.088,0.653-0.185,0.979-0.282  c0.296-0.088,0.592-0.176,0.887-0.271c0.31-0.099,0.618-0.203,0.925-0.31c0.144-0.05,0.286-0.103,0.429-0.155  c0.165-0.059,0.331-0.117,0.495-0.179c0.294-0.11,0.587-0.221,0.879-0.338c0.273-0.109,0.544-0.226,0.814-0.341  c0.05-0.022,0.101-0.042,0.152-0.063c0.272-0.117,0.544-0.231,0.813-0.354c0.37-0.169,0.736-0.348,1.102-0.528  c0.216-0.106,0.434-0.207,0.649-0.317c0.413-0.213,0.82-0.44,1.228-0.667c0.153-0.085,0.309-0.163,0.461-0.251  c0.168-0.096,0.331-0.202,0.498-0.3c0.401-0.238,0.801-0.479,1.196-0.732c0.214-0.137,0.424-0.281,0.635-0.423  c0.344-0.23,0.687-0.462,1.026-0.703c0.219-0.156,0.435-0.317,0.652-0.477c0.327-0.243,0.651-0.49,0.973-0.743  c0.212-0.167,0.422-0.335,0.631-0.507c0.233-0.192,0.462-0.391,0.692-0.588c0.089-0.076,0.179-0.15,0.267-0.227  c0.196-0.171,0.394-0.341,0.588-0.517c0.343-0.311,0.68-0.634,1.016-0.958c0.158-0.153,0.319-0.302,0.475-0.458  c0.487-0.487,0.966-0.986,1.433-1.502l117.608-129.846l19.232,19.266c0.917,0.919,1.861,1.806,2.819,2.674  c0.299,0.271,0.606,0.533,0.909,0.799c0.679,0.596,1.365,1.183,2.062,1.754c0.349,0.286,0.7,0.568,1.053,0.848  c0.707,0.559,1.424,1.102,2.148,1.635c0.323,0.237,0.642,0.48,0.968,0.712c2.09,1.489,4.249,2.871,6.469,4.144  c0.347,0.199,0.699,0.387,1.049,0.58c0.784,0.433,1.573,0.855,2.371,1.261c0.398,0.203,0.798,0.402,1.2,0.598  c0.804,0.392,1.616,0.767,2.433,1.131c0.365,0.163,0.728,0.331,1.095,0.488c1.174,0.501,2.357,0.982,3.555,1.426  c0.946,0.35,1.902,0.676,2.862,0.99c0.283,0.092,0.567,0.18,0.85,0.269c0.714,0.224,1.432,0.438,2.153,0.642  c0.287,0.081,0.573,0.164,0.861,0.242c1.951,0.527,3.924,0.979,5.918,1.353c0.295,0.055,0.591,0.106,0.887,0.158  c0.741,0.13,1.484,0.25,2.229,0.359c0.298,0.044,0.596,0.089,0.895,0.129c1.009,0.136,2.021,0.258,3.038,0.355  c0.759,0.072,1.516,0.106,2.275,0.156c6.132,0.287,14.002-0.393,22.528-1.807c0.812-0.187,1.62-0.387,2.425-0.6  c0.618-0.163,1.232-0.339,1.845-0.517c0.454-0.132,0.906-0.27,1.357-0.411c0.891-0.276,1.776-0.569,2.656-0.877  c0.521-0.183,1.041-0.367,1.558-0.56c0.535-0.2,1.069-0.404,1.599-0.615c0.854-0.341,1.703-0.693,2.544-1.065  c0.442-0.195,0.879-0.402,1.318-0.605c0.647-0.3,1.291-0.609,1.93-0.927c0.371-0.184,0.744-0.363,1.112-0.553  c0.912-0.472,1.812-0.966,2.706-1.474c0.34-0.193,0.678-0.389,1.015-0.588c0.93-0.548,1.854-1.108,2.762-1.695  c0.194-0.125,0.385-0.258,0.578-0.385c0.836-0.551,1.663-1.119,2.48-1.704c0.212-0.152,0.426-0.3,0.636-0.454  c0.927-0.677,1.839-1.377,2.738-2.097c0.198-0.159,0.395-0.321,0.592-0.482c0.933-0.763,1.856-1.54,2.757-2.349l7.445-7.445  L306.659,362.521z"/>
<path style="fill:#FF395A;" d="M345.742,373.531L135.417,162.834c-1.969-1.973-5.162-1.973-7.132,0l-14.335,14.36  c-1.969,1.973-1.969,5.171,0,7.144l210.325,210.697c1.969,1.973,5.162,1.973,7.132,0l14.335-14.36  C347.711,378.703,347.711,375.504,345.742,373.531z"/>
<path style="fill:#088AFF;" d="M306.746,22.571l-59.553,59.658c-7.763,7.777-7.763,20.386,0,28.163l0,0  c7.763,7.777,20.35,7.777,28.113,0l2.891-2.896c7.763-7.777,20.35-7.777,28.114,0l0,0c7.763,7.777,7.763,20.386,0,28.163  l-21.31,21.348c-7.763,7.777-7.763,20.386,0,28.163l0,0c7.763,7.777,20.35,7.777,28.114,0l77.606-78.476L306.746,22.571z"/>
<path style="fill:#00D8D2;" d="M308.413,110.011c0.007-0.001,0.016,0,0.023-0.001c0,0-0.038-0.039-0.093-0.095  C308.366,109.948,308.39,109.979,308.413,110.011z"/>
<g>
	<path style="fill:#0076CE;" d="M304.201,105.687c-5.94-6.065-16.366-16.7-19.399-19.738c-7.763-7.777-20.35-7.777-28.114,0   l-2.891,2.896c-3.446,3.452-7.842,5.363-12.345,5.751v0.002c-0.058,0.675-0.077,1.353-0.067,2.03   c0.002,0.128,0.014,0.256,0.018,0.384c0.019,0.548,0.056,1.095,0.12,1.64c0.022,0.184,0.053,0.367,0.079,0.55   c0.071,0.486,0.156,0.97,0.263,1.45c0.047,0.214,0.101,0.426,0.156,0.639c0.114,0.446,0.245,0.887,0.39,1.326   c0.076,0.228,0.153,0.455,0.238,0.681c0.155,0.417,0.33,0.828,0.515,1.236c0.104,0.23,0.205,0.461,0.319,0.688   c0.199,0.4,0.423,0.79,0.651,1.178c0.128,0.218,0.248,0.439,0.385,0.653c0.26,0.405,0.548,0.797,0.84,1.186   c0.135,0.18,0.256,0.366,0.398,0.542c0.447,0.556,0.922,1.096,1.437,1.612c7.763,7.777,20.35,7.777,28.113,0l2.891-2.896   C285.295,100.387,296.412,99.798,304.201,105.687z"/>
	<path style="fill:#0076CE;" d="M369.212,85.147l-77.606,78.476c-3.446,3.452-7.842,5.363-12.345,5.751   c-0.485,5.652,1.423,11.471,5.741,15.797c7.763,7.777,20.35,7.777,28.114,0l77.606-78.476L369.212,85.147z"/>
</g>
<path style="fill:#D81942;" d="M345.742,373.531l-23.59-23.631l-23.546,19.421l25.669,25.715c1.969,1.973,5.162,1.973,7.132,0  l14.335-14.36C347.711,378.703,347.711,375.504,345.742,373.531z"/>
<g>
</g>
<g>
</g>
<g>
</g>
<g>
</g>
<g>
</g>
<g>
</g>
<g>
</g>
<g>
</g>
<g>
</g>
<g>
</g>
<g>
</g>
<g>
</g>
<g>
</g>
<g>
</g>
<g>
</g>
</svg>
