<?xml version="1.0" encoding="iso-8859-1"?>
<!-- Generator: Adobe Illustrator 19.0.0, SVG Export Plug-In . SVG Version: 6.00 Build 0)  -->
<svg xmlns="http://www.w3.org/2000/svg" xmlns:xlink="http://www.w3.org/1999/xlink" version="1.1" id="Layer_1" x="0px" y="0px" viewBox="0 0 512 512" style="enable-background:new 0 0 512 512;" xml:space="preserve">
<path style="fill:#CCCCCC;" d="M372.78,157.349l-36.866-36.866L4.373,437.029c-5.738,5.479-5.843,14.607-0.233,20.217l31.733,31.73  c5.611,5.61,14.739,5.505,20.219-0.233L372.78,157.349z"/>
<path style="fill:#B3B3B3;" d="M56.093,488.744l0.005-0.005l316.682-331.39l-21.245-21.245L34.952,467.605  c-5.48,5.738-14.608,5.843-20.218,0.233l21.14,21.138c0.701,0.701,1.458,1.313,2.255,1.836c0.399,0.261,0.807,0.501,1.225,0.717  c1.252,0.651,2.581,1.101,3.938,1.351C47.818,493.716,52.668,492.33,56.093,488.744z"/>
<path style="fill:#FFA227;" d="M211.455,326.075l-44.396-44.392L4.373,437.029c-5.739,5.479-5.843,14.607-0.233,20.217  l31.734,31.731c5.61,5.61,14.739,5.505,20.219-0.233L211.455,326.075z"/>
<path style="fill:#F78B0B;" d="M190.314,304.936L34.952,467.605c-5.479,5.737-14.607,5.843-20.217,0.234l21.139,21.137  c5.61,5.61,14.739,5.505,20.219-0.233l155.362-162.669L190.314,304.936z"/>
<path style="fill:#808080;" d="M509.336,169.03l-20.714-20.712l-37.546-27.32l0.421-0.421c2.91-2.91,2.91-7.629,0-10.539  l-69.013-69.006c-28.496-28.493-74.071-29.494-103.77-3.008c-0.838,0.747-0.888,2.041-0.094,2.834l9.392,9.391  c0.585,0.585,1.471,0.724,2.219,0.373c19.203-9.018,42.798-5.601,58.651,10.287c5.141,5.152,5.104,13.611-0.042,18.757  l-10.788,10.787l-0.223,0.223l-11.601,11.6c-5.271,5.27-5.271,13.815,0,19.085l38.049,38.045c6.246,6.245,15.203,8.949,23.861,7.202  l14.737-2.973c3.452-0.696,6.994,0.683,9.067,3.53l24.358,33.468l20.714,20.712c3.552,3.552,9.311,3.552,12.864,0l39.457-39.453  C512.888,178.341,512.888,172.582,509.336,169.03z"/>
<path style="fill:#666666;" d="M509.336,169.03l-14.207-14.206l-52.281,52.355l14.167,14.166c3.552,3.552,9.311,3.552,12.864,0  l39.457-39.453C512.888,178.341,512.888,172.582,509.336,169.03z"/>
<path style="fill:#999999;" d="M421.096,121.767c0.148-0.194,0.307-0.384,0.485-0.562l0,0c2.141-2.138,2.142-5.607,0.003-7.747  l-37.045-37.04c-3.081-3.081-8.398-1.514-9.228,2.763c-1.317,6.781-4.597,13.254-9.838,18.494l-12.305,12.303  c-2.139,2.138-2.139,5.606,0,7.744l27.743,27.739c0.703,0.703,1.675,1.106,2.668,1.106c0.25,0,0.501-0.025,0.747-0.075  c0,0,10.625-2.138,14.035-2.824c0.682-0.137,1.302-0.471,1.794-0.963L421.096,121.767z"/>
<polygon style="fill:#FFCC5A;" points="4.723,457.828 13.465,466.569 183.351,297.974 174.609,289.233 "/>
<path style="fill:#EFAC03;" d="M196.002,310.624L27.407,480.51l8.467,8.466c0.093,0.093,0.194,0.171,0.289,0.261l168.581-169.873  L196.002,310.624z"/>
<g>
</g>
<g>
</g>
<g>
</g>
<g>
</g>
<g>
</g>
<g>
</g>
<g>
</g>
<g>
</g>
<g>
</g>
<g>
</g>
<g>
</g>
<g>
</g>
<g>
</g>
<g>
</g>
<g>
</g>
</svg>
