<?xml version="1.0" encoding="iso-8859-1"?>
<!-- Generator: Adobe Illustrator 19.0.0, SVG Export Plug-In . SVG Version: 6.00 Build 0)  -->
<svg xmlns="http://www.w3.org/2000/svg" xmlns:xlink="http://www.w3.org/1999/xlink" version="1.1" id="Layer_1" x="0px" y="0px" viewBox="0 0 512.001 512.001" style="enable-background:new 0 0 512.001 512.001;" xml:space="preserve">
<polygon style="fill:#CCCCCC;" points="462.936,73.15 438.613,48.795 252.681,234.955 277.145,259.169 "/>
<path style="fill:#FFA227;" d="M234.186,358.074c6.768-6.777,12.389-14.612,16.645-23.198l29.942-59.989l-43.473-43.474  l-60.068,29.763c-8.574,4.26-16.399,9.89-23.167,16.667L6.307,425.799c-7.95,7.96-7.95,20.867,0,28.827l51.334,51.403  c7.95,7.96,20.839,7.96,28.789,0L234.186,358.074z"/>
<path style="fill:#F78B0B;" d="M234.186,358.074c0.846-0.847,1.674-1.711,2.484-2.591c5.668-6.158,10.438-13.095,14.16-20.607  l0.001-0.001l29.941-59.987l-21.912-21.913l-29.858,60.043c-4.254,8.585-9.876,16.421-16.644,23.198L64.601,484.172  c-7.949,7.96-20.838,7.96-28.788,0.001l21.829,21.858c7.95,7.96,20.839,7.96,28.789,0L234.186,358.074z"/>
<path style="fill:#FFCC5A;" d="M311.376,273.58l-72.932-73.031c-3.148-3.153-8.252-3.153-11.401,0l-13.376,13.394  c-3.148,3.153-3.148,8.263,0,11.416L286.6,298.39c3.148,3.153,8.252,3.153,11.401,0l13.376-13.394  C314.524,281.843,314.524,276.732,311.376,273.58z"/>
<path style="fill:#808080;" d="M463.528,85.983l-37.738-37.789c-3.53-3.535-3.071-9.393,0.969-12.332l47.147-34.307  c3.233-2.353,7.694-2.001,10.52,0.829l24.853,24.887c2.825,2.829,3.177,7.296,0.827,10.534l-34.261,47.21  C472.908,89.058,467.058,89.518,463.528,85.983z"/>
<path style="fill:#666666;" d="M509.277,27.27L487.515,5.479c2.825,2.829,3.177,7.296,0.827,10.534l-34.261,47.21  c-2.935,4.045-8.785,4.505-12.315,0.97l-15.978-15.998l0.001,0.001l37.738,37.789c3.53,3.535,9.38,3.075,12.315-0.97l34.261-47.21  C512.454,34.566,512.102,30.099,509.277,27.27z"/>
<path style="fill:#FFCC5A;" d="M234.829,357.403l-0.239-0.283l-79.836-79.942c-0.229,0.224-0.465,0.438-0.692,0.665L20.287,411.799  l79.849,79.956l0.508,0.039l133.541-133.721C234.405,357.855,234.613,357.625,234.829,357.403z"/>
<g>
	<path style="fill:#FFB000;" d="M234.591,357.121l-21.569-21.598c-0.224,0.229-0.438,0.466-0.664,0.693L78.582,470.172   l21.555,21.584l0.508,0.039l133.541-133.721c0.219-0.22,0.426-0.449,0.643-0.671L234.591,357.121z"/>
	<path style="fill:#FFB000;" d="M311.376,273.58l-16.114-16.136l-24.777,24.81L286.6,298.39c2.948,2.952,7.611,3.139,10.776,0.562   l14.561-14.58C314.511,281.201,314.325,276.532,311.376,273.58z"/>
</g>
<g>
	<path style="fill:#FFA227;" d="M66.95,410.35c-1.448,0-2.896-0.552-4.001-1.657c-2.21-2.21-2.21-5.792,0-8.002l83.849-83.849   c2.208-2.209,5.793-2.209,8.001,0c2.21,2.21,2.21,5.792,0,8.002l-83.849,83.849C69.847,409.798,68.398,410.35,66.95,410.35z"/>
	<path style="fill:#FFA227;" d="M86.976,430.376c-1.448,0-2.896-0.552-4.001-1.657c-2.21-2.21-2.21-5.792,0-8.002l83.849-83.849   c2.208-2.209,5.793-2.209,8.001,0c2.21,2.21,2.21,5.792,0,8.002l-83.849,83.849C89.874,429.824,88.425,430.376,86.976,430.376z"/>
	<path style="fill:#FFA227;" d="M107.003,450.402c-1.448,0-2.896-0.552-4.001-1.657c-2.21-2.21-2.21-5.792,0-8.002l83.849-83.849   c2.208-2.209,5.793-2.209,8.001,0c2.21,2.21,2.21,5.792,0,8.002l-83.849,83.849C109.899,449.85,108.45,450.402,107.003,450.402z"/>
</g>
<g>
</g>
<g>
</g>
<g>
</g>
<g>
</g>
<g>
</g>
<g>
</g>
<g>
</g>
<g>
</g>
<g>
</g>
<g>
</g>
<g>
</g>
<g>
</g>
<g>
</g>
<g>
</g>
<g>
</g>
</svg>
