<?xml version="1.0" encoding="iso-8859-1"?>
<!-- Generator: Adobe Illustrator 19.0.0, SVG Export Plug-In . SVG Version: 6.00 Build 0)  -->
<svg xmlns="http://www.w3.org/2000/svg" xmlns:xlink="http://www.w3.org/1999/xlink" version="1.1" id="Layer_1" x="0px" y="0px" viewBox="0 0 512 512" style="enable-background:new 0 0 512 512;" xml:space="preserve">
<path style="fill:#FFCC5A;" d="M321.447,417.09H82.214C36.808,417.09,0,380.282,0,334.876v-79.243  C0,166.868,71.958,94.91,160.724,94.91l0,0c88.765,0,160.724,71.958,160.724,160.724V417.09H321.447z"/>
<rect x="309.67" y="344.9" style="fill:#F2E2D3;" width="177.7" height="72.19"/>
<rect x="446.66" y="344.9" style="fill:#D8C4B4;" width="30.933" height="72.19"/>
<path style="fill:#D81942;" d="M494.797,300.064L494.797,300.064c-9.501,0-17.203,7.72-17.203,17.242v99.784h24.407  c5.523,0,9.999-4.477,9.999-9.999v-89.785C512,307.783,504.298,300.064,494.797,300.064z"/>
<ellipse style="fill:#FF395A;" cx="160.72" cy="267.62" rx="112.46" ry="112.71"/>
<path style="fill:#D81942;" d="M160.724,154.904c-5.248,0-10.41,0.369-15.467,1.066c54.789,7.555,96.99,54.658,96.99,111.648  c0,56.99-42.202,104.093-96.99,111.648c5.057,0.697,10.218,1.066,15.467,1.066c62.108,0,112.457-50.464,112.457-112.714  S222.832,154.904,160.724,154.904z"/>
<ellipse style="fill:#088AFF;" cx="160.72" cy="267.62" rx="79.63" ry="79.81"/>
<path style="fill:#0076CE;" d="M160.724,187.808c-5.328,0-10.531,0.535-15.566,1.535c36.523,7.256,64.061,39.537,64.061,78.274  s-27.539,71.018-64.061,78.274c5.035,1,10.238,1.535,15.566,1.535c43.977,0,79.628-35.732,79.628-79.809  C240.352,223.54,204.701,187.808,160.724,187.808z"/>
<path style="fill:#D81942;" d="M357.263,236.857c-4.311-44.903-23.66-85.465-52.924-116.559c-8.6-9.137-22.219-11.406-33.241-5.428  l-17.558,9.524c41.114,29.177,67.955,77.225,67.955,131.559v19.217l21.437-11.628C352.587,258.305,358.315,247.811,357.263,236.857z  "/>
<path style="fill:#FFB000;" d="M160.724,94.91L160.724,94.91c-1.325,0-2.644,0.018-3.961,0.05c-1.184,0.03-2.364,0.074-3.541,0.13  c-0.099,0.005-0.198,0.007-0.296,0.011c-2.572,0.125-5.129,0.311-7.669,0.554c81.508,7.801,145.257,76.607,145.257,160.345v119.51  c0,5.841-4.724,10.576-10.552,10.576H17.976c8.85,11.097,20.5,19.851,33.875,25.189c0.257,0.102,0.514,0.205,0.773,0.305  c0.894,0.346,1.797,0.674,2.705,0.989c0.527,0.182,1.053,0.365,1.585,0.536c0.533,0.173,1.068,0.34,1.606,0.502  c0.882,0.265,1.768,0.52,2.661,0.756c0.421,0.111,0.846,0.214,1.269,0.319c0.879,0.217,1.762,0.424,2.652,0.612  c0.355,0.075,0.711,0.148,1.067,0.219c0.984,0.195,1.973,0.371,2.969,0.53c0.28,0.045,0.559,0.093,0.839,0.135  c1.131,0.169,2.27,0.312,3.416,0.434c0.269,0.029,0.538,0.056,0.808,0.083c1.18,0.114,2.366,0.207,3.559,0.271  c0.203,0.011,0.406,0.017,0.609,0.027c1.27,0.059,2.546,0.097,3.831,0.097c0.004,0,0.008,0,0.011,0h239.234V255.633  C321.448,166.868,249.489,94.91,160.724,94.91z"/>
<g>
	<path style="fill:#AF9177;" d="M390.404,353.474c-2.56,0-4.636,2.075-4.636,4.636v11.116c0,2.56,2.075,4.636,4.636,4.636   s4.636-2.075,4.636-4.636V358.11C395.04,355.55,392.964,353.474,390.404,353.474z"/>
	<path style="fill:#AF9177;" d="M347.479,353.474c-2.56,0-4.636,2.075-4.636,4.636v23.044c0,2.56,2.075,4.636,4.636,4.636   c2.56,0,4.636-2.075,4.636-4.636V358.11C352.115,355.55,350.04,353.474,347.479,353.474z"/>
	<path style="fill:#AF9177;" d="M435.389,353.474c-2.56,0-4.636,2.075-4.636,4.636v23.044c0,2.56,2.075,4.636,4.636,4.636   c2.56,0,4.636-2.075,4.636-4.636V358.11C440.024,355.55,437.949,353.474,435.389,353.474z"/>
</g>
<path style="fill:#FFA227;" d="M48.267,267.618c0-1.127,0.021-2.248,0.054-3.367H0v70.438c0,45.509,36.809,82.401,82.214,82.401  h48.951v-40.702C83.398,363.379,48.267,319.614,48.267,267.618z"/>
<path style="fill:#F78B0B;" d="M131.165,417.09v-31.004H17.976l0.001,0.001c1.388,1.74,2.845,3.422,4.367,5.042  c0.088,0.094,0.177,0.186,0.266,0.279c0.896,0.946,1.816,1.871,2.755,2.774c0.15,0.144,0.299,0.287,0.45,0.43  c0.913,0.864,1.847,1.706,2.799,2.528c0.148,0.128,0.295,0.258,0.444,0.385c0.538,0.458,1.081,0.909,1.63,1.353  c0.141,0.114,0.286,0.224,0.428,0.337c0.944,0.753,1.904,1.485,2.881,2.196c0.34,0.247,0.683,0.49,1.027,0.732  c0.767,0.54,1.543,1.068,2.329,1.582c0.421,0.275,0.844,0.548,1.271,0.816c0.587,0.369,1.177,0.732,1.774,1.086  c0.633,0.376,1.271,0.745,1.915,1.104c0.451,0.252,0.905,0.5,1.362,0.744c0.804,0.429,1.615,0.847,2.434,1.25  c0.403,0.198,0.811,0.388,1.218,0.58c0.744,0.35,1.494,0.691,2.25,1.02c0.43,0.187,0.861,0.369,1.295,0.549  c0.804,0.332,1.613,0.652,2.429,0.96c0.325,0.122,0.648,0.248,0.975,0.367c0.989,0.358,1.987,0.694,2.993,1.015  c0.32,0.102,0.642,0.203,0.964,0.301c1.04,0.317,2.086,0.618,3.143,0.894c0.262,0.069,0.526,0.132,0.788,0.198  c1.107,0.278,2.22,0.541,3.344,0.774c0.115,0.024,0.231,0.046,0.346,0.069c1.135,0.23,2.279,0.432,3.431,0.614  c0.209,0.033,0.417,0.069,0.627,0.101c1.171,0.176,2.35,0.324,3.536,0.45c0.237,0.025,0.475,0.049,0.712,0.073  c1.199,0.117,2.404,0.211,3.617,0.276c0.191,0.01,0.383,0.016,0.574,0.025c1.281,0.059,2.568,0.098,3.864,0.098L131.165,417.09  L131.165,417.09z"/>
<g>
</g>
<g>
</g>
<g>
</g>
<g>
</g>
<g>
</g>
<g>
</g>
<g>
</g>
<g>
</g>
<g>
</g>
<g>
</g>
<g>
</g>
<g>
</g>
<g>
</g>
<g>
</g>
<g>
</g>
</svg>
