<?xml version="1.0" encoding="iso-8859-1"?>
<!-- Generator: Adobe Illustrator 19.0.0, SVG Export Plug-In . SVG Version: 6.00 Build 0)  -->
<svg xmlns="http://www.w3.org/2000/svg" xmlns:xlink="http://www.w3.org/1999/xlink" version="1.1" id="Layer_1" x="0px" y="0px" viewBox="0 0 512 512" style="enable-background:new 0 0 512 512;" xml:space="preserve">
<rect x="89.86" y="110.82" style="fill:#FF395A;" width="332.28" height="372.83"/>
<rect x="390.23" y="110.82" style="fill:#D81942;" width="31.91" height="372.83"/>
<path style="fill:#C7AC91;" d="M389.129,0H122.871c-2.06,0-3.97,1.075-5.035,2.833L52.36,110.925  c-2.368,3.909,0.455,8.899,5.035,8.899h397.209c4.58,0,7.403-4.989,5.035-8.899L394.164,2.833C393.099,1.075,391.189,0,389.129,0z"/>
<path style="fill:#AF9177;" d="M459.64,110.925L394.164,2.833C393.099,1.075,391.189,0,389.129,0h-33.951  c2.06,0,3.97,1.074,5.035,2.833l71.255,116.991h23.136C459.185,119.824,462.008,114.835,459.64,110.925z"/>
<path style="fill:#C7AC91;" d="M285.869,339.664h-59.738c-5.295,0-9.587,4.292-9.587,9.587v134.402h78.911V349.251  C295.456,343.957,291.163,339.664,285.869,339.664z"/>
<path style="fill:#AF9177;" d="M285.855,339.664h-22.136v143.988h31.737V349.238C295.456,343.951,291.157,339.664,285.855,339.664z"/>
<path style="fill:#808080;" d="M457.223,512H54.777c-5.501,0-9.96-4.459-9.96-9.96v-17.434c0-5.501,4.459-9.96,9.96-9.96h402.446  c5.501,0,9.96,4.459,9.96,9.96v17.434C467.183,507.541,462.724,512,457.223,512z"/>
<g>
	<path style="fill:#AEFFFF;" d="M169.725,418.402h-38.11c-3.167,0-5.735-2.568-5.735-5.735v-67.268c0-3.167,2.568-5.735,5.735-5.735   h38.11c3.167,0,5.735,2.568,5.735,5.735v67.268C175.46,415.834,172.892,418.402,169.725,418.402z"/>
	<path style="fill:#AEFFFF;" d="M380.385,418.402h-38.11c-3.167,0-5.735-2.568-5.735-5.735v-67.268c0-3.167,2.568-5.735,5.735-5.735   h38.11c3.167,0,5.735,2.568,5.735,5.735v67.268C386.12,415.834,383.552,418.402,380.385,418.402z"/>
	<path style="fill:#AEFFFF;" d="M169.725,266.971h-38.11c-3.167,0-5.735-2.568-5.735-5.735v-67.268c0-3.167,2.568-5.735,5.735-5.735   h38.11c3.167,0,5.735,2.568,5.735,5.735v67.268C175.46,264.404,172.892,266.971,169.725,266.971z"/>
	<path style="fill:#AEFFFF;" d="M380.385,266.971h-38.11c-3.167,0-5.735-2.568-5.735-5.735v-67.268c0-3.167,2.568-5.735,5.735-5.735   h38.11c3.167,0,5.735,2.568,5.735,5.735v67.268C386.12,264.404,383.552,266.971,380.385,266.971z"/>
	<path style="fill:#AEFFFF;" d="M275.055,266.971h-38.11c-3.167,0-5.735-2.568-5.735-5.735v-67.268c0-3.167,2.568-5.735,5.735-5.735   h38.11c3.167,0,5.735,2.568,5.735,5.735v67.268C280.79,264.404,278.222,266.971,275.055,266.971z"/>
</g>
<g>
	<path style="fill:#84F1F7;" d="M248.88,188.234v78.738h26.175c3.167,0,5.735-2.568,5.735-5.735v-67.268   c0-3.167-2.568-5.735-5.735-5.735H248.88z"/>
	<path style="fill:#84F1F7;" d="M143.55,188.234v78.738h26.175c3.167,0,5.735-2.568,5.735-5.735v-67.268   c0-3.167-2.568-5.735-5.735-5.735H143.55z"/>
	<path style="fill:#84F1F7;" d="M354.21,188.234v78.738h26.175c3.167,0,5.735-2.568,5.735-5.735v-67.268   c0-3.167-2.568-5.735-5.735-5.735H354.21z"/>
	<path style="fill:#84F1F7;" d="M143.55,339.664v78.738h26.175c3.167,0,5.735-2.568,5.735-5.735v-67.268   c0-3.167-2.568-5.735-5.735-5.735L143.55,339.664L143.55,339.664z"/>
	<path style="fill:#84F1F7;" d="M354.21,339.664v78.738h26.175c3.167,0,5.735-2.568,5.735-5.735v-67.268   c0-3.167-2.568-5.735-5.735-5.735L354.21,339.664L354.21,339.664z"/>
</g>
<path style="fill:#FFCC5A;" d="M212.629,119.824h86.741V71.161c0-4.087-2.012-7.913-5.384-10.236l-29.481-20.317  c-5.119-3.528-11.893-3.528-17.012,0l-29.481,20.317c-3.371,2.324-5.384,6.15-5.384,10.236v48.663H212.629z"/>
<path style="fill:#FFB000;" d="M293.987,60.925l-29.481-20.317c-5.119-3.528-11.893-3.528-17.012,0l-12.696,8.75l27.28,18.8  c3.371,2.324,5.384,6.15,5.384,10.236v41.43h31.91V71.161C299.371,67.074,297.358,63.248,293.987,60.925z"/>
<path style="fill:#666666;" d="M457.209,474.647h-21.936V512h21.936c5.508,0,9.974-4.453,9.974-9.945v-17.462  C467.183,479.1,462.717,474.647,457.209,474.647z"/>
<g>
</g>
<g>
</g>
<g>
</g>
<g>
</g>
<g>
</g>
<g>
</g>
<g>
</g>
<g>
</g>
<g>
</g>
<g>
</g>
<g>
</g>
<g>
</g>
<g>
</g>
<g>
</g>
<g>
</g>
</svg>
