<?xml version="1.0" encoding="iso-8859-1"?>
<!-- Generator: Adobe Illustrator 19.0.0, SVG Export Plug-In . SVG Version: 6.00 Build 0)  -->
<svg xmlns="http://www.w3.org/2000/svg" xmlns:xlink="http://www.w3.org/1999/xlink" version="1.1" id="Layer_1" x="0px" y="0px" viewBox="0 0 512 512" style="enable-background:new 0 0 512 512;" xml:space="preserve">
<g>
	<path style="fill:#808080;" d="M256,127.064c-1.753,0-3.473-0.168-5.151-0.481v40.083l3.058-2.434c1.259-1.002,2.926-1.002,4.186,0   l3.058,2.434v-40.083C259.473,126.896,257.753,127.064,256,127.064z"/>
	<path style="fill:#808080;" d="M263.727,65.392V45.067h-15.453v27.108c0,4.267,3.459,7.726,7.726,7.726   c9.246,0,16.769,7.522,16.769,16.769s-7.522,16.769-16.769,16.769c-9.246,0-16.769-7.522-16.769-16.769   c0-4.267-3.459-7.726-7.726-7.726c-4.268,0-7.726,3.459-7.726,7.726c0,17.767,14.455,32.221,32.221,32.221   s32.221-14.454,32.221-32.221C288.221,81.566,277.773,68.863,263.727,65.392z"/>
</g>
<rect x="113.09" y="276.89" style="fill:#F2E2D3;" width="285.81" height="211.97"/>
<rect x="367.84" y="276.89" style="fill:#D8C4B4;" width="31.07" height="211.97"/>
<path style="fill:#FF395A;" d="M82.666,279.2l171.242-118.099c1.259-0.869,2.926-0.869,4.185,0L429.335,279.2  c2.97,2.048,1.517,6.694-2.093,6.694H84.758C81.148,285.894,79.696,281.248,82.666,279.2z"/>
<path style="fill:#D81942;" d="M429.335,279.2L258.093,161.101c-1.259-0.868-2.926-0.868-4.185,0l-17.46,12.042l163.4,112.752  h27.394C430.852,285.894,432.304,281.248,429.335,279.2z"/>
<path style="fill:#C7AC91;" d="M230.341,331.502h-65.597c-5.817,0-10.532,4.715-10.532,10.532v146.82h86.661v-146.82  C240.874,336.217,236.159,331.502,230.341,331.502z"/>
<path style="fill:#AF9177;" d="M230.331,331.502h-31.069c5.823,0,10.543,4.71,10.543,10.521v146.831h31.069V342.023  C240.874,336.213,236.154,331.502,230.331,331.502z"/>
<path style="fill:#088AFF;" d="M343.434,397.041h-56.701c-5.696,0-10.314-4.618-10.314-10.314v-44.912  c0-5.696,4.617-10.313,10.314-10.313h56.701c5.696,0,10.313,4.617,10.313,10.313v44.912  C353.747,392.423,349.129,397.041,343.434,397.041z"/>
<path style="fill:#0076CE;" d="M343.422,331.502h-20.745v65.539h20.745c5.702,0,10.324-4.613,10.324-10.303v-44.934  C353.747,336.115,349.124,331.502,343.422,331.502z"/>
<path style="fill:#808080;" d="M429.079,512H82.921c-4.733,0-8.57-3.837-8.57-8.57v-15.012c0-4.733,3.837-8.57,8.57-8.57h346.157  c4.733,0,8.57,3.837,8.57,8.57v15.012C437.648,508.163,433.811,512,429.079,512z"/>
<path style="fill:#666666;" d="M429.069,479.848h-22.49V512h22.49c4.738,0,8.579-3.833,8.579-8.561v-15.031  C437.648,483.681,433.807,479.848,429.069,479.848z"/>
<path style="fill:#FFA227;" d="M286.224,53.072h-60.447c-2.602,0-4.848-1.822-5.378-4.364L212.74,6.6  c-0.71-3.404,1.894-6.6,5.378-6.6h75.766c3.485,0,6.089,3.196,5.378,6.6l-7.659,42.108C291.072,51.25,288.826,53.072,286.224,53.072  z"/>
<path style="fill:#F78B0B;" d="M286.224,53.072c2.602,0,4.848-1.822,5.379-4.364L299.261,6.6c0.711-3.404-1.894-6.6-5.379-6.6  h-22.604l-9.101,50.15c-0.23,1.106-0.732,2.092-1.408,2.922C260.769,53.072,286.224,53.072,286.224,53.072z"/>
<g>
</g>
<g>
</g>
<g>
</g>
<g>
</g>
<g>
</g>
<g>
</g>
<g>
</g>
<g>
</g>
<g>
</g>
<g>
</g>
<g>
</g>
<g>
</g>
<g>
</g>
<g>
</g>
<g>
</g>
</svg>
