<?xml version="1.0" encoding="iso-8859-1"?>
<!-- Generator: Adobe Illustrator 19.0.0, SVG Export Plug-In . SVG Version: 6.00 Build 0)  -->
<svg xmlns="http://www.w3.org/2000/svg" xmlns:xlink="http://www.w3.org/1999/xlink" version="1.1" id="Layer_1" x="0px" y="0px" viewBox="0 0 512 512" style="enable-background:new 0 0 512 512;" xml:space="preserve">
<path style="fill:#F2E2D3;" d="M0.004,78.173l0.04,361.642c-1.156,30.52,23.18,55.627,53.365,55.627l0,0H491.86  c11.123,0,20.14-9.04,20.14-20.191V98.364c0-11.151-9.017-20.191-20.14-20.191C491.86,78.173,0.004,78.173,0.004,78.173z"/>
<path style="fill:#D8C4B4;" d="M480.779,78.173v365.962c0,11.049-8.934,20.006-19.955,20.006H22.187  c-6.61,0-12.936-1.212-18.778-3.413c7.601,20.28,27.115,34.715,50,34.715H491.86c11.123,0,20.14-9.04,20.14-20.191V98.364  c0-11.151-9.017-20.191-20.14-20.191C491.86,78.173,480.779,78.173,480.779,78.173z"/>
<g>
	<path style="fill:#AF9177;" d="M444.611,415.629H153.924c-3.076,0-5.569,2.494-5.569,5.569s2.493,5.569,5.569,5.569h290.687   c3.076,0,5.569-2.494,5.569-5.569S447.687,415.629,444.611,415.629z"/>
	<path style="fill:#AF9177;" d="M153.924,167.798h25.471c3.076,0,5.569-2.494,5.569-5.569c0-3.076-2.493-5.569-5.569-5.569h-25.471   c-3.076,0-5.569,2.494-5.569,5.569C148.355,165.305,150.848,167.798,153.924,167.798z"/>
	<path style="fill:#AF9177;" d="M153.924,232.541h25.471c3.076,0,5.569-2.494,5.569-5.569c0-3.076-2.493-5.569-5.569-5.569h-25.471   c-3.076,0-5.569,2.494-5.569,5.569C148.355,230.047,150.848,232.541,153.924,232.541z"/>
	<path style="fill:#AF9177;" d="M153.924,297.283h25.471c3.076,0,5.569-2.494,5.569-5.569c0-3.076-2.493-5.569-5.569-5.569h-25.471   c-3.076,0-5.569,2.494-5.569,5.569C148.355,294.789,150.848,297.283,153.924,297.283z"/>
	<path style="fill:#AF9177;" d="M153.924,362.025h25.471c3.076,0,5.569-2.494,5.569-5.569c0-3.076-2.493-5.569-5.569-5.569h-25.471   c-3.076,0-5.569,2.494-5.569,5.569C148.355,359.532,150.848,362.025,153.924,362.025z"/>
	<path style="fill:#AF9177;" d="M330.953,139.57c-2.629-1.814-6.267-1.816-8.903,0.002l-105.226,72.725   c-2.833,1.96-4.047,5.485-3.022,8.773c1.026,3.289,4.031,5.498,7.476,5.498h11.843v123.063c0,6.834,5.559,12.394,12.393,12.394   h54.363h53.252h54.362c6.834,0,12.393-5.56,12.393-12.394V226.568h11.844c3.446,0,6.45-2.21,7.476-5.499 M305.446,350.887v-68.668   c0-0.502,0.408-0.91,0.909-0.91h40.294c0.503,0,0.91,0.408,0.91,0.91v68.668H305.446z M408.746,349.631   c0,0.692-0.563,1.256-1.255,1.256h-48.793v-68.668c0-6.643-5.405-12.048-12.049-12.048h-40.294   c-6.643,0-12.047,5.405-12.047,12.048v68.668h-48.794c-0.692,0-1.255-0.563-1.255-1.256V226.568h164.487L408.746,349.631   L408.746,349.631z M326.503,150.034l94.622,65.397h-6.81H238.69h-6.81L326.503,150.034z"/>
	<path style="fill:#AF9177;" d="M436.197,212.297l-105.226-72.725c-1.32-0.91-2.891-1.364-4.46-1.362   c-1.57-0.001-3.141,0.452-4.46,1.362l-105.226,72.725c-2.833,1.959-4.047,5.485-3.022,8.773c1.026,3.289,4.031,5.498,7.476,5.498   h0.015h11.828v123.063c0,6.834,5.559,12.394,12.393,12.394h0.016h54.347h0.015h53.237h0.015h54.347h0.016   c6.834,0,12.393-5.56,12.393-12.394V226.568h11.828h0.015c3.445,0,6.45-2.21,7.476-5.498   C440.245,217.782,439.031,214.256,436.197,212.297z M305.461,350.887v-68.668c0-0.502,0.408-0.91,0.91-0.91h40.278   c0.503,0,0.91,0.408,0.91,0.91v68.668H305.461z M358.713,350.887v-68.668c0-6.643-5.405-12.048-12.047-12.048h-0.016h-40.278   h-0.016c-6.643,0-12.048,5.405-12.048,12.048v68.668H245.53c-0.692,0-1.255-0.563-1.255-1.256V226.568h164.471v123.063   c0,0.692-0.563,1.256-1.255,1.256L358.713,350.887L358.713,350.887z M414.331,215.43h-0.016H238.706h-0.016h-6.794l94.615-65.391   l94.615,65.391H414.331z"/>
</g>
<path style="fill:#C7AC91;" d="M106.817,434.499V70.102c0-29.572-23.912-53.545-53.408-53.545C23.912,16.557,0,40.53,0,70.102V441.9  c0-29.57,23.912-53.541,53.408-53.541c26.99,0,49.291,20.075,52.889,46.14H106.817z"/>
<path style="fill:#AF9177;" d="M106.817,434.499V70.102c0-29.573-23.912-53.546-53.408-53.546c-5.55,0-10.902,0.85-15.935,2.425  c21.713,6.796,37.474,27.113,37.474,51.12v322.804c16.611,7.35,28.779,22.933,31.355,41.593h0.514V434.499z"/>
<g>
</g>
<g>
</g>
<g>
</g>
<g>
</g>
<g>
</g>
<g>
</g>
<g>
</g>
<g>
</g>
<g>
</g>
<g>
</g>
<g>
</g>
<g>
</g>
<g>
</g>
<g>
</g>
<g>
</g>
</svg>
