<?xml version="1.0" encoding="iso-8859-1"?>
<!-- Generator: Adobe Illustrator 19.0.0, SVG Export Plug-In . SVG Version: 6.00 Build 0)  -->
<svg xmlns="http://www.w3.org/2000/svg" xmlns:xlink="http://www.w3.org/1999/xlink" version="1.1" id="Layer_1" x="0px" y="0px" viewBox="0 0 512 512" style="enable-background:new 0 0 512 512;" xml:space="preserve">
<path style="fill:#FFCC5A;" d="M59.014,79.75v364.665c0,19.376,15.706,35.084,35.08,35.084h323.814  c19.374,0,35.08-15.708,35.08-35.084V79.75H59.014z"/>
<path style="fill:#FFB000;" d="M424.181,79.75v364.665c0,19.376-15.706,35.084-35.08,35.084h28.806  c19.374,0,35.079-15.708,35.079-35.084V79.75H424.181z"/>
<path style="fill:#FFA227;" d="M464.092,90.751H47.908c-8.733,0-15.813-7.08-15.813-15.813V48.315  c0-8.733,7.08-15.813,15.813-15.813h416.184c8.733,0,15.813,7.08,15.813,15.813v26.623  C479.906,83.671,472.826,90.751,464.092,90.751z"/>
<path style="fill:#F78B0B;" d="M464.093,32.501h-12.994V42.65c0,10.654-8.636,19.291-19.289,19.291H32.095v12.996  c0,8.734,7.079,15.814,15.812,15.814h416.186c8.733,0,15.812-7.08,15.812-15.814V48.316  C479.906,39.582,472.826,32.501,464.093,32.501z"/>
<path style="fill:#FF395A;" d="M340.551,376.433H171.449c-7.297,0-13.212-5.915-13.212-13.212v-24.078  c0-7.297,5.915-13.212,13.212-13.212h169.102c7.297,0,13.212,5.915,13.212,13.212v24.078  C353.763,370.517,347.848,376.433,340.551,376.433z"/>
<path style="fill:#D81942;" d="M340.552,325.931h-28.806c7.296,0,13.211,5.916,13.211,13.213v24.077  c0,7.297-5.915,13.213-13.211,13.213h28.806c7.296,0,13.211-5.916,13.211-13.213v-24.077  C353.763,331.846,347.848,325.931,340.552,325.931z"/>
<path style="fill:#088AFF;" d="M93.552,32.501v144.296c0,18.811,15.247,34.059,34.055,34.059l0,0  c18.808,0,34.056-15.249,34.056-34.059v-7.006c0-18.81,15.247-34.059,34.055-34.059l0,0c18.808,0,34.056,15.249,34.056,34.059  v51.635c0,18.811,15.247,34.059,34.055,34.059l0,0c18.808,0,34.055-15.249,34.055-34.059v-97.439  c0,18.811,15.247,34.06,34.055,34.06l0,0c18.808,0,34.055-15.249,34.055-34.06V32.501H93.552z"/>
<g>
	<path style="fill:#0076CE;" d="M297.885,123.987c-15.909,0-28.806,12.899-28.806,28.81v68.63c0,13.661-8.045,25.437-19.652,30.864   c4.375,2.046,9.254,3.195,14.403,3.195l0,0c18.808,0,34.055-15.249,34.055-34.059V123.987L297.885,123.987z"/>
	<path style="fill:#0076CE;" d="M166.912,135.732c-18.808,0-34.055,15.249-34.055,34.06v7.006c0,13.661-8.045,25.437-19.652,30.864   c4.376,2.046,9.254,3.195,14.403,3.195c18.808,0,34.056-15.249,34.056-34.059v-7.006c0-13.661,8.045-25.437,19.652-30.864   C176.939,136.881,172.061,135.732,166.912,135.732z"/>
	<path style="fill:#0076CE;" d="M337.189,32.501v91.486c0,13.661-8.045,25.437-19.652,30.864c4.375,2.046,9.254,3.195,14.403,3.195   l0,0c18.808,0,34.055-15.249,34.055-34.059V32.501H337.189z"/>
</g>
<g>
	<path style="fill:#808080;" d="M158.237,340.424c-82.503-13.889-142.215-84.46-142.215-168.43V76.866   c0-3.603,2.932-6.535,6.535-6.535h9.538V54.309h-9.538C10.119,54.309,0,64.428,0,76.866v95.129   c0,44.741,16.061,88.026,45.223,121.881c28.852,33.495,68.661,55.743,112.094,62.644c0.309,0.049,0.614,0.06,0.92,0.073V340.424z"/>
	<path style="fill:#808080;" d="M489.443,54.309h-9.538v16.022h9.538c3.603,0,6.535,2.931,6.535,6.535v95.129   c0,83.97-59.711,154.54-142.214,168.429v16.169c0.305-0.013,0.611-0.024,0.92-0.073c43.432-6.901,83.241-29.149,112.093-62.644   C495.939,260.02,512,216.736,512,171.994V76.866C512,64.428,501.881,54.309,489.443,54.309z"/>
</g>
<g>
</g>
<g>
</g>
<g>
</g>
<g>
</g>
<g>
</g>
<g>
</g>
<g>
</g>
<g>
</g>
<g>
</g>
<g>
</g>
<g>
</g>
<g>
</g>
<g>
</g>
<g>
</g>
<g>
</g>
</svg>
