<?xml version="1.0" encoding="iso-8859-1"?>
<!-- Generator: Adobe Illustrator 19.0.0, SVG Export Plug-In . SVG Version: 6.00 Build 0)  -->
<svg xmlns="http://www.w3.org/2000/svg" xmlns:xlink="http://www.w3.org/1999/xlink" version="1.1" id="Layer_1" x="0px" y="0px" viewBox="0 0 512 512" style="enable-background:new 0 0 512 512;" xml:space="preserve">
<path style="fill:#808080;" d="M504.385,131.537h-95.719v15.229h95.719c4.205,0,7.615-3.409,7.615-7.615  C512,134.947,508.591,131.537,504.385,131.537z"/>
<path style="fill:#FFA227;" d="M394.634,178.964h-27.967v-75.642h27.967c10.128,0,18.338,8.21,18.338,18.338v38.967  C412.971,170.754,404.761,178.964,394.634,178.964z"/>
<path style="fill:#FFCC5A;" d="M355.346,88.377H30.808c-8.311,0-15.049,6.738-15.049,15.05v89.295  c0,5.966,3.524,11.369,8.984,13.773l15.546,6.845c11.34,4.994,17.281,17.568,13.936,29.5L39.6,308.112l-6.367,28.416L23.2,381.647  h99.599l31.622-139.996c3.25-11.594,13.818-19.607,25.858-19.607h61.806c7.779,0,14.821-4.602,17.945-11.726l1.54-3.511  c3.124-7.124,10.166-11.726,17.945-11.726h75.831c8.501,0,15.393-6.892,15.393-15.394V103.77  C370.739,95.269,363.847,88.377,355.346,88.377z"/>
<path style="fill:#FFB000;" d="M359.923,89.069c-1.446-0.45-2.983-0.692-4.577-0.692h-7.02h-6.716v56.355  c0,11.448-9.28,20.728-20.727,20.728h-41.37H257.1c-7.779,0-14.821,4.602-17.945,11.726l-1.54,3.511  c-3.124,7.124-10.166,11.726-17.945,11.726h-39.393h-22.413c-12.04,0-22.609,8.014-25.858,19.607l-38.16,169.618h28.95  l31.62-139.986l0.002-0.011c1.219-4.348,3.466-8.192,6.435-11.299c0.495-0.518,1.01-1.015,1.543-1.491  c2.134-1.903,4.565-3.461,7.202-4.605c3.297-1.43,6.915-2.212,10.678-2.212h61.806c7.528,0,14.354-4.317,17.619-11.051  c0.109-0.225,0.225-0.445,0.326-0.675l1.54-3.511c2.885-6.579,9.114-10.998,16.176-11.637c0.585-0.053,1.174-0.089,1.769-0.089  h62.096h13.735c2.401,0,4.664-0.565,6.689-1.546c1.112-0.538,2.159-1.191,3.102-1.969c0.38-0.314,0.745-0.645,1.093-0.994  c2.018-2.018,3.467-4.598,4.118-7.481c0.248-1.097,0.39-2.233,0.39-3.404v-29.622V103.77  C370.739,96.863,366.189,91.018,359.923,89.069z"/>
<path style="fill:#C7AC91;" d="M212.248,178.964H128.24c-5.847,0-10.587-4.74-10.587-10.587v-40.671  c0-5.847,4.74-10.587,10.587-10.587h84.008c5.847,0,10.587,4.74,10.587,10.587v40.671  C222.834,174.224,218.095,178.964,212.248,178.964z"/>
<rect x="132.88" y="132.35" style="fill:#AF9177;" width="74.72" height="15.693"/>
<path style="fill:#C7AC91;" d="M183.834,423.623H8.791c-4.855,0-8.791-3.936-8.791-8.791v-34.727c0-4.855,3.936-8.791,8.791-8.791  h175.043c4.855,0,8.791,3.936,8.791,8.791v34.727C192.625,419.687,188.69,423.623,183.834,423.623z"/>
<path style="fill:#AF9177;" d="M183.835,371.314h-29.128c4.855,0,8.791,3.936,8.791,8.791v34.727c0,4.855-3.936,8.791-8.791,8.791  h29.128c4.855,0,8.791-3.936,8.791-8.791v-34.727C192.625,375.25,188.69,371.314,183.835,371.314z"/>
<g>
</g>
<g>
</g>
<g>
</g>
<g>
</g>
<g>
</g>
<g>
</g>
<g>
</g>
<g>
</g>
<g>
</g>
<g>
</g>
<g>
</g>
<g>
</g>
<g>
</g>
<g>
</g>
<g>
</g>
</svg>
